<svg width="72" height="72" viewBox="0 0 72 72" fill="none" xmlns="http://www.w3.org/2000/svg">
<path d="M68 26C68 27.0609 67.5786 28.0783 66.8284 28.8284C66.0783 29.5786 65.0609 30 64 30H52C50.9391 30 49.9217 29.5786 49.1716 28.8284C48.4214 28.0783 48 27.0609 48 26V22C48 20.9391 48.4214 19.9217 49.1716 19.1716C49.9217 18.4214 50.9391 18 52 18H64C65.0609 18 66.0783 18.4214 66.8284 19.1716C67.5786 19.9217 68 20.9391 68 22V26ZM24 26C24 27.0609 23.5786 28.0783 22.8284 28.8284C22.0783 29.5786 21.0609 30 20 30H8C6.93913 30 5.92172 29.5786 5.17157 28.8284C4.42143 28.0783 4 27.0609 4 26V22C4 20.9391 4.42143 19.9217 5.17157 19.1716C5.92172 18.4214 6.93913 18 8 18H20C21.0609 18 22.0783 18.4214 22.8284 19.1716C23.5786 19.9217 24 20.9391 24 22V26Z" fill="#DAC8B1"/>
<path d="M72 68C72 69.0609 71.5786 70.0783 70.8284 70.8284C70.0783 71.5786 69.0609 72 68 72H4C2.93913 72 1.92172 71.5786 1.17157 70.8284C0.421427 70.0783 0 69.0609 0 68V26C0 24.9391 0.421427 23.9217 1.17157 23.1716C1.92172 22.4214 2.93913 22 4 22H68C69.0609 22 70.0783 22.4214 70.8284 23.1716C71.5786 23.9217 72 24.9391 72 26V68Z" fill="#F1DCC1"/>
<path d="M44 18V14C44 12.524 43.192 11.248 42 10.554V10C42 8.93913 41.5786 7.92172 40.8284 7.17157C40.0783 6.42143 39.0609 6 38 6H34C32.9391 6 31.9217 6.42143 31.1716 7.17157C30.4214 7.92172 30 8.93913 30 10V10.554C28.81 11.248 28 12.524 28 14V18H26V72H46V18H44Z" fill="#DAC8B1"/>
<path d="M28 14H32V18H28V14ZM40 14H44V18H40V14ZM34 14H38V18H34V14Z" fill="#55ACEE"/>
<path d="M30 30H34V58H30V30ZM38 30H42V58H38V30Z" fill="#3B88C3"/>
<path d="M48 34H52V58H48V34ZM56 34H60V58H56V34ZM64 34H68V58H64V34ZM4 34H8V58H4V34ZM12 34H16V58H12V34ZM20 34H24V58H20V34ZM4 60H8V64H4V60ZM12 60H16V64H12V60ZM20 60H24V64H20V60Z" fill="#55ACEE"/>
<path d="M30 60H34V64H30V60ZM38 60H42V64H38V60Z" fill="#3B88C3"/>
<path d="M48 60H52V64H48V60ZM56 60H60V64H56V60ZM64 60H68V64H64V60Z" fill="#55ACEE"/>
<path d="M4 66H8V72H4V66ZM12 66H16V72H12V66ZM20 66H24V72H20V66ZM30 66H34V72H30V66ZM38 66H42V72H38V66ZM48 66H52V72H48V66ZM56 66H60V72H56V66ZM64 66H68V72H64V66Z" fill="#66757F"/>
</svg>
