<svg width="36" height="36" viewBox="0 0 36 36" fill="none" xmlns="http://www.w3.org/2000/svg">
<path d="M29.0898 1.36377V8.29939L25.8472 11.542L23.4427 9.13731L22.9781 9.60207L13.0275 19.5524L21.0089 27.5336L17.2982 31.2442L17.2983 34.7816H18.6122V31.7885L21.938 28.4628L23.4427 29.9675L33.8575 19.5525L29.6272 15.3222L34.3695 10.5796V1.36377H33.0556V10.0354L28.698 14.393L26.7762 12.4712L30.4036 8.84375V1.36377H29.0898ZM1.36133 2.13074V3.44467H14.4821L17.5937 6.55628C17.4076 6.87523 17.3098 7.23797 17.3102 7.60724C17.3102 8.76191 18.2462 9.69805 19.4008 9.69805C20.5553 9.69805 21.4913 8.76191 21.4913 7.60731C21.4913 6.45278 20.5553 5.51692 19.4008 5.51692C19.1095 5.51692 18.8321 5.57668 18.5801 5.6844L15.0265 2.13081H1.36133V2.13074ZM1.36133 6.03153V7.34568L10.5811 7.34589L13.6927 10.4575C13.5066 10.7764 13.4086 11.1392 13.409 11.5085C13.409 12.663 14.345 13.599 15.4996 13.599C16.6541 13.599 17.5902 12.663 17.5902 11.5085C17.5902 10.3539 16.6542 9.41785 15.4996 9.41785C15.2083 9.41785 14.9309 9.47762 14.6789 9.58534L11.1253 6.03174H1.36147L1.36133 6.03153ZM7.22441 9.93261L1.3614 9.93275V11.2469L6.68026 11.2467L9.79187 14.3587C9.60573 14.6776 9.50785 15.0403 9.5083 15.4096C9.5083 16.5641 10.4443 17.5002 11.5988 17.5002C12.7534 17.5002 13.6892 16.5641 13.6892 15.4095C13.6892 14.255 12.7534 13.3189 11.5988 13.3189C11.3074 13.3189 11.03 13.3786 10.7779 13.4864L7.22441 9.93261ZM23.4427 10.9957L31.9993 19.5526L23.4427 28.1089L14.8859 19.5526L23.4427 10.9959V10.9957ZM23.3545 12.9215L16.7048 19.5712L23.3853 26.2519L24.3145 25.3228L18.5631 19.5713L24.2838 13.8505L23.3545 12.9215ZM1.36147 14.4373V18.0377L12.6206 29.2969V34.7816H13.9348V27.0103L1.36147 14.4373ZM25.7255 15.0277L24.7965 15.9568L28.4162 19.5766L24.7761 23.2167L25.7055 24.1458L30.2745 19.5766L25.7257 15.0276L25.7255 15.0277ZM23.621 17.3592C22.394 17.3592 21.3997 18.3539 21.3997 19.5807C21.3997 20.8073 22.3941 21.8019 23.6209 21.8019C24.8478 21.8019 25.8422 20.8073 25.8422 19.5807C25.8422 18.3537 24.8478 17.3592 23.6209 17.3592L23.621 17.3592ZM1.36133 20.7669V24.3673L8.033 31.0386V34.7815H9.347V28.7522L1.36147 20.7669H1.36133ZM31.4114 25.9105C30.2568 25.9105 29.3208 26.8465 29.3208 28.001C29.3208 29.1556 30.2568 30.0918 31.4114 30.0918C31.6922 30.0918 31.9599 30.0359 32.2045 29.9355L34.7793 32.51V30.6519L33.2042 29.0769C33.3996 28.7521 33.5026 28.3801 33.5021 28.0011C33.5021 26.8466 32.566 25.9106 31.4114 25.9106V25.9105ZM1.36133 27.154V30.7547L3.56169 32.9548L3.56155 34.7817H4.87555L4.87597 30.6687L1.36133 27.154ZM27.5107 29.8116C26.3562 29.8116 25.4201 30.7476 25.4201 31.9022C25.4201 33.0567 26.356 33.9926 27.5106 33.9926C27.7576 33.9926 27.9945 33.9495 28.2145 33.8709L29.1254 34.7815H30.9837L29.2554 33.0533C29.4814 32.712 29.6017 32.3115 29.6012 31.9021C29.6012 30.7474 28.6652 29.8114 27.5106 29.8114L27.5107 29.8116Z" fill="#434343"/>
</svg>
