<svg width="72" height="72" viewBox="0 0 72 72" fill="none" xmlns="http://www.w3.org/2000/svg">
<path d="M52.9804 49.0918C51.0776 49.0918 49.5351 47.5493 49.5351 45.6465V25.5842C49.5351 18.8225 44.034 13.3213 37.2722 13.3213C30.5105 13.3213 25.0093 18.8224 25.0093 25.5842V37.2528C25.0093 39.1556 23.4668 40.6981 21.564 40.6981C19.6612 40.6981 18.1187 39.1556 18.1187 37.2528V25.5842C18.1187 15.0228 26.7108 6.43066 37.2722 6.43066C47.8336 6.43066 56.4258 15.0228 56.4258 25.5842V45.6465C56.4258 47.5493 54.8832 49.0918 52.9804 49.0918Z" fill="#B1B4B5"/>
<path d="M58.2348 69.9553H16.3092C12.3949 69.9553 9.22168 66.7821 9.22168 62.8678V38.6285C9.22168 34.7142 12.3949 31.541 16.3092 31.541H58.2348C62.1491 31.541 65.3223 34.7142 65.3223 38.6285V62.8676C65.3223 66.7821 62.1491 69.9553 58.2348 69.9553Z" fill="#FFB636"/>
<path d="M15.3718 64.2434H15.0167C13.8983 64.2434 12.9917 63.3368 12.9917 62.2184V39.2779C12.9917 38.1595 13.8983 37.2529 15.0167 37.2529H15.3718C16.4902 37.2529 17.3968 38.1595 17.3968 39.2779V62.2184C17.3968 63.3368 16.4902 64.2434 15.3718 64.2434Z" fill="#FFD469"/>
</svg>
