<svg width="72" height="72" viewBox="0 0 72 72" fill="none" xmlns="http://www.w3.org/2000/svg">
<path d="M66.0601 33.492C65.661 32.6936 65.0743 32.0039 64.3501 31.482L60.3601 28.482C60.1527 28.3389 60.0036 28.1259 59.9401 27.882C59.8505 27.64 59.8505 27.3739 59.9401 27.132L61.5901 22.242C61.8549 21.3674 61.9165 20.4439 61.7701 19.542C61.6317 18.6234 61.2599 17.7557 60.6901 17.022C60.1413 16.2881 59.42 15.7008 58.5901 15.312C57.7964 14.9308 56.9195 14.7554 56.0401 14.802H51.5401C51.274 14.7987 51.0161 14.7093 50.8051 14.547C50.5942 14.3847 50.4415 14.1584 50.3701 13.902L49.0801 9.40197C48.8313 8.48903 48.3567 7.65337 47.7001 6.97196C47.0451 6.30657 46.2439 5.80322 45.3601 5.50196C44.4667 5.22784 43.5216 5.1662 42.6001 5.32196C41.6863 5.50045 40.8308 5.9024 40.1101 6.49196L36.6901 9.19196C36.5006 9.36282 36.2553 9.4588 36.0001 9.46197C35.7697 9.48397 35.5384 9.43139 35.3401 9.31197L31.9501 6.61196C31.2542 6.04325 30.4306 5.65204 29.5501 5.47196C28.6827 5.26196 27.7776 5.26196 26.9101 5.47196C26.0402 5.71364 25.2389 6.1554 24.5701 6.76196C23.8859 7.42482 23.3625 8.23553 23.0401 9.13196L21.7501 13.662C21.6846 13.929 21.5248 14.1634 21.3001 14.322C21.063 14.4845 20.7764 14.5588 20.4901 14.532H16.2301C15.3098 14.4959 14.3942 14.6811 13.5601 15.072C12.7139 15.4477 11.9799 16.0369 11.4301 16.782C10.8779 17.5147 10.5078 18.3681 10.3501 19.272C10.2001 20.151 10.2601 21.057 10.5301 21.912L12.0001 26.979C12.0775 27.2199 12.0786 27.4788 12.0035 27.7203C11.9283 27.9619 11.7805 28.1745 11.5801 28.329L7.59013 31.329C6.86413 31.869 6.27013 32.565 5.85013 33.369C5.456 34.1666 5.25098 35.0443 5.25098 35.934C5.25098 36.8236 5.456 37.7014 5.85013 38.499C6.26882 39.3015 6.86367 39.9989 7.59013 40.539L11.5801 43.539C11.7805 43.6935 11.9283 43.906 12.0035 44.1476C12.0786 44.3892 12.0775 44.6481 12.0001 44.889L10.3501 49.779C10.0707 50.6606 9.99878 51.595 10.1401 52.509C10.2901 53.403 10.6621 54.249 11.2201 54.969C11.7691 55.719 12.5041 56.319 13.3501 56.709C14.1451 57.087 15.0211 57.261 15.9001 57.219H20.3701C20.6407 57.2073 20.9066 57.2924 21.1201 57.459C21.3358 57.6073 21.4861 57.8329 21.5401 58.089L22.8301 62.619C23.0968 63.5156 23.5693 64.3375 24.2101 65.019C25.1885 66.0379 26.512 66.655 27.9214 66.7493C29.3308 66.8436 30.7247 66.4084 31.8301 65.529L35.2801 62.799C35.4882 62.6309 35.7477 62.5393 36.0151 62.5393C36.2826 62.5393 36.542 62.6309 36.7501 62.799L40.1401 65.499C40.8601 66.105 41.7301 66.51 42.6601 66.669C42.9991 66.699 43.3411 66.699 43.6801 66.669C44.2706 66.6696 44.8576 66.5786 45.4201 66.399C46.3106 66.1187 47.1171 65.6208 47.7667 64.9503C48.4162 64.2798 48.8883 63.4579 49.1401 62.559L50.4601 57.999C50.5141 57.7429 50.6645 57.5173 50.8801 57.369C51.1121 57.1934 51.4 57.1081 51.6901 57.129H55.9801C56.8974 57.1655 57.8109 56.991 58.6501 56.619C59.4773 56.2241 60.1978 55.6367 60.7511 54.9059C61.3044 54.1751 61.6744 53.3223 61.8301 52.419C61.9855 51.4956 61.9134 50.5482 61.6201 49.659L60.0001 44.799C59.9105 44.557 59.9105 44.2909 60.0001 44.049C60.0636 43.805 60.2127 43.5921 60.4201 43.449L64.4101 40.449C65.1355 39.916 65.7221 39.2163 66.1201 38.409C66.5393 37.6139 66.7557 36.7277 66.7501 35.829C66.6935 35.008 66.458 34.2123 66.0601 33.492ZM49.7401 31.209L36.4801 44.469C35.9663 44.9712 35.3669 45.3776 34.7101 45.669C34.0441 45.939 33.3301 46.083 32.6101 46.089C31.8761 46.093 31.1498 45.9395 30.4801 45.639C29.8077 45.36 29.1963 44.9524 28.6801 44.439L22.1401 37.869C21.6487 37.2951 21.3918 36.5568 21.421 35.8018C21.4502 35.0468 21.7632 34.3306 22.2974 33.7963C22.8317 33.262 23.5479 32.949 24.303 32.9198C25.058 32.8907 25.7962 33.1475 26.3701 33.639L32.6101 39.879L45.5101 26.949C46.0722 26.3902 46.8326 26.0766 47.6251 26.0766C48.4177 26.0766 49.178 26.3902 49.7401 26.949C50.0407 27.2291 50.2803 27.5681 50.4442 27.9449C50.608 28.3217 50.6926 28.7281 50.6926 29.139C50.6926 29.5498 50.608 29.9563 50.4442 30.333C50.2803 30.7098 50.0407 31.0488 49.7401 31.329V31.209Z" fill="#83BF4F"/>
</svg>
