<svg width="72" height="72" viewBox="0 0 72 72" fill="none" xmlns="http://www.w3.org/2000/svg">
<path d="M60 61.5H12C8.7 61.5 6 58.8 6 55.5V24.15C6 22.2 6.9 20.4 8.55 19.2L36 0L63.45 19.2C65.1 20.25 66 22.2 66 24.15V55.5C66 58.8 63.3 61.5 60 61.5Z" fill="#78909C"/>
<path d="M21 1.5H51V48H21V1.5Z" fill="#AED581"/>
<path d="M19.5 0V49.5H52.5V0H19.5ZM49.5 46.5H22.5V3H49.5V46.5Z" fill="#558B2F"/>
<path d="M51 4.5C51 7.05 50.55 9 48 9C45.45 9 43.5 7.05 43.5 4.5C43.5 1.95 45.45 1.5 48 1.5C50.55 1.5 51 1.95 51 4.5ZM24 1.5C26.55 1.5 28.5 1.95 28.5 4.5C28.5 7.05 26.55 9 24 9C21.45 9 21 7.05 21 4.5C21 1.95 21.45 1.5 24 1.5Z" fill="#558B2F"/>
<path d="M36 15C37.6569 15 39 13.6569 39 12C39 10.3431 37.6569 9 36 9C34.3431 9 33 10.3431 33 12C33 13.6569 34.3431 15 36 15Z" fill="#558B2F"/>
<path d="M36 39C40.9706 39 45 34.9706 45 30C45 25.0294 40.9706 21 36 21C31.0294 21 27 25.0294 27 30C27 34.9706 31.0294 39 36 39Z" fill="#558B2F"/>
<path d="M60 61.5H12C8.7 61.5 6 58.8 6 55.5V25.5L36 45L66 25.5V55.5C66 58.8 63.3 61.5 60 61.5Z" fill="#CFD8DC"/>
</svg>
