<svg width="72" height="72" viewBox="0 0 72 72" fill="none" xmlns="http://www.w3.org/2000/svg">
<path d="M18 60V30H66V60C66 63.3 63.3 66 60 66H24C20.7 66 18 63.3 18 60Z" fill="#CFD8DC"/>
<path d="M66 24V33H18V24C18 20.7 20.7 18 24 18H60C63.3 18 66 20.7 66 24Z" fill="#78909C"/>
<path d="M55.5 28.5C57.9853 28.5 60 26.4853 60 24C60 21.5147 57.9853 19.5 55.5 19.5C53.0147 19.5 51 21.5147 51 24C51 26.4853 53.0147 28.5 55.5 28.5Z" fill="#37474F"/>
<path d="M30 28.5C32.4853 28.5 34.5 26.4853 34.5 24C34.5 21.5147 32.4853 19.5 30 19.5C27.5147 19.5 25.5 21.5147 25.5 24C25.5 26.4853 27.5147 28.5 30 28.5Z" fill="#37474F"/>
<path d="M55.5 15C53.85 15 52.5 16.35 52.5 18V24C52.5 25.65 53.85 27 55.5 27C57.15 27 58.5 25.65 58.5 24V18C58.5 16.35 57.15 15 55.5 15ZM30 15C28.35 15 27 16.35 27 18V24C27 25.65 28.35 27 30 27C31.65 27 33 25.65 33 24V18C33 16.35 31.65 15 30 15Z" fill="#B0BEC5"/>
<path d="M48 51H54V57H48V51ZM39 51H45V57H39V51ZM30 51H36V57H30V51ZM48 42H54V48H48V42ZM39 42H45V48H39V42ZM30 42H36V48H30V42Z" fill="#90A4AE"/>
<path d="M24 40.5C33.9411 40.5 42 32.4411 42 22.5C42 12.5589 33.9411 4.5 24 4.5C14.0589 4.5 6 12.5589 6 22.5C6 32.4411 14.0589 40.5 24 40.5Z" fill="#F44336"/>
<path d="M24 36C31.4558 36 37.5 29.9558 37.5 22.5C37.5 15.0442 31.4558 9 24 9C16.5442 9 10.5 15.0442 10.5 22.5C10.5 29.9558 16.5442 36 24 36Z" fill="#EEEEEE"/>
<path d="M22.5 12H25.5V22.5H22.5V12Z" fill="black"/>
<path d="M30.7771 27.1501L28.7626 29.1661L23.0356 23.4391L25.0516 21.4246L30.7771 27.1501Z" fill="black"/>
<path d="M24 24.75C25.2426 24.75 26.25 23.7426 26.25 22.5C26.25 21.2574 25.2426 20.25 24 20.25C22.7574 20.25 21.75 21.2574 21.75 22.5C21.75 23.7426 22.7574 24.75 24 24.75Z" fill="black"/>
</svg>
