<svg width="72" height="72" viewBox="0 0 72 72" fill="none" xmlns="http://www.w3.org/2000/svg">
<path d="M53.4375 50.7376C46.0125 64.3501 46.125 65.4751 42.6375 63.4501C39.15 61.4251 37.8 59.6251 45.3375 46.1251C52.875 32.6251 55.0125 32.7376 58.5 34.7626C61.875 36.6751 60.8625 37.2376 53.4375 50.7376Z" fill="#454749"/>
<path d="M60.4123 54.7875C55.6873 63.45 49.8373 67.6125 47.0248 66.0375C43.5373 64.0125 45.3373 64.0125 52.7623 50.4C60.1873 36.7875 59.2873 35.2125 62.7748 37.2375C65.5873 38.8125 65.1373 46.125 60.4123 54.7875Z" fill="#258399"/>
<path d="M18.5623 50.7376C25.9873 64.3501 25.8748 65.4751 29.3623 63.4501C32.8498 61.4251 34.1998 59.6251 26.6623 46.1251C19.1248 32.6251 16.9873 32.7376 13.4998 34.7626C10.1248 36.6751 11.1373 37.2376 18.5623 50.7376Z" fill="#454749"/>
<path d="M11.5875 54.7875C16.3125 63.45 22.1625 67.6125 24.975 66.0375C28.4625 64.0125 26.6625 64.0125 19.2375 50.4C11.8125 36.7875 12.7125 35.2125 9.225 37.2375C6.4125 38.8125 6.8625 46.125 11.5875 54.7875Z" fill="#258399"/>
<path d="M12.7125 64.9125C12.7125 64.9125 18.7875 66.4875 19.2375 64.9125C22.05 55.8 6.4125 50.4 6.4125 40.05C6.4125 23.4 19.6875 9.9 36 9.9C52.3125 9.9 65.5875 23.4 65.5875 40.05C65.5875 50.4 49.95 55.8 52.7625 64.9125C53.2125 66.4875 59.2875 64.9125 59.2875 64.9125C65.7 58.6125 69.75 49.8375 69.75 40.05C69.75 21.0375 54.675 5.625 36 5.625C17.325 5.625 2.25 21.0375 2.25 40.05C2.25 49.8375 6.3 58.6125 12.7125 64.9125Z" fill="#3BAACF"/>
<path d="M16.7623 19.8001C20.6998 19.0126 25.7623 13.3876 35.9998 13.3876C46.2373 13.3876 51.4123 19.1251 55.2373 19.8001C56.8123 20.1376 59.5123 17.6626 59.5123 17.6626C53.3248 10.5751 46.0123 6.9751 35.9998 6.9751C25.9873 6.9751 18.6748 10.5751 12.4873 17.6626C12.4873 17.7751 15.1873 20.1376 16.7623 19.8001Z" fill="#454749"/>
</svg>
