<svg width="72" height="72" viewBox="0 0 72 72" fill="none" xmlns="http://www.w3.org/2000/svg">
<path d="M61.6498 12.375H40.9498L36.2248 21.825H9.6748V59.625H66.3748V12.375H61.6498ZM61.6498 54.45H14.8498V26.55H61.6498V54.45ZM61.6498 21.825H43.1998L45.4498 17.1H61.4248V21.825H61.6498Z" fill="#DB847B"/>
<path d="M57.825 30.825H1.125L9.675 59.6249H66.375L57.825 30.825Z" fill="#DB847B"/>
<path d="M28.9778 23.1322C29.6682 22.708 30.4649 22.4887 31.2751 22.4999H65.6371C66.5865 22.5198 67.5025 22.8536 68.2421 23.4492C68.9818 24.0447 69.5033 24.8684 69.7253 25.7917C69.8288 26.2688 69.8696 26.7575 69.8468 27.2452V46.1024H67.1918C67.0673 46.1041 66.9431 46.1162 66.8206 46.1384C66.4942 46.1146 66.1667 46.1086 65.8396 46.1204C65.3333 46.1317 64.8113 46.0979 64.2983 46.1429C64.0745 46.1148 63.8489 46.1035 63.6233 46.1092H55.6291C55.2916 46.1092 54.9676 46.1227 54.6391 46.0934L54.8078 45.9832L44.0888 39.5504V46.1114H32.8861C32.7446 46.1168 32.6035 46.1288 32.4631 46.1474C32.1037 46.1095 31.7417 46.1004 31.3808 46.1204C30.9016 46.1204 30.4201 46.0957 29.9408 46.1452C29.799 46.1264 29.6563 46.1144 29.5133 46.1092H26.9101C26.9206 39.9757 26.9206 33.8452 26.9101 27.7177C26.8744 27.0792 26.9144 26.4387 27.0293 25.8097C27.1597 25.2562 27.3992 24.7343 27.7338 24.2746C28.0684 23.8148 28.4913 23.4265 28.9778 23.1322ZM29.8778 26.8244C29.6471 26.8802 29.4411 27.0106 29.2918 27.1952C29.1426 27.3799 29.0583 27.6086 29.0521 27.8459V30.0667C29.069 30.3374 29.1872 30.5919 29.3831 30.7795C29.579 30.9671 29.8384 31.074 30.1096 31.0792H32.3191C32.5846 31.0629 32.8347 30.9491 33.0216 30.7598C33.2084 30.5705 33.3188 30.3189 33.3316 30.0532V27.8954C33.3362 27.6985 33.2869 27.504 33.1889 27.3331C33.091 27.1621 32.9481 27.0213 32.7758 26.9257C32.5898 26.83 32.3818 26.785 32.1728 26.7952H30.2558C30.133 26.7949 30.0103 26.8047 29.8891 26.8244H29.8778ZM64.1993 26.8244C63.9732 26.8854 63.773 27.0182 63.6289 27.2029C63.4849 27.3875 63.4047 27.614 63.4006 27.8482V30.0509C63.4134 30.3166 63.5238 30.5682 63.7106 30.7576C63.8975 30.9469 64.1476 31.0606 64.4131 31.0769H66.6203C66.893 31.0716 67.1536 30.9634 67.3498 30.7739C67.5459 30.5844 67.6631 30.3278 67.6778 30.0554V27.8392C67.6707 27.5713 67.5643 27.3157 67.3793 27.122C67.1943 26.9282 66.9438 26.8101 66.6766 26.7907C66.0893 26.7749 65.4953 26.7907 64.9126 26.7907C64.6748 26.7791 64.4365 26.7926 64.2016 26.8312L64.1993 26.8244ZM29.8913 33.2639C29.7185 33.305 29.5585 33.3881 29.4254 33.5059C29.2924 33.6236 29.1904 33.7724 29.1286 33.9389C29.0658 34.1496 29.0422 34.37 29.0588 34.5892V36.5039C29.0748 36.7672 29.1867 37.0156 29.3732 37.2021C29.5597 37.3886 29.808 37.5004 30.0713 37.5164C30.7463 37.5299 31.4213 37.5164 32.0828 37.5164C32.3136 37.5382 32.546 37.5003 32.7578 37.4062C32.9394 37.3178 33.0926 37.1803 33.2 37.0093C33.3074 36.8383 33.3647 36.6406 33.3653 36.4387V34.2809C33.3591 34.0105 33.2516 33.7523 33.0641 33.5573C32.8766 33.3623 32.6228 33.2448 32.3528 33.2279C31.7836 33.2144 31.2098 33.2279 30.6383 33.2279C30.3888 33.2192 30.1389 33.2312 29.8913 33.2639ZM64.2061 33.2639C64.039 33.3096 63.8854 33.3947 63.7581 33.5122C63.6308 33.6297 63.5337 33.776 63.4748 33.9389C63.4118 34.1503 63.3882 34.3715 63.4051 34.5914V36.4994C63.4187 36.7669 63.5313 37.0198 63.7209 37.209C63.9104 37.3981 64.1636 37.5101 64.4311 37.5232H66.4853C66.7069 37.538 66.9284 37.4929 67.1266 37.3927C67.2961 37.3006 67.438 37.1649 67.5373 36.9995C67.6366 36.8341 67.6898 36.6451 67.6913 36.4522V34.2854C67.6842 34.0176 67.5778 33.762 67.3928 33.5682C67.2078 33.3744 66.9573 33.2564 66.6901 33.2369C66.1006 33.2212 65.5088 33.2369 64.9238 33.2369C64.6825 33.223 64.4404 33.2351 64.2016 33.2729L64.2061 33.2639ZM29.8913 39.7102C29.6594 39.7658 29.4524 39.8966 29.3026 40.0822C29.1528 40.2678 29.0687 40.4977 29.0633 40.7362V42.9547C29.0803 43.2254 29.1984 43.4799 29.3944 43.6675C29.5903 43.8551 29.8496 43.9621 30.1208 43.9672H32.3146C32.5821 43.9541 32.8352 43.8422 33.0248 43.653C33.2144 43.4638 33.327 43.2109 33.3406 42.9434V40.7384C33.3348 40.4661 33.2263 40.2061 33.0368 40.0104C32.8474 39.8148 32.591 39.6979 32.3191 39.6832C31.7318 39.6719 31.1378 39.6832 30.5551 39.6832C30.3335 39.6717 30.1113 39.6807 29.8913 39.7102ZM64.2016 39.7102C64.0358 39.7568 63.8835 39.8423 63.7574 39.9597C63.6314 40.0772 63.5353 40.223 63.4771 40.3852C63.4143 40.5958 63.3907 40.8162 63.4073 41.0354V42.9434C63.4204 43.2109 63.5324 43.4641 63.7215 43.6537C63.9107 43.8433 64.1636 43.9558 64.4311 43.9694H66.6338C66.9069 43.9647 67.168 43.8567 67.3647 43.6672C67.5613 43.4776 67.6788 43.2206 67.6936 42.9479V40.7317C67.6865 40.4642 67.5804 40.2089 67.3959 40.0152C67.2113 39.8215 66.9614 39.7031 66.6946 39.6832C66.1051 39.6674 65.5133 39.6832 64.9306 39.6832C64.6882 39.6633 64.4443 39.6716 64.2038 39.7079L64.2016 39.7102Z" fill="#E75749"/>
<path d="M44.1001 39.5415L54.8191 45.9743L54.6503 46.0845C51.1328 48.1845 47.6168 50.2928 44.1023 52.4093V46.1093L44.1001 39.5415Z" fill="white"/>
<path d="M26.9101 46.1024H29.5111C29.6541 46.1076 29.7967 46.1196 29.9386 46.1384C29.6579 46.1912 29.4095 46.353 29.2478 46.5884C29.0975 46.8534 29.0323 47.1581 29.0611 47.4614V49.2254C29.0602 49.3775 29.0893 49.5282 29.1467 49.669C29.2042 49.8098 29.2888 49.9379 29.3958 50.046C29.5028 50.154 29.6301 50.2399 29.7703 50.2987C29.9106 50.3575 30.061 50.3881 30.2131 50.3887H32.2381C32.5061 50.3833 32.7637 50.2843 32.9664 50.1088C33.169 49.9333 33.3038 49.6924 33.3473 49.4279C33.3608 48.6742 33.3473 47.9092 33.3473 47.1622C33.3438 46.9143 33.2541 46.6754 33.0936 46.4865C32.933 46.2976 32.7117 46.1705 32.4676 46.1272C32.6079 46.1085 32.7491 46.0965 32.8906 46.0912H44.0933V52.3912C47.6108 50.2912 51.1268 48.1829 54.6413 46.0664C54.9788 46.0957 55.3006 46.0777 55.6313 46.0822H63.6301C63.8556 46.0765 64.0813 46.0878 64.3051 46.1159C64.1279 46.1489 63.9618 46.2256 63.8219 46.3392C63.682 46.4528 63.5728 46.5995 63.5041 46.7662C63.4281 46.9864 63.402 47.2208 63.4276 47.4524V49.1624C63.4103 49.4643 63.5129 49.7608 63.713 49.9875C63.9131 50.2141 64.1946 50.3526 64.4963 50.3729H66.5506C66.8495 50.3737 67.137 50.2586 67.3527 50.0517C67.5684 49.8448 67.6954 49.5623 67.7071 49.2637V47.6032C67.7468 47.2623 67.6882 46.9173 67.5383 46.6087C67.4604 46.4822 67.3573 46.3732 67.2353 46.2884C67.1134 46.2036 66.9753 46.1449 66.8296 46.1159C66.9521 46.0937 67.0763 46.0816 67.2008 46.0799H69.8558C69.8738 48.9847 69.8558 51.8894 69.8558 54.7942V65.4119C69.8498 66.433 69.4841 67.4192 68.8231 68.1974C68.1513 68.9899 67.2139 69.5105 66.1861 69.6622C65.6358 69.7148 65.0827 69.7336 64.5301 69.7184H32.7308C31.9604 69.7479 31.1888 69.7209 30.4223 69.6374C29.6239 69.4881 28.8838 69.1168 28.2868 68.566C27.6898 68.0152 27.2603 67.3073 27.0473 66.5234C26.938 66.1134 26.8873 65.6899 26.8966 65.2657V47.6257C26.9078 47.1194 26.8921 46.6087 26.9101 46.1024ZM29.9386 52.5869C29.6797 52.6309 29.4473 52.7717 29.2883 52.9807C29.1302 53.2103 29.0512 53.4851 29.0633 53.7637V55.7234C29.0755 56.0219 29.2028 56.304 29.4183 56.5108C29.6339 56.7176 29.9211 56.8329 30.2198 56.8327H32.3843C32.6645 56.784 32.917 56.634 33.0938 56.4112C33.2705 56.1884 33.3592 55.9083 33.3428 55.6244V53.6174C33.3438 53.4723 33.3143 53.3286 33.2561 53.1956C33.198 53.0627 33.1126 52.9434 33.0053 52.8457C32.7773 52.6504 32.484 52.5484 32.1841 52.5599H30.2671C30.1571 52.5601 30.0473 52.5706 29.9386 52.5869ZM64.3006 52.5869C64.0641 52.6247 63.8477 52.7425 63.6876 52.9206C63.5274 53.0988 63.4333 53.3265 63.4208 53.5657V55.6267C63.4114 55.7762 63.4315 55.9261 63.4799 56.0678C63.5284 56.2096 63.6043 56.3404 63.7034 56.4528C63.8024 56.5652 63.9226 56.657 64.0571 56.7229C64.1916 56.7889 64.3378 56.8277 64.4873 56.8372H66.7441C67.0108 56.7833 67.2506 56.639 67.4232 56.4287C67.5958 56.2184 67.6905 55.955 67.6913 55.6829V53.9729C67.7336 53.6418 67.6664 53.306 67.5001 53.0167C67.3953 52.8769 67.2594 52.7635 67.1032 52.6854C66.947 52.6073 66.7747 52.5667 66.6001 52.5667H64.9913C64.7662 52.5557 64.5406 52.5618 64.3163 52.5847L64.3006 52.5869ZM29.9408 59.0264C29.8061 59.0486 29.6772 59.0971 29.5613 59.1694C29.4455 59.2416 29.345 59.336 29.2658 59.4472C29.1188 59.6711 29.0457 59.9355 29.0566 60.2032V62.1134C29.0585 62.3961 29.1618 62.6686 29.3475 62.8817C29.5333 63.0947 29.7893 63.234 30.0691 63.2744H32.4001C32.6803 63.2252 32.9326 63.0746 33.1089 62.8514C33.2853 62.6282 33.3733 62.3479 33.3563 62.0639V60.0569C33.3576 59.9114 33.3283 59.7673 33.2701 59.6339C33.212 59.5006 33.1263 59.3809 33.0188 59.2829C32.792 59.0888 32.5005 58.9868 32.2021 58.9972H30.2761C30.1638 58.9985 30.0517 59.0083 29.9408 59.0264ZM64.2961 59.0264C64.1041 59.0564 63.9243 59.1398 63.7775 59.2671C63.6307 59.3944 63.5227 59.5605 63.4658 59.7464C63.4164 59.9272 63.3996 60.1154 63.4163 60.3022V62.3272C63.4608 62.5904 63.5957 62.83 63.7977 63.0045C63.9998 63.1791 64.2564 63.2777 64.5233 63.2834H66.5371C66.8452 63.2822 67.1403 63.1588 67.3575 62.9403C67.5748 62.7218 67.6964 62.426 67.6958 62.1179V60.1064C67.6954 59.9256 67.6515 59.7476 67.5676 59.5874C67.4838 59.4272 67.3626 59.2896 67.2143 59.1862C66.7972 59.0037 66.3379 58.9399 65.8868 59.0017C65.3603 59.0174 64.8248 58.9679 64.3118 59.0309L64.2961 59.0264Z" fill="#C0392B"/>
</svg>
