<svg width="72" height="72" viewBox="0 0 72 72" fill="none" xmlns="http://www.w3.org/2000/svg">
<path d="M41.9222 52.537C54.354 47.4226 63.5683 41.1772 62.503 38.5874C61.4376 35.9977 50.4959 38.0444 38.064 43.1588C25.6322 48.2732 16.4179 54.5186 17.4833 57.1083C18.5487 59.698 29.4903 57.6514 41.9222 52.537Z" fill="#BD851D"/>
<path d="M40.4194 48.8403C46.4984 46.3409 50.8057 42.8052 50.0401 40.9433C49.2745 39.0813 43.726 39.5981 37.647 42.0976C31.5681 44.5971 27.2608 48.1327 28.0263 49.9947C28.7919 51.8566 34.3405 51.3398 40.4194 48.8403Z" fill="#844F15"/>
<path d="M33.4646 51.0986L32.5904 45.3585C32.4358 44.3456 31.0948 43.6973 29.5885 43.9182C28.0822 44.139 26.9902 45.1386 27.1448 46.1543L28.0209 51.8944C25.1493 53.0795 23.3192 55.327 23.6673 57.5974C24.1137 60.5274 27.9801 62.3855 32.3104 61.7506C36.6319 61.1185 39.7767 58.2361 39.3333 55.307C38.9852 53.0348 36.5638 51.4117 33.4598 51.0986" fill="#FBB041"/>
<path d="M26.7266 57.1466C26.3834 54.8745 28.2014 52.6272 31.0413 51.4441L30.1727 45.7044C30.0792 45.0762 30.4639 44.4528 31.1145 44.0187C30.6026 43.87 30.0634 43.8362 29.5365 43.9197C28.0433 44.1406 26.9608 45.14 27.1141 46.1556L27.9826 51.8952C25.136 53.0803 23.3219 55.3276 23.667 57.5977C24.1094 60.5275 27.9421 62.3855 32.2347 61.7506C32.7465 61.6738 33.2527 61.5637 33.75 61.4213C30.1188 61.4613 27.117 59.7156 26.7266 57.1466Z" fill="#E09734"/>
<path d="M38.206 56.0392C38.3176 56.8335 38.2121 57.599 37.9442 58.2506C37.8762 58.4103 37.7991 58.5668 37.7108 58.7105C37.3902 59.2035 36.5176 60.0605 36.3735 59.361C36.3139 59.0595 36.2363 58.7622 36.1412 58.471C36.0929 58.3283 36.0411 58.187 35.9859 58.0472C35.365 56.0669 34.0043 56.3544 32.9004 55.591C32.3535 55.245 32.7411 54.4635 33.0343 54.0919C33.1317 53.9503 33.2342 53.8236 33.3387 53.7076C33.7618 53.2413 34.2397 52.9538 34.7744 52.9048C34.932 52.8812 35.0912 52.8716 35.2503 52.8761C36.6789 52.9378 37.9503 54.2527 38.206 56.0392Z" fill="#F9C178"/>
<path d="M30.2025 11.7738C30.8818 13.3742 29.4941 15.4468 27.1058 16.3974C24.7119 17.3543 22.2269 16.8275 21.5476 15.2262C20.8683 13.6258 22.2541 11.5532 24.649 10.5999C27.0344 9.64747 29.5232 10.1724 30.2025 11.7738Z" fill="#FBB041"/>
<path d="M29.1598 11.133C29.3013 11.5243 29.2711 11.9632 29.1057 12.3842C29.0622 12.491 29.0125 12.5943 28.9569 12.6935C28.7394 13.0444 28.1172 13.7449 27.958 13.4131C27.8577 13.1912 27.7258 12.9898 27.5679 12.8172C26.9509 11.937 25.9083 12.4663 25.0021 12.3664C24.5526 12.3367 24.8013 11.8109 25.0041 11.5314C25.0718 11.4291 25.1415 11.334 25.2206 11.2424C25.5112 10.8738 25.8747 10.59 26.2808 10.4146C26.4032 10.3596 26.5274 10.3104 26.6533 10.2671C27.7666 9.90431 28.8435 10.2516 29.1598 11.133Z" fill="#F9C178"/>
<path d="M24.8953 12.9354C24.5388 12.0566 24.6791 11.058 25.1947 10.125C25.0053 10.1849 24.8183 10.2525 24.6342 10.3276C22.2501 11.3243 20.8727 13.4851 21.5455 15.1551C22.222 16.8252 24.6969 17.3749 27.0811 16.3772C27.9559 16.013 28.697 15.488 29.25 14.8888C27.242 15.1076 25.4792 14.3857 24.8953 12.9354Z" fill="#E09734"/>
<path fill-rule="evenodd" clip-rule="evenodd" d="M53.0914 33.9068C49.2652 32.0566 46.5968 29.2072 44.5356 25.775C42.5895 22.5248 41.021 19.0916 39.5107 15.6429C38.5957 13.5613 37.066 12.7945 34.6833 12.9639C33.0472 13.0845 31.4267 13.363 29.8443 13.7956C28.9351 14.1238 28.0318 14.4646 27.1178 14.8122C26.14 15.242 25.1815 15.6709 24.2249 16.1173C23.7359 16.3467 23.247 16.5781 22.7619 16.8115C21.526 17.5434 20.3544 18.379 19.26 19.3094C17.4476 20.8633 16.8986 22.4841 17.7138 24.6093C19.0664 28.1209 20.3676 31.6616 21.27 35.3465C22.2217 39.2386 22.3272 43.1404 20.9108 47.1468C20.1827 49.2061 19.3036 51.2151 18.4438 53.2318C17.892 54.5224 17.3643 55.8169 17.464 57.2004C17.648 57.306 17.7787 57.2518 17.8716 57.0639C19.0625 54.6822 21.2496 53.1282 23.4184 51.5995C27.1537 48.966 31.222 46.866 35.3775 44.9209C36.3311 44.4726 37.2964 44.0486 38.2704 43.6187C39.2647 43.2363 40.2513 42.8616 41.2447 42.5091C45.5706 40.9639 49.9352 39.5949 54.443 38.8407C57.0581 38.4002 59.7071 37.9683 62.2273 38.8203C62.4277 38.8901 62.5565 38.8378 62.6107 38.6345C61.7112 37.582 60.4207 37.0321 59.1242 36.5025C57.093 35.6728 55.0559 34.8614 53.0905 33.9116" fill="#FBB041"/>
<path fill-rule="evenodd" clip-rule="evenodd" d="M59.1159 36.4843C57.0846 35.6565 55.0475 34.8432 53.0821 33.8953C49.2558 32.0451 46.5875 29.1948 44.5243 25.7616C42.5782 22.5114 41.0097 19.0782 39.5003 15.6314C38.5854 13.5479 37.0557 12.783 34.672 12.9534C33.0365 13.0725 31.4165 13.3504 29.8349 13.7832C28.9267 14.1123 28.0234 14.4531 27.1085 14.8017C26.5634 15.0408 26.0231 15.2906 25.481 15.5336C25.8276 15.4039 26.1771 15.2703 26.5285 15.1425C28.1173 14.7146 29.7236 14.4299 31.3675 14.3108C33.7493 14.1424 35.279 14.9092 36.194 16.9937C37.7063 20.4414 39.2728 23.8736 41.2179 27.1219C43.2811 30.559 45.9494 33.4054 49.7757 35.2557C51.7412 36.2054 53.7792 37.0168 55.8095 37.8446C56.2578 38.0266 56.7002 38.2222 57.1301 38.4294C58.8477 38.2435 60.5614 38.2454 62.2189 38.805C62.4174 38.8709 62.5471 38.8196 62.6023 38.6182C61.7029 37.5609 60.4123 37.0119 59.1159 36.4843Z" fill="#F9C178"/>
<path fill-rule="evenodd" clip-rule="evenodd" d="M25.2678 49.2962C26.1285 47.2775 27.0067 45.2676 27.7347 43.2102C29.1512 39.2038 29.0457 35.301 28.092 31.4099C27.1916 27.7298 25.8884 24.1911 24.5378 20.6727C23.7226 18.5484 24.2725 16.9267 26.0859 15.3709C26.1972 15.2731 26.3154 15.1821 26.4306 15.0891C25.688 15.4222 24.9454 15.7446 24.2154 16.0893C23.7245 16.3187 23.2356 16.5501 22.7505 16.7825C21.515 17.5135 20.3441 18.3486 19.2505 19.2785C17.4361 20.8324 16.8871 22.4561 17.7043 24.5783C19.0559 28.0929 20.3581 31.6355 21.2595 35.3155C22.2131 39.2077 22.3187 43.1095 20.9003 47.1139C20.1722 49.1742 19.295 51.1822 18.4353 53.2028C17.8834 54.4915 17.3557 55.786 17.4555 57.1676C17.6394 57.275 17.7672 57.2189 17.8611 57.032C19.0539 54.6512 21.2391 53.0983 23.4079 51.5676C23.8436 51.2636 24.286 50.9624 24.7304 50.6681C24.8902 50.2073 25.0732 49.7483 25.2678 49.2933" fill="#E09734"/>
<path d="M64.6923 31.4913C64.3554 31.0024 64.0213 30.5135 63.6883 30.0342C63.637 29.9567 63.6176 29.8909 63.5808 29.8212C63.5363 29.7457 63.4869 29.6692 63.455 29.584C63.4027 29.4563 63.3697 29.3215 63.3572 29.1841C63.3552 29.158 63.3407 29.1338 63.3368 29.1028C62.9631 24.1844 60.2648 19.265 55.8982 15.8076C53.5523 13.9497 53.0479 14.5867 51.3129 12.0665C50.6052 11.0364 51.0554 10.1612 51.9093 10.4884C59.741 13.4743 66.3799 23.1136 66.375 31.4933C66.376 32.4082 65.3971 32.5176 64.6923 31.4913Z" fill="#27AAE1"/>
<path d="M59.8901 32.355L59.0662 31.1602C59.0236 31.0954 59.0071 31.0489 58.9742 30.986C58.9403 30.923 58.8977 30.8582 58.8696 30.7894C58.8295 30.6846 58.8034 30.5748 58.7922 30.4631C58.7902 30.4409 58.7796 30.4186 58.7757 30.3963C58.4717 26.3483 56.2478 22.2994 52.6529 19.4519C50.7252 17.928 50.3108 18.446 48.8847 16.376C48.2999 15.5259 48.6688 14.8056 49.3736 15.0738C55.8198 17.5349 61.2794 25.4615 61.2775 32.3618C61.2785 33.116 60.4739 33.2012 59.8901 32.355ZM12.2339 50.9887L11.8824 49.2557C11.864 49.1647 11.8301 49.1037 11.805 49.0291C11.7827 48.9459 11.7604 48.8568 11.7217 48.7735C11.665 48.648 11.5907 48.5313 11.5009 48.4269C11.4845 48.4066 11.4748 48.3795 11.4583 48.3562C8.17812 44.6713 6.51186 39.3143 7.05599 33.7753C7.34838 30.7972 8.15779 30.8756 7.54879 27.8771C7.29706 26.6514 6.35792 26.3677 5.99872 27.21C2.70785 34.9197 5.03053 46.3879 11.0672 52.2058C11.7265 52.8428 12.4808 52.2135 12.2339 50.9916" fill="#27AAE1"/>
<path d="M16.1863 48.1365C16.0885 47.6659 15.9917 47.1828 15.8978 46.7161C15.8794 46.6387 15.8571 46.5941 15.8329 46.5293C15.8126 46.4605 15.7962 46.384 15.7661 46.3163C15.7189 46.2144 15.6576 46.1195 15.5841 46.0345C15.5696 46.0152 15.5618 45.9939 15.5493 45.9735C12.847 42.945 11.479 38.5311 11.9253 33.9709C12.1683 31.5243 12.8287 31.5853 12.3291 29.1203C12.1248 28.1104 11.3493 27.8742 11.053 28.5684C8.34593 34.9149 10.2571 44.3499 15.224 49.1395C15.769 49.6623 16.3897 49.1424 16.1863 48.1345" fill="#27AAE1"/>
</svg>
