<svg width="72" height="72" viewBox="0 0 72 72" fill="none" xmlns="http://www.w3.org/2000/svg">
<g clip-path="url(#clip0_962_67285)">
<path d="M60.75 52.7625C60.75 66.375 49.725 66.375 36 66.375C22.275 66.375 11.25 66.375 11.25 52.7625C11.25 39.15 22.3875 16.875 36 16.875C49.6125 16.875 60.75 39.0375 60.75 52.7625Z" fill="#DBB471"/>
<path opacity="0.5" d="M60.7502 52.7625C60.7502 48.15 59.5127 42.525 57.2627 37.125C57.7127 40.6125 56.8127 46.8 46.1252 49.1625C30.9377 52.425 38.8127 56.7 32.8502 57.2625C27.7877 57.7125 14.2877 55.6875 11.5877 48.0375C11.3627 49.725 11.1377 51.3 11.1377 52.875C11.2502 66.375 22.3877 66.375 36.0002 66.375C49.6127 66.375 60.7502 66.375 60.7502 52.7625Z" fill="#89664C"/>
<path d="M42.6377 46.2376C42.1877 43.9876 40.2752 43.3126 38.2502 43.2001V40.0501C38.8127 40.2751 39.4877 40.6126 39.9377 40.9501C40.8377 41.5126 41.7377 40.0501 40.8377 39.4876C40.0502 39.0376 39.1502 38.5876 38.2502 38.2501V34.5376C38.2502 33.4126 36.5627 33.4126 36.5627 34.5376V37.8001C35.6627 37.6876 34.7627 37.6876 33.8627 37.8001C33.7502 37.0126 33.5252 36.2251 33.3002 35.4376C33.0752 34.3126 31.3877 34.7626 31.7252 35.8876C31.9502 36.6751 32.0627 37.4626 32.2877 38.2501C32.1752 38.2501 32.1752 38.2501 32.0627 38.3626C29.8127 39.2626 28.3502 41.5126 30.0377 43.6501C30.8252 44.6626 31.8377 45.0001 32.9627 45.2251C33.0752 46.6876 33.0752 48.1501 33.0752 49.6126C32.2877 49.1626 31.6127 48.4876 31.0502 47.9251C30.2627 47.1376 29.1377 48.3751 29.8127 49.1626C30.8252 50.2876 31.9502 51.0751 33.0752 51.6376C33.0752 52.8751 33.1877 54.1126 33.3002 55.3501C33.4127 56.4751 35.1002 56.4751 34.9877 55.3501C34.8752 54.2251 34.7627 53.2126 34.7627 52.0876C35.4377 52.2001 36.1127 52.2001 36.7877 52.2001C36.9002 53.3251 37.0127 54.4501 37.1252 55.6876C37.2377 56.8126 38.9252 56.8126 38.8127 55.6876C38.7002 54.4501 38.5877 53.2126 38.4752 51.8626C40.9502 50.9626 43.2002 49.0501 42.6377 46.2376ZM36.5627 39.4876V43.2001C36.0002 43.2001 35.5502 43.3126 35.1002 43.3126H34.5377L34.2002 39.2626C34.9877 39.2626 35.7752 39.3751 36.5627 39.4876ZM32.5127 43.0876C32.0627 42.9751 31.6127 42.6376 31.1627 42.3001C30.1502 41.2876 31.6127 40.3876 32.5127 39.9376C32.6252 41.0626 32.7377 42.0751 32.8502 43.2001C32.7377 43.2001 32.6252 43.2001 32.5127 43.0876ZM36.2252 50.2876C35.6627 50.4001 35.2127 50.2876 34.7627 50.1751C34.6502 48.4876 34.6502 46.8001 34.6502 45.0001C35.3252 45.0001 36.0002 44.8876 36.6752 44.8876C36.6752 46.6876 36.7877 48.3751 36.7877 50.1751C36.5627 50.2876 36.4502 50.2876 36.2252 50.2876ZM39.9377 49.0501C39.4877 49.3876 38.9252 49.6126 38.4752 49.8376C38.3627 48.1501 38.3627 46.5751 38.3627 44.8876H38.9252C41.0627 45.3376 41.6252 47.7001 39.9377 49.0501Z" fill="#89664C"/>
<path d="M38.2501 61.875H35.6626V66.375L46.1251 72L69.7501 64.6875V60.75L61.0876 55.6875L38.2501 61.875Z" fill="#699635"/>
<path d="M36 59.2875C36 59.2875 38.7 63.675 46.35 67.5C46.35 67.5 58.275 66.9375 69.75 59.2875C69.75 59.2875 63.1125 56.025 61.2 51.75C61.2 51.75 56.7 58.05 36 59.2875Z" fill="#83BF4F"/>
<path d="M30.9373 61.7624L33.4123 61.6499L33.7498 65.8124L23.9623 71.9999L0.449805 66.9374L0.112305 63.2249L8.0998 57.7124L30.9373 61.7624Z" fill="#699635"/>
<path d="M32.85 59.175C32.85 59.175 30.4875 63.5625 23.4 67.725C23.4 67.725 11.8125 68.0625 0 61.875C0 61.875 6.3 58.275 7.7625 54C7.7625 54 12.7125 59.625 32.85 59.175Z" fill="#83BF4F"/>
<path d="M27.2249 60.4124C27.2249 60.4124 26.8874 61.3124 28.4624 61.4249L24.2999 64.9124C24.2999 64.9124 21.8249 64.6874 21.2624 66.3749C21.2624 66.3749 11.1374 65.2499 4.6124 62.3249C4.6124 62.3249 5.9624 61.3124 4.2749 60.6374C4.2749 60.6374 6.1874 59.2874 6.6374 58.0499C6.6374 58.0499 8.4374 58.2749 8.9999 56.9249C9.2249 56.8124 15.9749 60.8624 27.2249 60.4124Z" stroke="#699635" stroke-miterlimit="10"/>
<path d="M9.9002 61.9875C11.0807 61.9875 12.0377 61.3327 12.0377 60.525C12.0377 59.7173 11.0807 59.0625 9.9002 59.0625C8.71969 59.0625 7.7627 59.7173 7.7627 60.525C7.7627 61.3327 8.71969 61.9875 9.9002 61.9875Z" fill="#699635"/>
<path d="M21.3749 58.7249C21.3749 58.7249 18.7874 62.0999 13.1624 66.7124L13.4999 69.7499L9.5624 68.8499L9.3374 65.5874C9.3374 65.5874 15.0749 60.2999 16.3124 57.7124C16.1999 57.7124 18.2249 58.3874 21.3749 58.7249ZM47.3624 57.9374C47.3624 57.9374 48.3749 60.6374 56.0249 65.5874V68.8499L60.4124 67.4999V64.1249C60.4124 64.1249 55.1249 60.4124 51.9749 56.7L47.3624 57.9374Z" fill="#F9F3D9"/>
<path d="M40.95 54.3376L38.475 54.2251L38.25 58.8376L48.2625 65.2501L71.775 58.8376L71.8875 54.7876L63.675 49.05L40.95 54.3376Z" fill="#699635"/>
<path d="M38.9248 51.525C38.9248 51.525 41.3998 56.25 48.7123 60.525C48.7123 60.525 60.4123 60.525 71.9998 53.325C71.9998 53.325 65.5873 49.6125 64.0123 45C64.0123 45 59.1748 51.3 38.9248 51.525Z" fill="#83BF4F"/>
<path d="M43.9875 52.7626C43.9875 52.7626 44.55 53.6626 42.75 54.0001L47.475 57.7125C47.475 57.7125 50.175 57.0375 51.075 58.6125C51.075 58.6125 62.325 56.5876 67.5 53.8876C67.5 53.8876 65.8125 53.1 67.5 52.0875C67.5 52.0875 65.475 50.4 64.6875 49.275C64.6875 49.275 62.775 49.8375 61.7625 48.4875C61.7625 48.6 57.7125 52.2001 43.9875 52.7626Z" stroke="#699635" stroke-miterlimit="10"/>
<path d="M52.65 55.5751C52.2 56.1376 50.7375 56.3626 49.5 56.0251C48.2625 55.6876 47.7 54.9001 48.15 54.3376C48.6 53.7751 50.0625 53.5501 51.3 53.8876C52.5375 54.2251 53.1 54.9001 52.65 55.5751Z" fill="#699635"/>
<path d="M50.3999 50.6249C50.3999 50.6249 53.0999 54.2249 58.8374 59.0624L58.7249 62.4374L62.6624 61.3124L62.7749 57.7124C62.7749 57.7124 56.9249 52.0875 55.4624 49.3875C55.5749 49.3875 53.6624 50.1749 50.3999 50.6249Z" fill="#F9F3D9"/>
<path d="M51.75 2.25C51.75 9.1125 42.8625 20.25 36 20.25C29.1375 20.25 20.25 10.2375 20.25 3.375C20.25 -3.4875 21.2625 3.375 28.125 3.375C29.1375 3.375 33.8625 0 36 0C37.4625 0 41.625 3.375 43.875 3.375C49.8375 3.375 51.75 -2.925 51.75 2.25Z" fill="#DBB471"/>
<path d="M33.9749 14.9625C33.2999 15.4125 30.0374 15.075 29.0249 15.8625C27.6749 16.875 29.5874 19.2375 28.2374 20.7C25.5374 23.4 23.3999 26.4375 24.0749 28.125C25.1999 31.05 27.3374 22.725 29.2499 25.875C31.1624 29.025 30.8249 23.7375 33.7499 26.4375C36.6749 29.1375 34.1999 21.6 37.0124 24.8625C39.8249 28.125 39.9374 31.8375 41.9624 31.8375C44.3249 31.8375 39.4874 22.95 42.6374 25.0875C45.7874 27.225 49.2749 26.4375 46.1249 23.175C45.1124 22.1625 43.7624 20.3625 42.1874 18.7875C41.6249 18.225 42.0749 15.3 41.5124 14.85C40.8374 14.2875 39.1499 16.0875 38.4749 15.75C37.1249 15.075 37.5749 16.3125 35.5499 16.65C34.1999 17.1 35.3249 14.0625 33.9749 14.9625Z" fill="#89664C"/>
<path d="M21.0377 21.6C25.4252 17.4375 33.4127 19.8 38.1377 21.825C42.7502 23.85 45.5627 17.4375 42.6377 14.175C40.9502 12.2625 38.2502 14.5125 37.2377 15.8625C36.1127 17.2125 35.2127 18.675 33.9752 20.025C32.1752 22.05 27.7877 20.3625 29.1377 17.55C30.6002 14.625 36.7877 18 38.8127 18.5625C42.7502 19.6875 46.9127 20.1375 50.8502 18.675C52.2002 18.225 51.6377 15.975 50.2877 16.5375C45.9002 18.1125 41.5127 17.1 37.3502 15.75C35.2127 15.075 31.8377 13.275 29.5877 14.2875C23.1752 17.325 29.1377 25.9875 34.5377 22.6125C35.7752 21.825 36.5627 20.5875 37.4627 19.4625C38.0252 18.7875 40.8377 14.5125 41.5127 16.65C41.8502 17.775 41.5127 19.8 40.2752 20.1375C39.4877 20.475 37.9127 19.35 37.1252 19.125C35.6627 18.5625 34.2002 18.1125 32.6252 17.775C28.4627 16.875 22.8377 17.1 19.5752 20.1375C18.4502 21.0375 20.0252 22.6125 21.0377 21.6Z" fill="#E8E8E8"/>
<path d="M50.4 0.5625C49.275 1.4625 47.25 3.375 43.875 3.375C41.625 3.375 37.4625 0 36 0C33.8625 0 29.1375 3.375 28.125 3.375C24.4125 3.375 22.3875 1.4625 21.375 0.675C21.375 0.675 22.6125 5.7375 26.4375 8.325C29.25 10.125 28.9125 7.9875 30.375 5.9625C31.8375 3.9375 32.85 2.925 35.4375 7.9875C36.7875 10.8 39.375 0.3375 41.4 3.7125C45.1125 9.9 46.4625 6.525 50.4 0.5625Z" fill="#89664C"/>
<path d="M58.9502 58.9501L58.8377 62.3251L62.7752 61.2001L62.8877 57.6001C62.8877 57.7126 60.5252 58.6126 58.9502 58.9501ZM56.0252 65.7001V68.9626L60.4127 67.6126V64.2376C60.3002 64.1251 59.1752 64.8001 56.0252 65.7001ZM13.1627 66.6001L13.5002 69.7501L9.56269 68.8501L9.33769 65.5876C9.22519 65.5876 10.8002 66.1501 13.1627 66.6001Z" fill="#DBB471"/>
</g>
<defs>
<clipPath id="clip0_962_67285">
<rect width="72" height="72" fill="white"/>
</clipPath>
</defs>
</svg>
