<svg width="72" height="72" viewBox="0 0 72 72" fill="none" xmlns="http://www.w3.org/2000/svg">
<path d="M43.5 64.5V57.6L47.4 58.35C51.75 59.25 55.8 56.1 56.1 51.75L57 42L61.35 40.2C62.85 39.6 63.45 37.8 62.55 36.3L57 27C56.1 15.6 49.65 4.5 33 4.5C15.9 4.5 7.5 17.1 7.5 30C7.5 35.55 9.45 40.35 12.45 44.4C15.15 48.15 16.5 52.65 16.5 57.15V64.35H43.5V64.5Z" fill="#FFB74D"/>
<path d="M43.5 64.5V57.6L33 55.5V64.5H43.5Z" fill="#FF9800"/>
<path d="M50.25 34.5C51.4926 34.5 52.5 33.4926 52.5 32.25C52.5 31.0074 51.4926 30 50.25 30C49.0074 30 48 31.0074 48 32.25C48 33.4926 49.0074 34.5 50.25 34.5Z" fill="#784719"/>
<path d="M32.1 4.5C18.45 4.5 7.5 15.45 7.5 29.1C7.5 45.75 16.5 46.2 16.5 57L20.4 55.65C23.55 54.6 26.25 52.2 27.45 49.05L31.65 38.85L40.5 34.5V25.5C40.5 25.5 51 19.8 51 10.05C46.5 6.3 38.55 4.5 32.1 4.5Z" fill="#FF5722"/>
<path d="M31.5 3.1499C30.6 3.1499 30 3.7499 30 4.6499V25.4999C30 26.3999 30.6 26.9999 31.5 26.9999C32.4 26.9999 33 26.3999 33 25.4999V4.6499C33 3.7499 32.4 3.1499 31.5 3.1499ZM55.35 47.8499C43.5 47.8499 39.9 40.4999 39.75 40.1999C39.45 39.4499 38.55 39.1499 37.8 39.4499C37.05 39.7499 36.75 40.6499 37.05 41.3999C37.2 41.8499 41.55 50.8499 55.35 50.8499C56.25 50.8499 56.85 50.2499 56.85 49.3499C56.85 48.4499 56.1 47.8499 55.35 47.8499Z" fill="#546E7A"/>
<path d="M55.5 52.5C57.1569 52.5 58.5 51.1569 58.5 49.5C58.5 47.8431 57.1569 46.5 55.5 46.5C53.8431 46.5 52.5 47.8431 52.5 49.5C52.5 51.1569 53.8431 52.5 55.5 52.5Z" fill="#37474F"/>
<path d="M31.5 45C37.299 45 42 40.299 42 34.5C42 28.701 37.299 24 31.5 24C25.701 24 21 28.701 21 34.5C21 40.299 25.701 45 31.5 45Z" fill="#37474F"/>
<path d="M31.5 40.5C34.8137 40.5 37.5 37.8137 37.5 34.5C37.5 31.1863 34.8137 28.5 31.5 28.5C28.1863 28.5 25.5 31.1863 25.5 34.5C25.5 37.8137 28.1863 40.5 31.5 40.5Z" fill="#546E7A"/>
</svg>
