<svg width="72" height="72" viewBox="0 0 72 72" fill="none" xmlns="http://www.w3.org/2000/svg">
<path d="M13.0218 2.95312C8.52178 2.95312 4.01615 6.32812 4.01615 13.0781L13.0218 31.0781L22.0218 13.0781C22.0218 6.32812 17.5218 2.95312 13.0218 2.95312ZM52.7202 8.4375C51.7499 8.47828 50.8077 8.6625 50.0202 8.83125L50.5546 11.3062C51.3421 11.1305 52.1577 11.0194 52.8468 10.9688L52.7202 8.4375ZM13.0218 8.57812C15.5108 8.57812 17.5218 10.5933 17.5218 13.0781C17.5218 15.5672 15.5108 17.5781 13.0218 17.5781C10.5369 17.5781 8.52178 15.5672 8.52178 13.0781C8.52178 10.5933 10.5369 8.57812 13.0218 8.57812ZM55.5186 8.60625L55.0968 11.0953C55.7858 11.2402 56.4749 11.4216 57.0796 11.7844L58.303 9.5625C57.4452 9.10547 56.4889 8.69484 55.5186 8.60625ZM47.4327 9.54844C46.5749 9.88312 45.7171 10.1827 44.9858 10.4766L45.9843 12.7969C46.7577 12.4678 47.5733 12.1809 48.2624 11.9391L47.4327 9.54844ZM60.6093 11.4328L58.6827 13.0781C59.1889 13.6575 59.5827 14.3719 59.8921 14.9484L62.1561 13.8094C61.678 12.8883 61.2561 12.1908 60.6093 11.4328ZM42.6374 11.5594C41.7796 11.9967 41.0765 12.3862 40.3171 12.7688L41.5546 14.9906C42.2858 14.5687 43.0874 14.1609 43.7343 13.8375L42.6374 11.5594ZM38.0952 14.0766C37.3499 14.5125 36.6186 14.9484 35.9015 15.4266L37.2796 17.5359C37.9686 17.0859 38.6858 16.6641 39.389 16.2422L38.0952 14.0766ZM63.028 16.5938C62.1983 16.7344 61.3546 16.8328 60.5249 16.9312C60.5811 17.6344 60.5389 18.3937 60.3983 18.9844L62.8593 19.5609C62.9999 18.5484 63.1264 17.5078 63.028 16.5938ZM33.764 16.8328C33.0608 17.3109 32.3718 17.8031 31.6686 18.2812L33.1311 20.3484C33.8061 19.8562 34.4952 19.3922 35.1843 18.9141L33.764 16.8328ZM29.6015 19.8C28.8983 20.3062 28.1671 20.8687 27.5624 21.3328L29.0952 23.3438C29.8686 22.7812 30.403 22.3594 31.1061 21.8391L29.6015 19.8ZM59.5546 20.925C59.1327 21.5719 58.6405 22.2188 58.1483 22.7109L59.9905 24.4688C60.5952 23.7516 61.2421 23.0203 61.6921 22.2891L59.5546 20.925ZM25.5515 22.9078C24.8624 23.4422 24.1733 23.9906 23.5686 24.4969L25.1718 26.4516C25.8327 25.9031 26.5077 25.3406 27.1265 24.8906L25.5515 22.9078ZM56.4046 24.3281C55.7577 24.8484 55.0827 25.3547 54.464 25.7766L55.9124 27.8578C56.6577 27.3516 57.389 26.8031 58.0218 26.2969L56.4046 24.3281ZM21.614 26.1422C20.953 26.6766 20.3202 27.2391 19.6733 27.7875L21.3186 29.7141C21.9515 29.1656 22.5843 28.6172 23.2311 28.0828L21.614 26.1422ZM52.3968 27.1266C51.6796 27.5484 50.9343 27.9844 50.2593 28.35L51.4686 30.5859C52.228 30.1219 53.0858 29.7141 53.7186 29.2922L52.3968 27.1266ZM17.7468 29.4609C17.114 30.0234 16.4952 30.5859 15.8624 31.1625L17.564 33.0469C18.1827 32.4844 18.8155 31.9219 19.4343 31.3594L17.7468 29.4609ZM48.0515 29.5172C47.3061 29.8828 46.5608 30.2625 45.8155 30.6281L46.8983 32.9062C47.7702 32.4844 48.4171 32.1328 49.2046 31.7672L48.0515 29.5172ZM43.5515 31.6828C42.778 32.0344 42.0327 32.3719 41.2452 32.6953L42.2718 35.0156C43.0452 34.6781 43.8186 34.3266 44.5921 33.975L43.5515 31.6828ZM14.0061 32.9062C13.289 33.5391 12.7897 34.0312 12.1358 34.6641L13.9218 36.4922C14.5827 35.8594 15.1171 35.3109 15.7358 34.7766L14.0061 32.9062ZM38.939 33.7219C38.1655 34.0453 37.3921 34.3828 36.6186 34.7062L37.603 37.0547C38.3905 36.7313 39.164 36.3937 39.9374 36.0562L38.939 33.7219ZM34.2843 35.6906C33.5108 36.0281 32.7374 36.3656 31.9499 36.675L32.9343 39.0234C33.7077 38.7 34.4952 38.3625 35.2686 38.0391L34.2843 35.6906ZM60.2718 36.7031C55.7718 36.7031 51.2718 40.0781 51.2718 46.8281L60.2718 64.8281L69.2718 46.8281C69.2718 40.0781 64.7718 36.7031 60.2718 36.7031ZM29.6155 37.6594C28.814 38.025 27.9702 38.3625 27.2811 38.6578L28.2796 40.9922C29.1093 40.6406 29.8968 40.3031 30.5999 39.9937L29.6155 37.6594ZM24.9468 39.6562C24.1874 40.0078 23.3015 40.4016 22.6265 40.7109L23.6671 43.0172C24.4968 42.6516 25.228 42.2859 25.9593 41.9766L24.9468 39.6562ZM20.3061 41.7656C19.5186 42.1453 18.703 42.5391 17.9999 42.8906L19.139 45.1547C19.8983 44.7609 20.6858 44.3953 21.3749 44.0578L20.3061 41.7656ZM60.2718 42.3281C62.7608 42.3281 64.7718 44.3391 64.7718 46.8281C64.7718 49.3172 62.7608 51.3281 60.2718 51.3281C57.7827 51.3281 55.7718 49.3172 55.7718 46.8281C55.7718 44.3391 57.7827 42.3281 60.2718 42.3281ZM15.7218 44.0578C14.9765 44.4656 14.2311 44.8875 13.4718 45.3234L14.7374 47.5172C15.4546 47.0953 16.1858 46.7016 16.9171 46.3078L15.7218 44.0578ZM11.264 46.6875C10.4751 47.1375 9.71287 47.7422 9.05615 48.1781L10.589 50.2031C11.2879 49.6969 12.0402 49.1766 12.6421 48.8109L11.264 46.6875ZM7.05928 49.8656C6.38428 50.4844 5.71912 51.2016 5.20303 51.8062L7.12959 53.4516C7.67099 52.7906 8.14209 52.2984 8.7749 51.7359L7.05928 49.8656ZM37.6874 50.0484L37.9124 52.5656C38.6436 52.4391 39.3749 52.5234 40.1061 52.6359L40.5421 50.1469C39.614 50.0062 38.6296 49.9078 37.6874 50.0484ZM32.4561 51.4547L33.4124 53.8031C34.1436 53.4797 34.903 53.2266 35.6765 52.9875C35.4093 52.1859 35.2124 51.3703 35.0015 50.5547C34.1155 50.8078 33.2296 51.1453 32.4561 51.4547ZM43.3546 51.3281L41.9202 53.4094C42.5108 53.8453 43.0874 54.3094 43.5515 54.8859L45.464 53.2266C44.7468 52.4953 44.1983 51.8062 43.3546 51.3281ZM30.0655 52.5938C29.2921 52.9875 28.5468 53.4375 27.8015 53.8734L29.0811 56.0531C29.8124 55.6594 30.5296 55.1953 31.2468 54.8156L30.0655 52.5938ZM3.65756 54.1406C3.23287 55.0547 2.88834 56.0391 2.72803 56.9109L5.21709 57.3469C5.36896 56.5453 5.58693 55.9688 5.90615 55.2797C5.13412 54.9422 4.39725 54.5344 3.65756 54.1406ZM25.6077 55.2375C24.8905 55.7016 24.1874 56.1656 23.4843 56.6437L24.8905 58.7531C25.5936 58.2891 26.2827 57.8109 26.9858 57.3469L25.6077 55.2375ZM47.0811 55.4062L44.9577 56.7844C45.4077 57.4594 45.8436 58.1625 46.2515 58.8797L48.4452 57.6141C47.953 56.8266 47.6015 56.1234 47.0811 55.4062ZM21.389 58.0781C20.6858 58.5422 19.9827 58.9922 19.2936 59.4844L20.6999 61.5938C21.3749 61.1016 22.0921 60.6375 22.8093 60.1594L21.389 58.0781ZM5.24521 59.4141C4.431 59.5828 3.60975 59.7234 2.79131 59.8781C2.93896 60.8625 3.33412 61.8187 3.69131 62.5781L5.97646 61.4812C5.67131 60.7781 5.38162 60.0469 5.24521 59.4141ZM49.6968 59.8078L47.503 61.0734C47.939 61.8328 48.4452 62.6484 48.853 63.2953L50.9765 61.9312C50.4983 61.1859 50.0905 60.4828 49.6968 59.8078ZM17.2124 60.8625C16.5093 61.2984 15.8202 61.7203 15.089 62.1281L16.3405 64.3359C17.0858 63.9 17.8311 63.4641 18.5483 63L17.2124 60.8625ZM7.18584 63.1547L5.45615 65.0109C6.23803 65.7562 7.20271 66.2484 8.25459 66.4734L8.81709 64.0125C8.19271 63.8859 7.60912 63.5766 7.18584 63.1547ZM12.9515 63.1969C12.2469 63.5203 11.5157 63.7734 10.7577 63.9281L11.3343 66.4031C12.2371 66.2203 13.0865 65.8828 13.9358 65.5312L12.9515 63.1969ZM52.3686 63.8719L50.414 65.4609C51.0186 66.2062 51.764 66.9234 52.4108 67.4297L53.9718 65.4328C53.353 64.9547 52.8186 64.3781 52.3686 63.8719ZM55.7577 66.3328L55.1249 68.7937C56.2358 69.0187 57.0655 69.0891 58.1061 68.9766L57.7968 66.4594C57.1077 66.5719 56.4327 66.5016 55.7577 66.3328Z" fill="url(#paint0_linear_962_67412)"/>
<defs>
<linearGradient id="paint0_linear_962_67412" x1="5.8499" y1="5.85" x2="65.6999" y2="58.5" gradientUnits="userSpaceOnUse">
<stop stop-color="#F92727"/>
<stop offset="1" stop-color="#FFD400"/>
</linearGradient>
</defs>
</svg>
