<svg width="36" height="32" viewBox="0 0 36 32" fill="none" xmlns="http://www.w3.org/2000/svg">
<path d="M27.8086 13.865C28.2891 14.7087 28.6465 15.5876 28.8809 16.5017C29.1152 17.4158 29.2383 18.3591 29.25 19.3318V21.1423L18 26.7849L6.75 21.1423C6.75 20.4392 6.75586 19.783 6.76758 19.1736C6.7793 18.5642 6.83203 17.9724 6.92578 17.3982C7.01953 16.824 7.16016 16.2498 7.34766 15.6755C7.53516 15.1013 7.81641 14.4978 8.19141 13.865L4.5 12.0193V22.3376C4.83984 22.4548 5.14453 22.6189 5.41406 22.8298C5.68359 23.0408 5.92383 23.2869 6.13477 23.5681C6.3457 23.8494 6.49805 24.1541 6.5918 24.4822C6.68555 24.8103 6.73828 25.156 6.75 25.5193V31.1443H0V25.5193C0 25.1677 0.0527344 24.8279 0.158203 24.4998C0.263672 24.1716 0.416016 23.8611 0.615234 23.5681C0.814453 23.2751 1.04883 23.0291 1.31836 22.8298C1.58789 22.6306 1.89844 22.4666 2.25 22.3376V10.8943L0 9.76929L18 0.769287L36 9.76929L27.8086 13.865ZM4.5 25.5193C4.5 25.2146 4.38867 24.9509 4.16602 24.7283C3.94336 24.5056 3.67969 24.3943 3.375 24.3943C3.07031 24.3943 2.80664 24.5056 2.58398 24.7283C2.36133 24.9509 2.25 25.2146 2.25 25.5193V28.8943H4.5V25.5193ZM5.02734 9.76929L18 16.2556L30.9727 9.76929L18 3.28296L5.02734 9.76929ZM27 19.7537C27 18.8513 26.9121 18.0134 26.7363 17.24C26.5605 16.4666 26.25 15.6755 25.8047 14.8669L18 18.7693L10.1953 14.8669C9.80859 15.5466 9.51562 16.2615 9.31641 17.0115C9.11719 17.7615 9.01172 18.5349 9 19.3318V19.7537L18 24.2537L27 19.7537Z" fill="#434343"/>
</svg>
