<svg width="187" height="186" viewBox="0 0 187 186" fill="none" xmlns="http://www.w3.org/2000/svg">
<g filter="url(#filter0_d_1068_2739)">
<g clip-path="url(#clip0_1068_2739)">
<rect x="17.7998" y="13" width="152" height="152" rx="10" fill="white"/>
<g clip-path="url(#clip1_1068_2739)">
<path d="M36.7143 100.579V96.0668C41.53 96.0668 45.2448 91.3507 43.3881 86.3601C43.0503 85.4338 42.5116 84.5925 41.8102 83.8959C41.1089 83.1993 40.2619 82.6642 39.3294 82.3286C38.247 81.9244 37.0823 81.786 35.9345 81.9251C34.7866 82.0643 33.6897 82.477 32.737 83.128C31.7843 83.779 31.0042 84.6491 30.463 85.6641C29.9218 86.6791 29.6356 87.809 29.6288 88.9576H25.0879C25.0879 81.4381 32.4497 75.4911 40.4981 77.9528C42.2277 78.4924 43.8004 79.4393 45.0822 80.7127C46.364 81.9861 47.3169 83.5484 47.8599 85.2665C50.3369 93.2648 44.351 100.579 36.7143 100.579Z" fill="#0080FF"/>
<path d="M36.7841 96.0669H32.2432V91.6238H36.7841M32.2432 99.5536H28.8034V96.0669H32.2432V99.5536ZM28.8034 96.0669H25.9175V93.1963H28.8034M66.5739 84.1043C65.267 83.2152 63.5471 82.7322 61.62 82.7322H57.4245V96.0614H61.6214C63.548 96.0614 65.1993 95.583 66.5753 94.6261C67.3268 94.0831 67.9202 93.3521 68.2952 92.5075C68.7096 91.6184 68.9141 90.5247 68.9141 89.3625C68.9141 88.2003 68.7083 87.1067 68.2952 86.2861C67.8808 85.2666 67.3309 84.5832 66.5739 84.1043ZM59.9014 84.9935H61.2083C62.6533 84.9935 63.8911 85.2679 64.854 85.8827C65.8859 86.4974 66.3736 87.6665 66.3736 89.3694C66.3736 91.0722 65.821 92.3086 64.854 92.9919C63.9602 93.5408 62.7901 93.8811 61.276 93.8811H59.9014V84.9935ZM71.8718 82.5332C71.6806 82.5281 71.4904 82.562 71.3129 82.6328C71.1354 82.7037 70.9744 82.8098 70.8398 82.9449C70.6831 83.0652 70.5575 83.221 70.4737 83.3993C70.3898 83.5776 70.35 83.7732 70.3577 83.9699C70.3577 84.3505 70.51 84.7156 70.781 84.9848C71.0519 85.2539 71.4195 85.4052 71.8027 85.4052C72.186 85.4052 72.5535 85.2539 72.8245 84.9848C73.0955 84.7156 73.2477 84.3505 73.2477 83.9699C73.2528 83.78 73.2186 83.5911 73.1473 83.4148C73.076 83.2385 72.9692 83.0786 72.8333 82.9449C72.6275 82.6704 72.2807 82.5332 71.8663 82.5332M70.623 86.6346H73.0308V95.9997H70.6326V86.6346M81.6401 87.4579C80.9494 86.8432 80.1205 86.4329 79.2322 86.4329C78.6259 86.4197 78.0237 86.5352 77.4659 86.7719C76.9082 87.0085 76.4078 87.3608 75.9982 87.8051C75.1389 88.7092 74.6699 89.9114 74.6914 91.1546C74.6914 92.454 75.1058 93.6149 75.9347 94.504C76.7636 95.3932 77.8604 95.8035 79.1687 95.8035C80.0105 95.8166 80.833 95.5521 81.5075 95.0515V95.256C81.5075 96.0079 81.3017 96.6281 80.8886 97.0398C80.4755 97.4514 79.9216 97.6545 79.1687 97.6545C78.0635 97.6545 77.3797 97.2429 76.555 96.082L74.8972 97.6545L74.9663 97.7231C75.3103 98.202 75.8601 98.6837 76.548 99.1584C77.236 99.6332 78.1298 99.8445 79.1618 99.8445C80.6068 99.8445 81.7078 99.4329 82.5325 98.5451C83.3573 97.6573 83.8394 96.5623 83.8394 95.127V86.6346H81.5033V87.4579H81.6415M81.0226 92.9946C80.6082 93.4735 80.0556 93.6807 79.3649 93.6807C78.6741 93.6807 78.1215 93.4763 77.7071 92.9946C77.2927 92.513 77.0882 91.8969 77.0882 91.1491C77.0882 90.4012 77.3079 89.7783 77.7223 89.2994C78.1367 88.8205 78.6893 88.6133 79.38 88.6133C80.0708 88.6133 80.6234 88.8178 81.0378 89.2994C81.4522 89.781 81.6567 90.3971 81.6567 91.145C81.6567 91.8928 81.4509 92.5171 81.0378 92.9905M86.0594 86.6333H88.4673V95.9983H86.0442V86.6346M87.2143 82.5332C87.0233 82.5285 86.8332 82.5624 86.6558 82.6329C86.4783 82.7033 86.3171 82.8089 86.182 82.9431C86.0469 83.0773 85.9406 83.2375 85.8696 83.4137C85.7987 83.59 85.7646 83.7787 85.7693 83.9685C85.7693 84.3492 85.9215 84.7142 86.1925 84.9834C86.4635 85.2526 86.8311 85.4038 87.2143 85.4038C87.5976 85.4038 87.9651 85.2526 88.2361 84.9834C88.5071 84.7142 88.6593 84.3492 88.6593 83.9685C88.6641 83.7786 88.6299 83.5897 88.5589 83.4134C88.4878 83.237 88.3815 83.0769 88.2462 82.9426C88.1109 82.8084 87.9495 82.7028 87.7719 82.6325C87.5943 82.5621 87.4041 82.5283 87.2129 82.5332M93.6091 84.1043H91.273V86.6346H89.8916V88.7533H91.273V92.6502C91.273 93.8852 91.5493 94.7689 92.0301 95.2477C92.5108 95.7266 93.4116 95.9997 94.5761 95.9997C94.9674 96.011 95.359 95.988 95.7462 95.9311H95.8844V93.8111L95.0555 93.8797C94.5029 93.8797 94.0885 93.8111 93.9503 93.6053C93.7445 93.4008 93.674 92.9905 93.674 92.3703V88.8219H95.8761V86.7019H93.6809L93.6091 84.1043ZM106.955 82.7322H109.363V96.0614H106.958V82.7404M133.377 92.7202C133.025 93.1244 132.633 93.4921 132.207 93.8179C131.832 94.0436 131.402 94.1619 130.964 94.1596C130.641 94.1568 130.322 94.088 130.028 93.9574C129.733 93.8269 129.469 93.6374 129.251 93.4008C128.769 92.8519 128.56 92.2386 128.56 91.418C128.56 90.5975 128.766 89.9827 129.251 89.4352C129.46 89.1867 129.724 88.9895 130.022 88.8591C130.32 88.7287 130.645 88.6685 130.971 88.6833C131.728 88.6833 132.553 89.1622 133.24 89.9827L134.822 88.4733C133.79 87.1739 132.483 86.5592 130.9 86.5592C129.593 86.5592 128.492 87.038 127.53 87.9944C126.628 88.933 126.133 90.1843 126.148 91.4811C126.148 92.8533 126.63 94.0787 127.53 94.9678C127.957 95.43 128.479 95.7968 129.06 96.0442C129.641 96.2916 130.268 96.4139 130.9 96.4031C132.62 96.4031 133.996 95.6512 134.959 94.2845L133.377 92.712M143.078 87.9958C142.716 87.5221 142.241 87.145 141.696 86.8981C141.072 86.6108 140.389 86.47 139.702 86.4864C138.395 86.4864 137.294 86.9653 136.468 87.9217C135.686 88.9159 135.273 90.1472 135.297 91.4084C135.297 92.8437 135.712 94.0059 136.604 94.8951C137.497 95.7843 138.599 96.2673 140.044 96.2673C141.626 96.2673 142.934 95.6525 143.966 94.3531L144.035 94.2845L142.453 92.7751C142.315 92.9795 142.109 93.1168 141.901 93.324C141.706 93.5283 141.471 93.6913 141.21 93.8028C140.852 93.9976 140.448 94.0924 140.04 94.0773C139.441 94.0859 138.856 93.8924 138.382 93.5284C137.968 93.1867 137.763 92.7051 137.692 92.0931H144.021V91.204C144.037 90.5978 143.943 89.9937 143.745 89.4201C143.644 88.8902 143.406 88.3954 143.054 87.9848M137.918 90.1885C138.023 89.7748 138.237 89.3961 138.537 89.0908C138.7 88.9298 138.894 88.8042 139.108 88.7217C139.322 88.6393 139.551 88.6019 139.78 88.6119C140.333 88.6119 140.812 88.7491 141.087 89.0908C141.363 89.3652 141.502 89.7769 141.569 90.1885H137.918ZM152.229 87.3852C151.538 86.7705 150.509 86.496 149.271 86.496C148.514 86.5173 147.768 86.6803 147.072 86.9763C146.453 87.318 145.828 87.7996 145.49 88.4857L147.009 89.921C147.628 88.896 148.316 88.5488 149.279 88.5488C149.729 88.537 150.17 88.6827 150.523 88.9605C150.679 89.0808 150.805 89.2366 150.889 89.4149C150.973 89.5932 151.012 89.7888 151.005 89.9855V90.4644C150.451 90.2787 149.869 90.186 149.285 90.1899C148.115 90.1899 147.152 90.4644 146.395 91.0132C145.638 91.5621 145.29 92.3854 145.29 93.3377C145.29 94.2268 145.566 94.9102 146.183 95.4563C146.801 96.0024 147.565 96.2083 148.453 96.2083C149.341 96.2083 150.173 95.8666 150.999 95.2477V95.9997H153.338V89.9841C153.338 88.8864 152.994 88.0013 152.233 87.3866M148.036 92.4444C148.312 92.2399 148.655 92.17 149.141 92.17C149.752 92.1904 150.355 92.3057 150.93 92.5116V93.4008C150.361 93.8985 149.625 94.1667 148.866 94.1527C148.452 94.1527 148.109 94.0841 147.899 93.8783C147.689 93.6725 147.555 93.4667 147.555 93.1922C147.579 93.0408 147.635 92.8959 147.718 92.7666C147.801 92.6373 147.909 92.5262 148.037 92.4403M162.479 87.5224C161.788 86.7705 160.897 86.4247 159.727 86.4247C158.764 86.4247 158.007 86.6991 157.457 87.248V86.6991H155.117V96.0642H157.525V90.8719C157.525 90.1858 157.663 89.5724 158.007 89.1635C158.176 88.9639 158.388 88.8049 158.627 88.6984C158.866 88.5919 159.127 88.5407 159.389 88.5488C159.625 88.5374 159.86 88.5811 160.076 88.6764C160.292 88.7717 160.482 88.916 160.632 89.0977C160.955 89.5346 161.125 90.065 161.114 90.6071V96.0752H163.511V90.5988C163.442 89.2998 163.098 88.2744 162.479 87.5224ZM104 87.3852C103.31 86.7705 102.281 86.496 101.043 86.496C100.285 86.5166 99.5378 86.679 98.8407 86.9749C98.2218 87.3166 97.5974 87.7982 97.2589 88.4843L98.7785 89.9196C99.3974 88.8946 100.085 88.5474 101.048 88.5474C101.498 88.5356 101.939 88.6813 102.292 88.9591C102.448 89.0794 102.574 89.2352 102.658 89.4135C102.742 89.5918 102.781 89.7874 102.774 89.9841V90.463C102.22 90.2773 101.638 90.1846 101.054 90.1885C99.8842 90.1885 98.9208 90.463 98.1638 91.0119C97.4067 91.5607 97.0586 92.384 97.0586 93.3363C97.0586 94.2255 97.3349 94.9088 97.9524 95.4549C98.5699 96.0011 99.3339 96.2069 100.222 96.2069C101.11 96.2069 101.942 95.8652 102.768 95.2464V95.9983H105.107V89.9841C105.107 88.8864 104.693 88.0013 104.002 87.3866M99.7359 92.4444C100.012 92.2399 100.355 92.17 100.841 92.17C101.452 92.1904 102.055 92.3057 102.63 92.5116V93.4008C102.061 93.8985 101.324 94.1667 100.566 94.1527C100.152 94.1527 99.8091 94.0841 99.5991 93.8783C99.3891 93.6725 99.2551 93.4667 99.2551 93.1922C99.358 92.9093 99.5226 92.6525 99.7373 92.4403M117.973 96.2686C116.611 96.2692 115.28 95.8687 114.148 95.1179C113.016 94.367 112.133 93.2996 111.612 92.0505C111.091 90.8014 110.954 89.4268 111.219 88.1005C111.485 86.7742 112.14 85.5559 113.102 84.5996C114.065 83.6432 115.291 82.9919 116.626 82.7279C117.961 82.4639 119.345 82.5991 120.603 83.1164C121.861 83.6338 122.936 84.51 123.692 85.6342C124.449 86.7585 124.852 88.0803 124.852 89.4325C124.846 91.2431 124.119 92.9777 122.83 94.2582C121.541 95.5388 119.795 96.2614 117.973 96.2686ZM117.973 84.9222C117.088 84.9208 116.222 85.1802 115.486 85.6674C114.749 86.1547 114.175 86.848 113.835 87.6596C113.496 88.4711 113.406 89.3646 113.577 90.2268C113.749 91.0891 114.174 91.8814 114.799 92.5036C115.424 93.1258 116.221 93.5498 117.089 93.7221C117.956 93.8944 118.856 93.8072 119.674 93.4716C120.492 93.1359 121.191 92.5668 121.683 91.8364C122.175 91.106 122.438 90.2469 122.439 89.368C122.44 88.7843 122.325 88.2061 122.101 87.6665C121.877 87.127 121.547 86.6367 121.132 86.2239C120.717 85.8111 120.223 85.4838 119.68 85.2609C119.137 85.038 118.555 84.9238 117.967 84.9249" fill="#0080FF"/>
</g>
</g>
</g>
<defs>
<filter id="filter0_d_1068_2739" x="0.799805" y="0" width="186" height="186" filterUnits="userSpaceOnUse" color-interpolation-filters="sRGB">
<feFlood flood-opacity="0" result="BackgroundImageFix"/>
<feColorMatrix in="SourceAlpha" type="matrix" values="0 0 0 0 0 0 0 0 0 0 0 0 0 0 0 0 0 0 127 0" result="hardAlpha"/>
<feOffset dy="4"/>
<feGaussianBlur stdDeviation="8.5"/>
<feComposite in2="hardAlpha" operator="out"/>
<feColorMatrix type="matrix" values="0 0 0 0 0.732194 0 0 0 0 0.732194 0 0 0 0 0.732194 0 0 0 0.25 0"/>
<feBlend mode="normal" in2="BackgroundImageFix" result="effect1_dropShadow_1068_2739"/>
<feBlend mode="normal" in="SourceGraphic" in2="effect1_dropShadow_1068_2739" result="shape"/>
</filter>
<clipPath id="clip0_1068_2739">
<rect x="17.7998" y="13" width="152" height="152" rx="10" fill="white"/>
</clipPath>
<clipPath id="clip1_1068_2739">
<rect width="138.422" height="23.2086" fill="white" transform="translate(25.0884 77.3799)"/>
</clipPath>
</defs>
</svg>
