<svg width="186" height="186" viewBox="0 0 186 186" fill="none" xmlns="http://www.w3.org/2000/svg">
<g filter="url(#filter0_d_1068_2698)">
<g clip-path="url(#clip0_1068_2698)">
<rect x="17" y="13" width="152" height="152" rx="10" fill="white"/>
<rect x="17" y="53" width="152" height="72.5055" rx="3.50849" fill="white"/>
<g clip-path="url(#clip1_1068_2698)">
<path d="M145.272 108.531L159.665 69.1167H40.0455L25.6646 108.531H145.272Z" fill="#2A7766"/>
<path d="M147.721 97.6542H31.1748L41.1543 70.5234H157.701L147.721 97.6542Z" fill="#FEFEFE"/>
<path d="M131.35 91.0136L129.608 87.5295L127.864 91.0136H131.35ZM92.286 82.6711L88.8009 84.4168L92.286 86.1594V82.6713V82.6711ZM60.8022 86.6026L62.5448 90.0883L64.2866 86.6026H60.8022ZM140.512 79.1811C139.93 79.1811 139.362 79.622 139.362 80.2972C139.362 81.0198 139.946 81.4277 140.512 81.4277C141.144 81.4277 141.686 81.0029 141.686 80.3198C141.686 79.6222 141.12 79.1813 140.52 79.1813H140.512V79.1811ZM135.71 82.7422V81.3799H138.262H138.608C138.09 80.8962 138.09 80.2478 138.09 80.0588C138.09 79.106 138.772 77.8165 140.495 77.8174C142.14 77.8174 142.96 78.9584 142.96 80.1162C142.96 80.7557 142.646 81.2481 142.318 81.4363L142.804 81.4387V82.7435L135.711 82.7418L135.71 82.7422ZM140.545 87.3132C140.963 87.3132 141.686 87.0009 141.686 86.1804C141.686 85.6959 141.456 85.4004 141.176 85.2259C140.995 85.1121 140.801 85.054 140.594 85.0403C140.387 85.0225 140.183 85.0636 139.996 85.1541C139.684 85.301 139.362 85.6136 139.362 86.1885C139.362 86.9685 140.021 87.3132 140.536 87.3132H140.545ZM142.804 83.6772V85.0403H142.309C142.753 85.284 142.96 85.8525 142.96 86.3863C142.96 87.8324 141.826 88.677 140.52 88.677C139.027 88.677 138.09 87.5999 138.09 86.3863C138.09 85.6395 138.452 85.2196 138.73 85.0403H138.247V83.6772H142.804H142.804ZM135.71 91.0131V89.6509H142.804V91.0138L135.71 91.0131Z" fill="#E23B3B"/>
<path d="M106.236 92.8553L107.254 95.0653C112.081 91.3727 112.97 87.2483 109.827 82.8291C107.34 79.3263 110.078 76.2119 110.903 75.4037L109.056 73.9243C107.847 75.2501 104.68 79.3924 107.45 83.5589C110.134 87.593 109.854 89.7789 106.236 92.8552L106.236 92.8553ZM68.7316 92.8553L69.749 95.0653C74.5744 91.3727 75.465 87.2483 72.3216 82.8291C69.8315 79.3263 72.572 76.2119 73.3956 75.4037L71.5507 73.9243C70.3411 75.2501 67.1718 79.3924 69.9446 83.5589C72.6287 87.593 72.3507 89.7789 68.7318 92.8552L68.7316 92.8553ZM132.664 77.8173L129.608 83.1118L126.55 77.8173H124.06L129.608 87.4253L135.155 77.8173H132.664ZM82.8064 78.565C81.9367 78.0547 80.8691 77.8173 79.4466 77.8173H76.3314V91.0135L78.8215 91.0127V84.4149V80.3075L79.4464 80.3059C81.1712 80.3059 82.3532 80.733 82.3532 82.2817C82.3532 83.7287 80.9298 84.3626 79.2801 84.4118C79.2276 84.4135 79.0443 84.4135 78.9207 84.4135V84.4151L80.5751 86.7778C81.3923 86.6323 82.1279 86.3675 82.7407 85.992C82.7859 85.9622 82.8312 85.9332 82.8755 85.9015C84.1254 85.0738 84.8424 83.7634 84.8432 82.2817C84.8432 80.6562 84.1197 79.3361 82.806 78.565H82.8064ZM102.517 85.9015C103.769 85.0738 104.486 83.7634 104.486 82.2817C104.486 80.6562 103.762 79.3361 102.449 78.565C101.581 78.0547 100.512 77.8173 99.0895 77.8173H95.9751V91.0135L98.4652 91.0127V84.4149V80.3075H99.0893C100.813 80.3059 101.997 80.733 101.997 82.2817C101.997 83.7287 100.573 84.3626 98.9237 84.4118C98.8704 84.4135 98.6879 84.4135 98.5653 84.4135V84.4151L103.184 91.0129L106.098 91.0137L102.517 85.9015ZM119.341 84.4149L123.959 77.8173H121.047L116.428 84.4149L121.047 91.0127H123.959L119.341 84.4149ZM116.329 77.8173H113.839V91.0135L116.329 91.0127V77.8173ZM51.3442 84.4149L55.9653 77.8173H53.052L48.4308 84.4149L53.052 91.0135H55.9653L51.3442 84.4149ZM48.33 77.8173H45.8423V91.0135H48.3317L48.33 77.8173ZM94.0549 80.3075V77.8173H88.703H87.4579H86.212L86.2136 91.0127L87.4579 91.0135L88.703 91.0127H94.0549V88.5259H88.703V80.3075H94.0549ZM68.9323 91.0135L66.4438 91.0127L62.5445 82.6516L58.6445 91.0127H56.1559L62.5445 77.3125L68.9323 91.0135Z" fill="#2A7766"/>
<path d="M46.9381 102.791H48.1896C48.553 102.791 48.8235 102.714 49.0004 102.562C49.1781 102.409 49.2669 102.199 49.2669 101.931C49.2669 101.687 49.1797 101.486 49.0045 101.336C48.8293 101.184 48.5863 101.109 48.273 101.109H46.9382V102.791H46.9381ZM50.285 105.89H49.2215L48.3543 103.596H46.9379V105.89H45.9326V100.308H48.3543C49.0277 100.308 49.5219 100.459 49.8391 100.763C50.1549 101.067 50.3131 101.461 50.3131 101.944C50.3131 102.661 49.9779 103.155 49.3069 103.424L50.2848 105.89H50.285Z" fill="#FEFEFE"/>
<path d="M55.1125 105.89H51.4829V100.307H55.0762V101.138H52.4898V102.652H54.5684V103.461H52.4898V105.024H55.1125V105.89Z" fill="#FEFEFE"/>
<path d="M60.3853 103.037V105.89H59.9398L59.6328 105.138C59.3066 105.698 58.8051 105.977 58.1238 105.977C57.3624 105.977 56.7938 105.688 56.4192 105.109C56.0446 104.531 55.8564 103.862 55.8564 103.101C55.8564 102.295 56.0664 101.615 56.4846 101.058C56.9037 100.501 57.4884 100.222 58.2425 100.222C58.8037 100.222 59.2655 100.384 59.6281 100.71C59.9915 101.036 60.2208 101.441 60.316 101.927L59.4408 102.082C59.2769 101.4 58.8845 101.059 58.266 101.059C57.8711 101.059 57.5481 101.22 57.2995 101.543C57.0483 101.865 56.924 102.359 56.924 103.026C56.924 104.438 57.3657 105.141 58.249 105.141C58.5945 105.141 58.8771 105.024 59.1032 104.787C59.3276 104.549 59.4407 104.235 59.4407 103.845H58.2875V103.036H60.3853V103.037Z" fill="#FEFEFE"/>
<path d="M61.6943 105.892H62.7012V100.307H61.6943V105.892Z" fill="#FEFEFE"/>
<path d="M63.5112 104.545L64.4892 104.336C64.6063 104.891 65.056 105.166 65.8394 105.166C66.1962 105.166 66.4716 105.096 66.662 104.955C66.8549 104.812 66.9519 104.635 66.9519 104.427C66.9519 104.273 66.9083 104.133 66.8195 104.002C66.7339 103.874 66.5466 103.772 66.2599 103.699L65.1917 103.421C64.8259 103.326 64.557 103.217 64.3828 103.095C64.2083 102.973 64.0677 102.803 63.9629 102.581C63.858 102.361 63.8062 102.125 63.8062 101.875C63.8062 101.375 63.9921 100.974 64.3618 100.674C64.7324 100.373 65.2072 100.222 65.7854 100.222C66.2659 100.222 66.6939 100.326 67.0725 100.535C67.4496 100.746 67.6894 101.044 67.7943 101.428L66.8374 101.666C66.6897 101.242 66.3457 101.031 65.8062 101.031C65.4914 101.031 65.2532 101.097 65.0883 101.228C64.9228 101.359 64.8404 101.526 64.8404 101.726C64.8404 102.046 65.0996 102.269 65.618 102.397L66.5668 102.635C67.1425 102.781 67.5278 102.992 67.7239 103.275C67.921 103.557 68.0195 103.87 68.0195 104.209C68.0195 104.758 67.8128 105.19 67.3993 105.505C66.9867 105.82 66.4514 105.978 65.7941 105.978C65.2402 105.978 64.7557 105.861 64.3382 105.629C63.9231 105.398 63.6471 105.036 63.5114 104.545L63.5112 104.545Z" fill="#FEFEFE"/>
<path d="M71.0013 105.89H69.9217V101.17H68.4351V100.307H72.4862V101.17H71.0013V105.89Z" fill="#FEFEFE"/>
<path d="M76.8967 105.89H73.2671V100.307H76.8603V101.138H74.274V102.652H76.3524V103.461H74.274V105.024H76.8967V105.89Z" fill="#FEFEFE"/>
<path d="M78.9371 102.79H80.1887C80.5521 102.79 80.8226 102.713 80.9994 102.562C81.177 102.408 81.2651 102.198 81.2651 101.931C81.2651 101.686 81.1788 101.486 81.0036 101.336C80.8284 101.183 80.5854 101.108 80.2712 101.108H78.9373V102.79H78.9371ZM82.2841 105.89H81.2208L80.3543 103.595H78.9373V105.89H77.9312V100.307H80.3545C81.0271 100.307 81.5213 100.459 81.8386 100.763C82.1535 101.066 82.3134 101.46 82.3134 101.944C82.3134 102.66 81.9775 103.154 81.3056 103.423L82.2843 105.89H82.2841Z" fill="#FEFEFE"/>
<path d="M87.1107 105.89H83.4819V100.307H87.0752V101.138H84.4888V102.652H86.5665V103.461H84.4888V105.024H87.1107V105.89Z" fill="#FEFEFE"/>
<path d="M89.1511 105.07H89.991C90.4407 105.07 90.8234 104.9 91.1368 104.561C91.4501 104.224 91.6075 103.72 91.6075 103.052C91.6075 102.506 91.4695 102.046 91.1964 101.667C90.9211 101.289 90.5594 101.1 90.1095 101.1H89.1511V105.07V105.07ZM88.1167 105.89V100.307H90.1741C90.9363 100.307 91.5469 100.576 92.0071 101.115C92.4673 101.652 92.6998 102.318 92.6998 103.108C92.6998 103.9 92.4624 104.561 91.9877 105.094C91.5129 105.625 90.8332 105.89 89.9504 105.89H88.1167Z" fill="#FEFEFE"/>
<path d="M97.0686 102.814H98.2588C98.5697 102.814 98.8055 102.738 98.9709 102.586C99.1349 102.432 99.2156 102.23 99.2156 101.974C99.2156 101.747 99.1405 101.549 98.9879 101.387C98.8386 101.223 98.5639 101.141 98.1683 101.141H97.0686V102.814ZM97.0686 105.89H96.0601V100.307H98.3493C98.9993 100.307 99.4854 100.47 99.7995 100.799C100.114 101.128 100.271 101.517 100.271 101.963C100.271 102.473 100.102 102.888 99.7592 103.203C99.4201 103.519 98.9865 103.677 98.4624 103.677H97.0688V105.89H97.0686Z" fill="#FEFEFE"/>
<path d="M103.586 103.755L102.773 101.264L101.959 103.755H103.586ZM105.381 105.89H104.303L103.858 104.561H101.71L101.271 105.89H100.412L102.266 100.308H103.507L105.381 105.89Z" fill="#FEFEFE"/>
<path d="M107.223 102.79H108.475C108.838 102.79 109.108 102.713 109.286 102.562C109.465 102.408 109.552 102.198 109.552 101.931C109.552 101.686 109.465 101.486 109.289 101.336C109.115 101.183 108.872 101.108 108.557 101.108H107.223V102.79ZM110.571 105.89H109.507L108.64 103.595H107.223V105.89H106.219V100.307H108.64C109.313 100.307 109.809 100.459 110.125 100.763C110.441 101.066 110.6 101.46 110.6 101.944C110.6 102.66 110.264 103.154 109.592 103.423L110.571 105.89H110.571Z" fill="#FEFEFE"/>
<path d="M113.72 105.89H112.641V101.17H111.154V100.307H115.204V101.17H113.72V105.89Z" fill="#FEFEFE"/>
<path d="M120.205 105.89H119.225L117.109 102.324C117.075 102.269 117.021 102.181 116.948 102.058C116.917 102.003 116.866 101.917 116.798 101.801V105.89H115.987V100.307H117.1L119.055 103.595C119.072 103.624 119.191 103.823 119.409 104.196V100.307H120.205V105.89V105.89Z" fill="#FEFEFE"/>
<path d="M125.228 105.89H121.599V100.307H125.191V101.138H122.605V102.652H124.684V103.461H122.605V105.024H125.228V105.89Z" fill="#FEFEFE"/>
<path d="M127.269 102.79H128.521C128.884 102.79 129.154 102.713 129.331 102.562C129.508 102.408 129.598 102.198 129.598 101.931C129.598 101.686 129.51 101.486 129.335 101.336C129.16 101.183 128.917 101.108 128.603 101.108H127.27V102.79H127.269ZM130.615 105.89H129.553L128.685 103.595H127.269V105.89H126.263V100.307H128.685C129.357 100.307 129.853 100.459 130.17 100.763C130.485 101.066 130.645 101.46 130.645 101.944C130.645 102.66 130.31 103.154 129.637 103.423L130.615 105.89Z" fill="#FEFEFE"/>
</g>
</g>
</g>
<defs>
<filter id="filter0_d_1068_2698" x="0" y="0" width="186" height="186" filterUnits="userSpaceOnUse" color-interpolation-filters="sRGB">
<feFlood flood-opacity="0" result="BackgroundImageFix"/>
<feColorMatrix in="SourceAlpha" type="matrix" values="0 0 0 0 0 0 0 0 0 0 0 0 0 0 0 0 0 0 127 0" result="hardAlpha"/>
<feOffset dy="4"/>
<feGaussianBlur stdDeviation="8.5"/>
<feComposite in2="hardAlpha" operator="out"/>
<feColorMatrix type="matrix" values="0 0 0 0 0.732194 0 0 0 0 0.732194 0 0 0 0 0.732194 0 0 0 0.25 0"/>
<feBlend mode="normal" in2="BackgroundImageFix" result="effect1_dropShadow_1068_2698"/>
<feBlend mode="normal" in="SourceGraphic" in2="effect1_dropShadow_1068_2698" result="shape"/>
</filter>
<clipPath id="clip0_1068_2698">
<rect x="17" y="13" width="152" height="152" rx="10" fill="white"/>
</clipPath>
<clipPath id="clip1_1068_2698">
<rect width="134" height="39.4146" fill="white" transform="translate(25.6646 69.1167)"/>
</clipPath>
</defs>
</svg>
