<svg width="187" height="186" viewBox="0 0 187 186" fill="none" xmlns="http://www.w3.org/2000/svg">
<g filter="url(#filter0_d_1068_2730)">
<rect x="17.6001" y="13" width="152" height="152" rx="10" fill="white"/>
<rect x="34.5991" y="43" width="119" height="92.4756" fill="#008273"/>
<rect x="34.6001" y="112.094" width="119" height="23.3846" fill="white"/>
<path d="M63.1134 82.1723L67.8916 84.923L58.1446 91.8305V61.9352L51.2251 58.9448V96.7355L58.1494 101.462L75.459 89.2084V79.5824L60.1002 72.9614L63.1134 82.1723ZM136.975 74.8702V91.4212C136.975 98.1153 134.365 101.462 129.141 101.462C127.304 101.462 125.79 101.062 124.415 100.205L125.039 97.7002C125.039 97.7002 126.652 99.0156 129.112 99.0156C132.769 99.0156 134.596 96.6712 134.596 91.9006V89.9275H134.538C133.407 92.2543 131.813 93.3885 129.539 93.3885C127.69 93.3885 126.204 92.7045 125.077 91.0851C123.951 89.4656 123.386 87.2908 123.386 84.5605C123.386 81.462 123.994 79.0007 125.206 77.1737C126.418 75.3467 128.081 74.4318 130.189 74.4318C132.19 74.4318 133.567 75.4169 134.534 77.3871H134.591V74.8702H136.975ZM110.497 77.8343C111.619 75.5309 113.218 74.4376 115.283 74.4376C116.907 74.4376 118.151 75.0807 119.01 76.3698C119.87 77.656 120.302 79.5181 120.302 81.9502V92.9617H117.922V82.6985C117.922 78.8311 116.86 76.896 114.559 76.896C113.37 76.896 112.386 77.4456 111.607 78.5417C110.829 79.6409 110.44 81.0264 110.44 82.6985V92.9617H108.061V74.8702H110.44V77.8343H110.497ZM91.7658 67.4337C93.5642 67.4337 94.991 67.9745 96.0462 69.0531C97.1014 70.1347 97.6278 71.5408 97.6278 73.2713C97.6278 74.7182 97.3086 75.9781 96.6702 77.0451C96.0319 78.112 95.1529 78.8721 94.0287 79.3252V79.3953C95.4316 79.597 96.5535 80.246 97.3943 81.3451C98.2352 82.4413 98.6568 83.8707 98.6568 85.6246C98.6568 87.8082 98.0184 89.5767 96.7417 90.9301C95.465 92.2836 93.8548 92.9588 91.9111 92.9588H85.8467V67.4308H91.7658V67.4337ZM104.138 74.8702V92.9617H101.758V74.8702H104.138ZM134.596 84.7184V82.1752C134.596 80.7283 134.198 79.4859 133.4 78.4541C132.602 77.4222 131.678 76.9048 130.487 76.9048C129.017 76.9048 127.867 77.5596 127.035 78.8721C126.204 80.1846 125.787 82.0203 125.787 84.3822C125.787 86.4109 126.185 87.89 126.983 89.1061C127.781 90.3221 128.838 90.9301 130.153 90.9301C131.487 90.9301 132.504 90.3484 133.34 89.185C134.176 88.0245 134.596 86.5337 134.596 84.7184ZM91.5919 90.2549C93.0235 90.2549 94.1335 89.8398 94.9219 89.0096C95.7103 88.1794 96.1033 87.0394 96.1033 85.5924C96.1033 82.5786 94.4288 81.0703 91.0846 81.0703H88.2858V90.2578H91.5919V90.2549ZM90.7797 78.381C92.1136 78.381 93.164 77.9863 93.9286 77.1971C94.6932 76.4078 95.0743 75.2941 95.0743 73.8588C95.0743 71.38 93.7452 70.1376 91.0846 70.1376H88.2858V78.381H90.7797ZM102.978 66.8871C102.551 66.8871 102.189 67.0683 101.889 67.4308C101.589 67.7933 101.439 68.2463 101.439 68.793C101.439 69.3396 101.589 69.7898 101.889 70.1464C102.189 70.503 102.551 70.6813 102.978 70.6813C103.414 70.6813 103.783 70.4972 104.088 70.1289C104.392 69.7605 104.545 69.3162 104.545 68.793C104.545 68.2463 104.392 67.7933 104.088 67.4308C103.783 67.0654 103.414 66.8871 102.978 66.8871Z" fill="white"/>
<path d="M76.6001 128.81V119.533H79.0648C79.6067 119.533 80.0591 119.66 80.422 119.914C80.7874 120.164 81.0621 120.506 81.2461 120.937C81.4325 121.369 81.5257 121.855 81.5257 122.396C81.5257 122.936 81.4337 123.424 81.2498 123.859C81.0658 124.291 80.7924 124.633 80.4295 124.887C80.0665 125.138 79.6154 125.263 79.076 125.263H77.137V124.502H79.0573C79.4575 124.502 79.7894 124.412 80.0529 124.23C80.3164 124.046 80.5127 123.796 80.642 123.478C80.7738 123.161 80.8396 122.801 80.8396 122.396C80.8396 121.991 80.7738 121.63 80.642 121.313C80.5127 120.996 80.3151 120.747 80.0491 120.566C79.7856 120.385 79.4513 120.294 79.0461 120.294H77.2974V128.81H76.6001Z" fill="#008273"/>
<path d="M84.6243 128.968C84.2787 128.968 83.963 128.887 83.6772 128.724C83.3913 128.558 83.1638 128.319 82.9948 128.008C82.8258 127.694 82.7413 127.313 82.7413 126.867C82.7413 126.522 82.7947 126.232 82.9016 125.997C83.0085 125.761 83.1601 125.568 83.3565 125.417C83.5529 125.266 83.7853 125.147 84.0538 125.059C84.3222 124.972 84.618 124.904 84.9412 124.855C85.2619 124.807 85.5328 124.765 85.754 124.729C85.9778 124.692 86.148 124.635 86.2649 124.556C86.3817 124.478 86.4401 124.351 86.4401 124.176V124.013C86.4401 123.539 86.3233 123.166 86.0896 122.894C85.8584 122.619 85.5254 122.482 85.0903 122.482C84.6777 122.482 84.3409 122.592 84.0799 122.813C83.8213 123.033 83.6399 123.293 83.5355 123.592L82.9053 123.315C83.0346 122.935 83.2136 122.631 83.4423 122.405C83.6709 122.175 83.927 122.011 84.2104 121.911C84.4937 121.809 84.7809 121.757 85.0717 121.757C85.2904 121.757 85.5179 121.792 85.754 121.861C85.9927 121.931 86.2139 122.052 86.4178 122.224C86.6216 122.393 86.7869 122.63 86.9137 122.935C87.0404 123.237 87.1038 123.62 87.1038 124.085V128.81H86.4401V127.709H86.3991C86.3196 127.914 86.2015 128.114 86.0449 128.307C85.8883 128.5 85.6919 128.659 85.4557 128.783C85.2196 128.906 84.9424 128.968 84.6243 128.968ZM84.7137 128.23C85.0667 128.23 85.3725 128.135 85.631 127.945C85.8895 127.754 86.0884 127.502 86.2276 127.188C86.3693 126.871 86.4401 126.522 86.4401 126.142V125.136C86.3904 125.194 86.3071 125.245 86.1903 125.29C86.076 125.336 85.943 125.376 85.7913 125.413C85.6422 125.446 85.493 125.474 85.3439 125.499C85.1947 125.523 85.0605 125.544 84.9412 125.562C84.618 125.61 84.3421 125.686 84.1134 125.789C83.8847 125.891 83.7095 126.033 83.5877 126.214C83.4659 126.392 83.405 126.622 83.405 126.903C83.405 127.326 83.5293 127.653 83.7778 127.886C84.0264 128.115 84.3384 128.23 84.7137 128.23Z" fill="#008273"/>
<path d="M88.8694 128.81V121.852H89.5144V122.921H89.5629C89.6773 122.571 89.8761 122.289 90.1595 122.074C90.4454 121.857 90.7685 121.748 91.129 121.748C91.1836 121.748 91.2445 121.75 91.3117 121.753C91.3788 121.756 91.4347 121.759 91.4795 121.762V122.582C91.4496 122.576 91.3974 122.567 91.3229 122.554C91.2483 122.542 91.1675 122.536 91.0805 122.536C90.7822 122.536 90.5162 122.613 90.2825 122.767C90.0514 122.918 89.8687 123.128 89.7344 123.397C89.6002 123.666 89.5331 123.972 89.5331 124.316V128.81H88.8694Z" fill="#008273"/>
<path d="M95.2268 121.852V122.554H92.4937V121.852H95.2268ZM93.3475 120.185H94.015V126.993C94.015 127.283 94.056 127.511 94.138 127.677C94.22 127.84 94.3269 127.957 94.4587 128.026C94.5904 128.093 94.7309 128.126 94.88 128.126C94.967 128.126 95.0416 128.12 95.1037 128.108C95.1659 128.093 95.2206 128.077 95.2678 128.062L95.4095 128.792C95.3449 128.822 95.2653 128.849 95.1709 128.873C95.0764 128.9 94.9596 128.914 94.8204 128.914C94.5768 128.914 94.3419 128.849 94.1156 128.719C93.8919 128.589 93.708 128.396 93.5638 128.139C93.4196 127.883 93.3475 127.564 93.3475 127.184V120.185Z" fill="#008273"/>
<path d="M97.3978 124.461V128.81H96.7341V121.852H97.3792V122.944H97.4388C97.5731 122.588 97.7819 122.302 98.0653 122.088C98.3511 121.87 98.7041 121.762 99.1242 121.762C99.5095 121.762 99.8476 121.86 100.138 122.056C100.432 122.249 100.659 122.535 100.821 122.912C100.985 123.29 101.067 123.753 101.067 124.303V128.81H100.403V124.353C100.403 123.782 100.271 123.33 100.008 122.998C99.7469 122.666 99.3964 122.5 98.9564 122.5C98.6556 122.5 98.3884 122.579 98.1548 122.736C97.9211 122.893 97.7359 123.119 97.5992 123.415C97.4649 123.708 97.3978 124.057 97.3978 124.461Z" fill="#008273"/>
<path d="M105.13 128.955C104.596 128.955 104.133 128.804 103.743 128.502C103.353 128.197 103.051 127.775 102.837 127.238C102.626 126.697 102.52 126.075 102.52 125.372C102.52 124.671 102.626 124.049 102.837 123.506C103.051 122.959 103.345 122.532 103.721 122.224C104.099 121.913 104.535 121.757 105.03 121.757C105.34 121.757 105.64 121.827 105.928 121.966C106.217 122.101 106.475 122.311 106.704 122.595C106.935 122.876 107.118 123.231 107.252 123.66C107.386 124.085 107.453 124.59 107.453 125.173V125.571H102.979V124.86H106.775C106.775 124.413 106.7 124.011 106.551 123.655C106.404 123.296 106.199 123.012 105.936 122.804C105.675 122.595 105.373 122.491 105.03 122.491C104.667 122.491 104.347 122.609 104.071 122.844C103.795 123.08 103.579 123.391 103.422 123.777C103.268 124.164 103.19 124.587 103.188 125.046V125.471C103.188 126.024 103.266 126.507 103.422 126.921C103.582 127.332 103.807 127.65 104.097 127.877C104.388 128.103 104.732 128.216 105.13 128.216C105.401 128.216 105.639 128.165 105.842 128.062C106.049 127.96 106.221 127.822 106.361 127.65C106.502 127.475 106.609 127.283 106.681 127.075L107.311 127.324C107.224 127.617 107.082 127.887 106.883 128.135C106.686 128.382 106.44 128.582 106.144 128.733C105.851 128.881 105.513 128.955 105.13 128.955Z" fill="#008273"/>
<path d="M108.916 128.81V121.852H109.561V122.921H109.609C109.724 122.571 109.923 122.289 110.206 122.074C110.492 121.857 110.815 121.748 111.175 121.748C111.23 121.748 111.291 121.75 111.358 121.753C111.425 121.756 111.481 121.759 111.526 121.762V122.582C111.496 122.576 111.444 122.567 111.369 122.554C111.295 122.542 111.214 122.536 111.127 122.536C110.829 122.536 110.563 122.613 110.329 122.767C110.098 122.918 109.915 123.128 109.781 123.397C109.647 123.666 109.579 123.972 109.579 124.316V128.81H108.916Z" fill="#008273"/>
</g>
<defs>
<filter id="filter0_d_1068_2730" x="0.600098" y="0" width="186" height="186" filterUnits="userSpaceOnUse" color-interpolation-filters="sRGB">
<feFlood flood-opacity="0" result="BackgroundImageFix"/>
<feColorMatrix in="SourceAlpha" type="matrix" values="0 0 0 0 0 0 0 0 0 0 0 0 0 0 0 0 0 0 127 0" result="hardAlpha"/>
<feOffset dy="4"/>
<feGaussianBlur stdDeviation="8.5"/>
<feComposite in2="hardAlpha" operator="out"/>
<feColorMatrix type="matrix" values="0 0 0 0 0.732194 0 0 0 0 0.732194 0 0 0 0 0.732194 0 0 0 0.25 0"/>
<feBlend mode="normal" in2="BackgroundImageFix" result="effect1_dropShadow_1068_2730"/>
<feBlend mode="normal" in="SourceGraphic" in2="effect1_dropShadow_1068_2730" result="shape"/>
</filter>
</defs>
</svg>
