<svg width="187" height="186" viewBox="0 0 187 186" fill="none" xmlns="http://www.w3.org/2000/svg">
<g filter="url(#filter0_d_1068_2654)">
<rect x="17.7998" y="13" width="152" height="152" rx="10" fill="white"/>
<path d="M159.308 112.643C159.308 114.078 158.137 115.249 156.702 115.249H29.3986C27.963 115.249 26.7925 114.078 26.7925 112.643V63.3913C26.7925 61.9557 27.963 60.7852 29.3986 60.7852H156.702C158.137 60.7852 159.308 61.9557 159.308 63.3913V112.643Z" fill="#3B5998"/>
<path d="M86.4689 73.6836H87.9708V85.4333H86.5793V76.4222L83.9953 82.3413H82.6039L80.0198 76.4222V85.4333H78.6284V73.6836H80.1082L83.2885 80.9057L86.4689 73.6836Z" fill="white"/>
<path d="M96.871 85.4331H95.6121L95.5237 84.7042C95.0378 85.1018 93.8231 85.6098 92.7409 85.6098C90.8636 85.6098 90.1348 84.5055 90.1348 82.8711C90.1348 81.1484 90.9961 80.2429 92.8513 80.2429C93.9556 80.2429 94.9274 80.53 95.3912 80.7288V79.3815C95.3912 78.2551 95.0378 77.7693 93.7348 77.7693C92.9618 77.7693 92.1888 77.8797 91.3937 78.1005L91.1728 76.8858C91.9237 76.6429 92.9838 76.4883 93.8894 76.4883C95.9213 76.4883 96.871 77.3717 96.871 79.2932V85.4331ZM95.3912 81.7447C94.9053 81.5901 93.9335 81.3693 93.0501 81.3693C91.8575 81.3693 91.5703 81.9435 91.5703 82.9153C91.5703 83.9975 91.9237 84.5055 92.9397 84.5055C93.9998 84.5055 94.8832 84.1079 95.3691 83.7545V81.7447H95.3912Z" fill="white"/>
<path d="M103.563 77.924C102.569 78.1228 101.575 78.4541 100.824 78.8516V85.4553H99.3447V76.6872H100.559L100.714 77.7032C101.244 77.1731 102.216 76.6651 103.364 76.5547L103.563 77.924Z" fill="white"/>
<path d="M105.109 85.433V72.9766H106.589V80.7287L109.637 76.687H111.382L108.025 81.0158L111.514 85.433H109.769L106.589 81.2809V85.433H105.109Z" fill="white"/>
<path d="M113.877 81.723C113.966 83.5782 114.429 84.4617 116.218 84.4617C117.146 84.4617 118.118 84.2408 118.802 83.9758L119.023 85.1022C118.294 85.4114 117.146 85.6322 116.196 85.6322C113.038 85.6322 112.397 83.4678 112.397 81.0163C112.397 78.4985 113.237 76.5107 115.909 76.5107C118.294 76.5107 119.288 78.1893 119.288 80.2874V81.723H113.877ZM113.877 80.5525H117.853V80.2433C117.853 78.6089 117.345 77.6371 115.887 77.6371C114.253 77.615 113.899 78.8077 113.877 80.5525Z" fill="white"/>
<path d="M125.892 85.3451C125.516 85.4776 124.655 85.6101 124.081 85.6101C122.579 85.6101 121.938 84.7708 121.938 83.4236V77.88H120.415V76.6874H121.938V74.5451L123.418 74.3242V76.6653H125.914L125.781 77.858H123.418V83.3353C123.418 84.1524 123.617 84.3954 124.434 84.3954C124.788 84.3954 125.296 84.3291 125.759 84.2187L125.892 85.3451Z" fill="white"/>
<path d="M128.432 73.1313C129.006 73.1313 129.426 73.551 129.426 74.1252C129.426 74.6994 129.028 75.1191 128.432 75.1191C127.858 75.1191 127.438 74.6994 127.438 74.1252C127.46 73.551 127.858 73.1313 128.432 73.1313ZM127.703 76.6872H129.183V85.4553H127.703V76.6872Z" fill="white"/>
<path d="M137.001 85.4331V79.0502C137.001 78.2551 136.67 77.8576 135.808 77.8576C134.881 77.8576 133.975 78.1668 133.335 78.4318V85.4331H131.855V76.665H133.048L133.18 77.438C133.887 76.9521 134.991 76.4883 136.184 76.4883C137.686 76.4883 138.503 77.3275 138.503 78.8956V85.4331H137.001Z" fill="white"/>
<path d="M145.085 76.6874H147.868V77.7034L146.697 77.9242C146.918 78.3218 147.028 78.8518 147.028 79.404C147.028 81.215 145.769 82.2972 143.76 82.2972C143.428 82.2972 143.097 82.2752 142.832 82.2089C142.633 82.3856 142.435 82.6285 142.435 83.0261C142.435 83.4457 142.655 83.6445 143.23 83.6445H145.217C146.763 83.6445 147.713 84.6163 147.713 85.9856C147.713 87.8629 146.057 88.7905 143.693 88.7905C141.396 88.7905 140.16 88.0838 140.16 86.4273C140.16 85.3672 140.866 84.8813 141.551 84.55C141.176 84.285 140.977 83.8874 140.977 83.3795C140.977 82.5844 141.529 82.1868 141.993 81.9218C141.043 81.458 140.491 80.5745 140.491 79.404C140.491 77.5267 141.573 76.5107 143.738 76.5107C144.246 76.5107 144.687 76.577 145.085 76.6874ZM142.302 84.8592C141.904 85.1905 141.551 85.6101 141.551 86.3169C141.551 87.3328 142.412 87.7083 143.738 87.7083C145.284 87.7083 146.233 87.3107 146.233 86.1402C146.233 85.4776 145.858 84.9255 144.908 84.9255H143.009C142.744 84.9255 142.412 84.9034 142.302 84.8592ZM143.76 77.5709C142.501 77.5709 141.904 78.0788 141.904 79.404C141.904 80.7291 142.589 81.2371 143.76 81.2371C144.93 81.2371 145.637 80.6629 145.637 79.404C145.637 78.123 144.974 77.5709 143.76 77.5709Z" fill="white"/>
<path d="M80.1523 98.7289V103.102H78.6284V91.3301H82.1401C84.8566 91.3301 85.8505 92.8761 85.8505 95.0184C85.8505 97.1608 84.8566 98.7068 82.1401 98.7068H80.1523V98.7289ZM80.1523 97.492H82.0959C83.8628 97.492 84.3487 96.4761 84.3487 95.0405C84.3487 93.5828 83.8628 92.589 82.0959 92.589H80.1523V97.492Z" fill="white"/>
<path d="M93.3373 103.102H92.0784L91.99 102.373C91.5041 102.771 90.2894 103.279 89.2072 103.279C87.3299 103.279 86.6011 102.174 86.6011 100.54C86.6011 98.8173 87.4624 97.9118 89.3176 97.9118C90.3998 97.9118 91.3937 98.1989 91.8575 98.3977V97.0505C91.8575 95.9241 91.5041 95.4382 90.2011 95.4382C89.4281 95.4382 88.6551 95.5486 87.86 95.7695L87.6391 94.5548C88.39 94.3118 89.4502 94.1572 90.3557 94.1572C92.3876 94.1572 93.3373 95.0407 93.3373 96.9621V103.102ZM91.8575 99.4137C91.3716 99.2591 90.3999 99.0382 89.5164 99.0382C88.3238 99.0382 88.0367 99.6124 88.0367 100.584C88.0367 101.666 88.39 102.174 89.406 102.174C90.4661 102.174 91.3495 101.777 91.8354 101.423V99.4137H91.8575Z" fill="white"/>
<path d="M100.029 95.593C99.0356 95.7917 98.0417 96.123 97.2908 96.5206V103.124H95.811V94.3561H97.0258L97.1804 95.3721C97.7104 94.842 98.6822 94.3341 99.8307 94.2236L100.029 95.593Z" fill="white"/>
<path d="M106.081 103.014C105.706 103.146 104.844 103.279 104.27 103.279C102.768 103.279 102.128 102.439 102.128 101.092V95.5485H100.626V94.3559H102.15V92.2135L103.63 91.9927V94.3338H106.125L105.993 95.5264H103.63V101.004C103.63 101.821 103.828 102.064 104.646 102.064C104.999 102.064 105.507 101.998 105.971 101.887L106.081 103.014Z" fill="white"/>
<path d="M113.06 103.102V96.7192C113.06 95.9241 112.729 95.5265 111.867 95.5265C110.94 95.5265 110.034 95.8358 109.394 96.1008V103.102H107.914V94.3339H109.107L109.239 95.1069C109.946 94.621 111.05 94.1572 112.243 94.1572C113.745 94.1572 114.562 94.9965 114.562 96.5646V103.102H113.06Z" fill="white"/>
<path d="M118.008 99.3915C118.096 101.247 118.56 102.13 120.349 102.13C121.276 102.13 122.248 101.909 122.933 101.644L123.154 102.771C122.425 103.08 121.276 103.301 120.327 103.301C117.168 103.301 116.528 101.136 116.528 98.6847C116.528 96.1669 117.367 94.1792 120.039 94.1792C122.425 94.1792 123.419 95.8577 123.419 97.9559V99.3915H118.008ZM118.008 98.2209H121.983V97.9117C121.983 96.2774 121.475 95.3056 120.017 95.3056C118.361 95.2835 118.008 96.4761 118.008 98.2209Z" fill="white"/>
<path d="M129.713 95.593C128.719 95.7917 127.725 96.123 126.974 96.5206V103.124H125.495V94.3561H126.709L126.864 95.3721C127.394 94.842 128.366 94.3341 129.514 94.2236L129.713 95.593Z" fill="white"/>
<path d="M68.4465 71.8281H39.6244C38.6305 71.8281 37.8354 72.6232 37.8354 73.6171V102.439C37.8354 103.433 38.6305 104.228 39.6244 104.228H55.1287V91.6833H50.9103V86.8024H55.1287V83.2024C55.1287 79.0281 57.6907 76.7312 61.4232 76.7312C63.2121 76.7312 64.7582 76.8637 65.1999 76.93V81.303H62.6158C60.5839 81.303 60.1864 82.2747 60.1864 83.6882V86.8024H65.0232L64.3827 91.6833H60.1643V104.228H68.4244C69.4183 104.228 70.2134 103.433 70.2134 102.439V73.6171C70.2134 72.6232 69.4183 71.8281 68.4465 71.8281Z" fill="white"/>
</g>
<defs>
<filter id="filter0_d_1068_2654" x="0.799805" y="0" width="186" height="186" filterUnits="userSpaceOnUse" color-interpolation-filters="sRGB">
<feFlood flood-opacity="0" result="BackgroundImageFix"/>
<feColorMatrix in="SourceAlpha" type="matrix" values="0 0 0 0 0 0 0 0 0 0 0 0 0 0 0 0 0 0 127 0" result="hardAlpha"/>
<feOffset dy="4"/>
<feGaussianBlur stdDeviation="8.5"/>
<feComposite in2="hardAlpha" operator="out"/>
<feColorMatrix type="matrix" values="0 0 0 0 0.732194 0 0 0 0 0.732194 0 0 0 0 0.732194 0 0 0 0.25 0"/>
<feBlend mode="normal" in2="BackgroundImageFix" result="effect1_dropShadow_1068_2654"/>
<feBlend mode="normal" in="SourceGraphic" in2="effect1_dropShadow_1068_2654" result="shape"/>
</filter>
</defs>
</svg>
