<svg width="186" height="186" viewBox="0 0 186 186" fill="none" xmlns="http://www.w3.org/2000/svg">
<g filter="url(#filter0_d_1068_2676)">
<rect x="17" y="13" width="152" height="152" rx="10" fill="white"/>
<path d="M74.2375 88.966C74.7227 89.2693 75.4489 89.5119 76.3586 89.6938C77.2683 89.9364 78.2371 89.9971 79.2075 89.9971C80.1779 89.9971 81.0253 89.8758 81.8138 89.6332C82.6022 89.3906 83.2677 89.0267 83.8742 88.6022C84.4807 88.1776 84.9052 87.5711 85.2068 86.9663C85.5101 86.3598 85.692 85.6336 85.692 84.8452C85.692 83.8748 85.3888 83.0273 84.8429 82.2389C84.2971 81.5111 83.3283 80.9063 81.9941 80.4817L79.3878 79.6326C78.4174 79.3294 77.6912 78.9655 77.3273 78.6016C76.9634 78.2377 76.7815 77.8738 76.7815 77.2689C76.7815 76.5412 77.0847 75.9363 77.6306 75.633C78.1764 75.3298 79.0239 75.0872 80.1156 75.0872C81.4482 75.0872 82.6006 75.3298 83.6906 75.815C83.9938 75.9363 84.2364 76.0576 84.4184 76.0576C84.7216 76.0576 84.8429 75.8756 84.8429 75.4511V74.602C84.8429 74.3594 84.7823 74.1168 84.661 73.9955C84.5397 73.8742 84.3577 73.6923 84.1151 73.5103C83.9332 73.389 83.63 73.2677 83.3267 73.2071C83.0235 73.0858 82.6596 73.0251 82.2957 72.9038C81.9318 72.8432 81.5072 72.7219 81.0843 72.6612C80.6598 72.6006 80.2352 72.6006 79.8123 72.6006C79.0239 72.6006 78.2371 72.7219 77.5093 72.9038C76.7815 73.1464 76.116 73.4497 75.5702 73.8742C75.0243 74.3594 74.5391 74.8446 74.2375 75.4495C73.9343 76.056 73.7523 76.7215 73.7523 77.5099C73.7523 78.4803 74.0556 79.3884 74.6621 80.1768C75.2686 81.0259 76.2373 81.6308 77.6322 82.0553L80.2992 82.9044C81.2089 83.2077 81.8138 83.5109 82.1777 83.8748C82.5415 84.2387 82.6628 84.6632 82.6628 85.1468C82.6628 85.8746 82.3596 86.4794 81.6925 86.904C81.0253 87.3285 80.1779 87.5105 78.9649 87.5105C78.2371 87.5105 77.5109 87.4498 76.7831 87.2679C76.0554 87.0859 75.3899 86.904 74.7227 86.6007C74.5408 86.5401 74.3588 86.4794 74.2375 86.4188C74.1162 86.3581 73.9949 86.3581 73.8736 86.3581C73.5704 86.3581 73.4491 86.5401 73.4491 86.9646V87.8744C73.4491 88.0563 73.5097 88.2383 73.5704 88.4202C73.6917 88.6628 73.9343 88.7841 74.2375 88.966ZM42.9638 79.9965C42.2967 79.8752 41.6312 79.8752 41.0247 79.8752C39.1462 79.8752 37.6316 80.3604 36.4793 81.3292C35.3876 82.2995 34.7827 83.5715 34.7827 85.1468C34.7827 86.6614 35.2073 87.8137 36.1154 88.7218C37.0251 89.6316 38.2364 90.0545 39.8117 90.0545C41.9934 90.0545 43.8113 89.2054 45.2668 87.5088C45.4488 87.9334 45.6307 88.2973 45.8127 88.6005C45.9946 88.9038 46.2372 89.207 46.4798 89.4496C46.6618 89.6316 46.8437 89.6922 47.0257 89.6922C47.147 89.6922 47.3289 89.6316 47.5109 89.5103L48.6616 88.7218C48.9042 88.5399 49.0255 88.3579 49.0255 88.176C49.0255 88.0547 48.9648 87.9334 48.9042 87.7514C48.6616 87.2662 48.419 86.8417 48.2977 86.4188C48.1764 85.9942 48.0551 85.4484 48.0551 84.7829V78.7229C48.0551 76.7231 47.5092 75.2085 46.5405 74.1775C45.5701 73.1464 43.8735 72.6629 41.6918 72.6629C40.6608 72.6629 39.692 72.7842 38.7823 73.0268C37.8725 73.2694 37.0857 73.5726 36.4793 73.8759C36.2367 73.9972 36.0547 74.1185 35.9941 74.2398C35.9334 74.3611 35.8728 74.6037 35.8728 74.9069V75.8166C35.8728 76.1805 35.9941 76.4231 36.2367 76.4231C36.2973 76.4231 36.4186 76.4231 36.5399 76.3625C36.6612 76.3018 36.9038 76.2412 37.207 76.1199C37.8742 75.8773 38.5397 75.6347 39.2068 75.5134C39.874 75.3314 40.5395 75.2708 41.2066 75.2708C42.5999 75.2708 43.6309 75.574 44.2374 76.1199C44.8439 76.6657 45.0865 77.6951 45.0865 79.0901V80.4227C44.2965 80.2391 43.6309 80.1178 42.9638 79.9965ZM45.0849 83.2699C45.0849 83.8764 45.0242 84.4206 44.9029 84.8452C44.7816 85.2697 44.5997 85.6943 44.2965 86.0565C43.8113 86.6024 43.2048 87.0269 42.5393 87.2072C41.8721 87.3892 41.2066 87.5711 40.6001 87.5711C39.751 87.5711 39.0855 87.3285 38.661 86.904C38.1758 86.4794 37.9938 85.8123 37.9938 84.9648C37.9938 84.0551 38.2971 83.329 38.9036 82.8438C39.5101 82.3586 40.4182 82.116 41.6312 82.116C42.177 82.116 42.7819 82.1766 43.3884 82.2373C43.9948 82.2979 44.5391 82.4192 45.0849 82.5405V83.2699ZM54.3577 88.6628C54.479 89.0267 54.6003 89.2693 54.7216 89.3906C54.8429 89.5119 55.0855 89.5725 55.4494 89.5725H57.0246C57.3885 89.5725 57.6311 89.5119 57.7524 89.3906C57.8737 89.2693 57.995 89.0267 58.1163 88.6628L60.9652 76.7231L63.8747 88.6628C63.9353 89.0267 64.0566 89.2693 64.2386 89.3906C64.4205 89.5119 64.6631 89.5725 64.9664 89.5725H66.5416C66.8449 89.5725 67.0875 89.5119 67.2694 89.3906C67.3907 89.2693 67.5727 89.0267 67.6333 88.6628L72.1181 74.3594C72.1787 74.1775 72.2394 73.9955 72.2394 73.8742C72.2394 73.7529 72.3 73.6923 72.3 73.571C72.3 73.2677 72.1787 73.0858 71.8148 73.0858H70.1183C69.7544 73.0858 69.5118 73.1464 69.3905 73.2677C69.2692 73.389 69.1479 73.6316 69.0266 73.9955L65.8138 86.4188L62.9043 74.0562C62.8436 73.6923 62.7223 73.4497 62.5404 73.3284C62.4191 73.2071 62.1159 73.1464 61.8126 73.1464H60.298C59.9341 73.1464 59.6915 73.2071 59.5702 73.3284C59.4489 73.4497 59.267 73.6316 59.2063 74.0562L56.2968 86.2991L53.2053 73.9955C53.084 73.6316 52.9627 73.389 52.8414 73.2677C52.7201 73.1464 52.4775 73.0858 52.1136 73.0858H50.2958C49.9926 73.0858 49.8106 73.2071 49.8106 73.571C49.8106 73.6923 49.8713 73.9349 49.9926 74.2988C49.9942 74.3004 54.3577 88.6628 54.3577 88.6628Z" fill="black"/>
<path d="M81.812 97.6324C74.9635 100.542 67.5692 101.935 60.7814 101.935C50.7808 101.935 41.0852 99.2076 33.2663 94.6016C32.5992 94.177 32.055 94.9048 32.6598 95.39C39.9328 101.935 49.5072 105.874 60.1749 105.874C67.7512 105.874 76.5994 103.51 82.7201 98.965C83.6921 98.2995 82.843 97.2078 81.812 97.6324Z" fill="#F49819"/>
<path d="M77.9944 95.0868C77.4485 95.4507 77.5698 95.9965 78.1157 95.9359C80.0548 95.6933 84.4183 95.2081 85.2067 96.1785C85.9952 97.2095 84.3576 101.27 83.6315 103.148C83.3889 103.694 83.8741 103.937 84.3593 103.512C87.6327 100.785 88.4801 95.0278 87.813 94.2393C87.2065 93.3296 81.4497 92.6018 77.9944 95.0868Z" fill="#F49819"/>
<path d="M102.478 85.7532C102.357 85.7532 102.236 85.6925 102.236 85.5106V75.51C102.236 75.3887 102.296 75.2674 102.478 75.2674H102.782C102.964 75.2674 103.024 75.328 103.024 75.51L103.085 76.1165C103.509 75.7526 103.995 75.51 104.418 75.328C104.84 75.1461 105.267 75.0854 105.75 75.0854C106.721 75.0854 107.447 75.4493 107.993 76.1165C108.538 76.7836 108.842 77.7524 108.842 78.9047C108.842 80.1161 108.538 81.0864 107.993 81.8142C107.447 82.542 106.66 82.9059 105.629 82.9059C104.719 82.9059 103.932 82.542 103.144 81.8749V85.5106C103.144 85.6319 103.083 85.7532 102.901 85.7532H102.478ZM105.508 82.1175C106.296 82.1175 106.901 81.8749 107.325 81.329C107.75 80.7832 107.932 79.9964 107.932 78.9654C107.932 76.9049 107.144 75.8739 105.568 75.8739C104.78 75.8739 103.932 76.1771 103.144 76.7836V81.0864C103.568 81.4503 103.932 81.6929 104.295 81.8142C104.66 81.9962 105.083 82.0568 105.508 82.1175ZM112.417 82.8453C111.75 82.8453 111.205 82.6633 110.781 82.2388C110.417 81.8749 110.174 81.329 110.174 80.6635C110.174 79.9357 110.417 79.3915 110.902 78.967C111.387 78.5425 112.053 78.3605 112.902 78.3605C113.569 78.3605 114.235 78.4818 115.023 78.7244V77.5131C115.023 76.9066 114.902 76.482 114.598 76.2411C114.295 75.9985 113.871 75.8772 113.205 75.8772C112.538 75.8772 111.812 75.9985 111.084 76.2411C111.023 76.2411 110.902 76.3017 110.841 76.3017C110.72 76.3017 110.72 76.2411 110.72 76.1198V75.8772C110.72 75.8165 110.72 75.7559 110.781 75.6952L110.902 75.5739C111.691 75.2707 112.477 75.0887 113.387 75.0887C114.297 75.0887 114.902 75.2707 115.326 75.6346C115.751 75.9985 115.933 76.5443 115.933 77.2705V82.483C115.933 82.6043 115.872 82.7256 115.69 82.7256H115.387C115.266 82.7256 115.144 82.665 115.144 82.483L115.084 81.8765C114.235 82.542 113.326 82.9059 112.417 82.8453ZM112.538 82.1175C112.902 82.1175 113.326 82.0568 113.749 81.8749C114.174 81.6929 114.598 81.511 115.082 81.2077V79.3899C114.449 79.2194 113.797 79.1391 113.143 79.1473C111.75 79.1473 111.082 79.6931 111.082 80.7225C111.082 81.2077 111.204 81.511 111.446 81.7536C111.689 81.9962 112.053 82.0568 112.538 82.1175ZM118.416 82.724C118.295 82.724 118.173 82.6633 118.173 82.4814V75.5116C118.173 75.3903 118.234 75.269 118.416 75.269H118.719C118.901 75.269 118.962 75.3297 118.962 75.5116L119.023 76.3607C119.386 75.9362 119.75 75.6329 120.114 75.5116C120.478 75.3297 120.903 75.269 121.326 75.269H121.689C121.811 75.269 121.932 75.3297 121.932 75.5116V75.8755C121.932 75.9362 121.932 75.9362 121.871 75.9968C121.871 76.0575 121.811 76.0575 121.75 76.0575H121.204C120.78 76.0575 120.355 76.1181 119.993 76.3001C119.629 76.482 119.326 76.7246 118.962 77.0885V82.483C118.962 82.6043 118.901 82.7256 118.719 82.7256C118.719 82.724 118.416 82.724 118.416 82.724ZM125.81 82.7846C125.204 82.7846 124.779 82.6633 124.478 82.2994C124.174 81.9962 123.993 81.5716 123.993 80.9668V76.0575H122.842C122.721 76.0575 122.599 75.9968 122.599 75.8149V75.6936C122.599 75.6329 122.599 75.5723 122.66 75.5116C122.721 75.451 122.721 75.451 122.842 75.451L124.053 75.3297L124.174 73.3905C124.174 73.3299 124.235 73.2692 124.235 73.2086C124.235 73.1479 124.296 73.1479 124.417 73.1479H124.66C124.781 73.1479 124.902 73.2086 124.902 73.3905V75.3297H127.023C127.145 75.3297 127.266 75.3903 127.266 75.5723V75.8755C127.266 75.9968 127.205 76.1181 127.023 76.1181H124.902V80.9061C124.902 81.3307 124.963 81.5733 125.145 81.7552C125.327 81.9372 125.63 81.9978 125.994 81.9978C126.297 81.9978 126.54 81.9978 126.722 81.9372C126.843 81.9372 126.904 81.8765 126.964 81.8765H127.086C127.207 81.8765 127.268 81.9372 127.268 82.0585V82.3011C127.268 82.483 127.207 82.5437 127.086 82.6043C126.72 82.724 126.296 82.7846 125.81 82.7846ZM129.084 82.724C128.962 82.724 128.841 82.6633 128.841 82.4814V75.5116C128.841 75.3903 128.902 75.269 129.084 75.269H129.387C129.569 75.269 129.63 75.3297 129.63 75.5116L129.69 76.1181C130.175 75.7542 130.661 75.5116 131.205 75.3297C131.751 75.1477 132.236 75.0264 132.78 75.0264C133.508 75.0264 134.052 75.2084 134.416 75.5723C134.78 75.9362 134.962 76.482 134.962 77.2688V82.4207C134.962 82.542 134.901 82.6633 134.719 82.6633H134.355C134.234 82.6633 134.113 82.6027 134.113 82.4207V77.6327C134.113 77.0262 133.991 76.541 133.749 76.2394C133.506 75.9362 133.082 75.8149 132.598 75.8149C131.628 75.8149 130.659 76.1181 129.749 76.7246V82.4207C129.749 82.542 129.689 82.6633 129.507 82.6633L129.084 82.724ZM140.356 82.9059C139.206 82.9059 138.296 82.6027 137.689 81.9355C137.083 81.2684 136.78 80.2996 136.78 78.9654C136.78 77.754 137.083 76.7836 137.689 76.0558C138.296 75.3887 139.143 75.0248 140.174 75.0248C141.084 75.0248 141.75 75.2674 142.235 75.8132C142.72 76.2984 142.963 77.0852 142.963 77.995C142.963 78.4195 142.963 78.6621 142.902 78.9047C142.841 79.026 142.781 79.1473 142.659 79.1473H137.689C137.689 80.1783 137.932 80.9651 138.357 81.4503C138.781 81.9355 139.507 82.1781 140.417 82.1781C141.145 82.1781 141.81 82.0568 142.417 81.8142C142.538 81.7536 142.659 81.7536 142.659 81.7536C142.72 81.7536 142.72 81.7536 142.781 81.8142C142.841 81.8749 142.841 81.8749 142.841 81.9355V82.1175C142.841 82.2994 142.781 82.3601 142.659 82.4207C141.994 82.724 141.205 82.9059 140.356 82.9059ZM142.176 78.4818V77.9966C142.176 77.2688 141.994 76.7246 141.63 76.3607C141.266 75.9968 140.781 75.8149 140.115 75.8149C138.54 75.8149 137.752 76.7246 137.63 78.4212H142.176V78.4818ZM145.084 82.724C144.962 82.724 144.841 82.6633 144.841 82.4814V75.5116C144.841 75.3903 144.902 75.269 145.084 75.269H145.387C145.569 75.269 145.63 75.3297 145.63 75.5116L145.69 76.3607C146.054 75.9362 146.418 75.6329 146.782 75.5116C147.146 75.3297 147.57 75.269 147.993 75.269H148.357C148.478 75.269 148.6 75.3297 148.6 75.5116V75.8755C148.6 75.9362 148.6 75.9362 148.539 75.9968C148.539 76.0575 148.478 76.0575 148.418 76.0575H147.872C147.447 76.0575 147.023 76.1181 146.661 76.3001C146.297 76.482 145.993 76.7246 145.63 77.0885V82.483C145.63 82.6043 145.569 82.7256 145.387 82.7256C145.385 82.724 145.084 82.724 145.084 82.724ZM102.478 99.0271C102.357 99.0271 102.236 98.9665 102.236 98.7846V91.8755C102.236 91.7542 102.296 91.6329 102.478 91.6329H102.782C102.964 91.6329 103.024 91.6935 103.024 91.8755L103.085 92.4819C103.57 92.118 104.055 91.8755 104.6 91.6935C105.145 91.5116 105.631 91.3903 106.175 91.3903C106.903 91.3903 107.447 91.5722 107.811 91.9361C108.175 92.3 108.356 92.8458 108.356 93.6326V98.7846C108.356 98.9058 108.296 99.0271 108.114 99.0271H107.689C107.568 99.0271 107.447 98.9665 107.447 98.7846V93.9965C107.447 93.3294 107.325 92.9049 107.083 92.6032C106.84 92.3 106.416 92.1787 105.932 92.1787C104.962 92.1787 103.993 92.4819 103.083 93.1491V98.8452C103.083 98.9665 103.023 99.0878 102.841 99.0878C102.901 99.0271 102.478 99.0271 102.478 99.0271ZM113.749 99.2681C112.599 99.2681 111.689 98.9649 111.082 98.2977C110.476 97.6306 110.173 96.6618 110.173 95.3275C110.173 94.1162 110.476 93.1458 111.082 92.418C111.689 91.7509 112.536 91.387 113.567 91.387C114.477 91.387 115.143 91.6296 115.628 92.1754C116.113 92.6606 116.356 93.3868 116.356 94.3572C116.356 94.7817 116.356 95.0243 116.295 95.2669C116.234 95.3882 116.174 95.5095 116.052 95.5095H111.082C111.082 96.5405 111.325 97.3273 111.75 97.8125C112.174 98.2977 112.9 98.5403 113.81 98.5403C114.538 98.5403 115.203 98.419 115.81 98.1764C115.931 98.1158 116.052 98.1158 116.052 98.1158C116.113 98.1158 116.113 98.1158 116.174 98.1764C116.234 98.2371 116.234 98.2371 116.234 98.2977V98.5403C116.234 98.7223 116.174 98.7829 116.052 98.8436C115.387 99.0862 114.598 99.2681 113.749 99.2681ZM115.569 94.7833V94.2981C115.569 93.5704 115.387 93.0261 115.023 92.6623C114.659 92.2984 114.174 92.1164 113.508 92.1164C111.933 92.1164 111.145 92.9655 111.023 94.7227L115.569 94.7833ZM120.537 99.1468C119.931 99.1468 119.506 99.0255 119.205 98.6616C118.901 98.3584 118.719 97.9338 118.719 97.329V92.359H117.569C117.447 92.359 117.326 92.2984 117.326 92.1164V91.9951C117.326 91.9345 117.326 91.8738 117.387 91.8132C117.447 91.7525 117.447 91.7525 117.569 91.7525L118.78 91.6312L118.901 89.6921C118.901 89.6314 118.962 89.5708 118.962 89.5101C119.023 89.4495 119.023 89.4495 119.144 89.4495H119.386C119.508 89.4495 119.629 89.5101 119.629 89.6921V91.6312H121.75C121.871 91.6312 121.993 91.6919 121.993 91.8738V92.1771C121.993 92.2984 121.932 92.4197 121.75 92.4197H119.629V97.2683C119.629 97.6929 119.69 97.9355 119.872 98.1174C120.054 98.2994 120.357 98.36 120.721 98.36C121.024 98.36 121.267 98.36 121.449 98.2994C121.57 98.2994 121.63 98.2387 121.691 98.2387H121.812C121.934 98.2387 121.994 98.2994 121.994 98.4207V98.6632C121.994 98.8452 121.934 98.9058 121.812 98.9665C121.447 99.0878 121.022 99.1468 120.537 99.1468ZM125.325 99.0271C125.204 99.0271 125.083 98.9665 125.022 98.8452L122.719 91.9968C122.658 91.8755 122.658 91.8148 122.658 91.7542C122.658 91.6329 122.719 91.6329 122.84 91.6329H123.325C123.447 91.6329 123.568 91.6935 123.568 91.8148L125.568 98.0568L127.325 91.8148C127.386 91.6935 127.446 91.6329 127.628 91.6329H128.174C128.295 91.6329 128.417 91.6935 128.477 91.8148L130.234 98.0568L132.295 91.7542C132.356 91.6329 132.416 91.5722 132.538 91.5722H132.962C133.083 91.5722 133.144 91.6329 133.144 91.6935C133.144 91.7542 133.144 91.8148 133.083 91.9361L130.659 98.7846C130.598 98.9058 130.538 98.9665 130.356 98.9665H129.871C129.749 98.9665 129.628 98.9058 129.567 98.7846L127.81 92.5426L126.053 98.7846C125.992 98.9058 125.932 98.9665 125.75 98.9665L125.325 99.0271ZM137.507 99.2681C136.416 99.2681 135.568 98.9042 135.022 98.2371C134.477 97.5699 134.113 96.6012 134.113 95.3275C134.113 94.0539 134.416 93.1458 135.022 92.418C135.629 91.6902 136.476 91.387 137.507 91.387C138.539 91.387 139.447 91.7509 139.992 92.418C140.599 93.0852 140.902 94.0539 140.902 95.3275C140.902 96.6012 140.599 97.5093 139.992 98.2371C139.447 98.9058 138.598 99.2681 137.507 99.2681ZM137.507 98.4813C139.204 98.4813 140.053 97.4503 140.053 95.3292C140.053 93.2081 139.204 92.1771 137.507 92.1771C135.811 92.1771 134.962 93.2081 134.962 95.3292C134.962 97.4503 135.811 98.4813 137.507 98.4813ZM143.084 99.0271C142.963 99.0271 142.841 98.9665 142.841 98.7846V91.8755C142.841 91.7542 142.902 91.6329 143.084 91.6329H143.387C143.569 91.6329 143.63 91.6935 143.63 91.8755L143.69 92.7245C144.054 92.3 144.418 91.9967 144.782 91.8755C145.146 91.6935 145.571 91.6329 145.993 91.6329H146.357C146.479 91.6329 146.6 91.6935 146.6 91.8755V92.2393C146.6 92.3 146.6 92.3 146.539 92.3606C146.539 92.3606 146.479 92.4213 146.418 92.4213H145.872C145.448 92.4213 145.023 92.4819 144.661 92.6639C144.297 92.8458 143.994 93.0884 143.63 93.4523V98.8468C143.63 98.9681 143.569 99.0894 143.387 99.0894C143.387 99.0862 143.084 99.0271 143.084 99.0271ZM148.113 99.0271C147.992 99.0271 147.87 98.9665 147.87 98.7846V88.3611C147.87 88.2398 147.931 88.1185 148.113 88.1185H148.537C148.659 88.1185 148.78 88.1791 148.78 88.3611V94.9063L152.294 91.7542C152.416 91.6329 152.537 91.6329 152.658 91.6329H153.204C153.325 91.6329 153.386 91.6935 153.386 91.7542C153.386 91.8148 153.325 91.8755 153.204 91.9968L149.629 95.1489L153.507 98.7239C153.568 98.7845 153.629 98.8452 153.629 98.9058C153.629 99.0271 153.568 99.0271 153.447 99.0271H152.84C152.719 99.0271 152.598 98.9665 152.537 98.9058L148.78 95.4521V98.8452C148.78 98.9665 148.719 99.0878 148.537 99.0878L148.113 99.0271Z" fill="black"/>
</g>
<defs>
<filter id="filter0_d_1068_2676" x="0" y="0" width="186" height="186" filterUnits="userSpaceOnUse" color-interpolation-filters="sRGB">
<feFlood flood-opacity="0" result="BackgroundImageFix"/>
<feColorMatrix in="SourceAlpha" type="matrix" values="0 0 0 0 0 0 0 0 0 0 0 0 0 0 0 0 0 0 127 0" result="hardAlpha"/>
<feOffset dy="4"/>
<feGaussianBlur stdDeviation="8.5"/>
<feComposite in2="hardAlpha" operator="out"/>
<feColorMatrix type="matrix" values="0 0 0 0 0.732194 0 0 0 0 0.732194 0 0 0 0 0.732194 0 0 0 0.25 0"/>
<feBlend mode="normal" in2="BackgroundImageFix" result="effect1_dropShadow_1068_2676"/>
<feBlend mode="normal" in="SourceGraphic" in2="effect1_dropShadow_1068_2676" result="shape"/>
</filter>
</defs>
</svg>
