<svg width="187" height="186" viewBox="0 0 187 186" fill="none" xmlns="http://www.w3.org/2000/svg">
<g filter="url(#filter0_d_1068_2646)">
<rect x="17.2002" y="13" width="152" height="152" rx="10" fill="white"/>
<rect x="24" y="56.0332" width="138.604" height="66.1157" rx="3.19929" fill="white"/>
<g clip-path="url(#clip0_1068_2646)">
<path d="M46.053 84.75L43.0205 98.8042H35.6118L37.1141 91.8901L46.053 84.75Z" fill="#072654"/>
<path d="M61.8234 80.2861C63.5589 80.2974 64.7812 80.7606 65.4717 81.6983C66.1622 82.636 66.3302 83.9691 65.9476 85.7203C65.6957 86.9178 65.1825 88.0137 64.464 88.8836C63.7175 89.7874 62.8031 90.4426 61.7861 90.7816C62.5605 90.9962 63.0364 91.6628 63.1857 92.8038L63.2137 93.0524L63.7735 98.8029H60.3211L59.7426 92.6118C59.7333 92.4084 59.6866 92.2051 59.6026 92.0243C59.5187 91.8435 59.3974 91.6967 59.2574 91.5837C58.9681 91.4029 58.6509 91.3126 58.3243 91.3013H58.1284H56.0009L54.3774 98.7916H51.1489L55.1612 80.2861H61.8234ZM150.27 85.1328L146.165 92.2955L141.322 100.791L141.285 100.836L140.202 102.734L140.165 102.802L140.118 102.893L139.185 104.519H135.975L139.726 98.1137L138.028 85.5847H141.359L142.199 93.7528L146.267 86.7596L146.323 86.658L146.389 86.545L146.454 86.4433L146.958 85.1441H150.27V85.1328ZM121.83 86.127C122.446 86.7596 122.847 87.6296 122.987 88.6011C123.155 89.81 123.08 91.064 122.791 92.239C122.52 93.5382 122.063 94.7583 121.429 95.8429C120.85 96.8371 120.104 97.6618 119.236 98.2493C118.415 98.7916 117.51 99.074 116.577 99.074C115.914 99.1079 115.261 98.9045 114.692 98.4978C114.253 98.1815 113.917 97.6957 113.731 97.1195L113.675 96.8936L112.023 104.519H108.823L112.098 89.3807L112.116 89.3129L112.126 89.2451L112.928 85.5734H116.054L115.522 87.6973L115.513 87.7877C115.97 86.9969 116.586 86.3529 117.295 85.9349C118.004 85.483 118.788 85.2571 119.581 85.2571C120.374 85.2006 121.177 85.5169 121.83 86.127ZM117.967 88.2283C117.594 88.217 117.22 88.3074 116.866 88.4769C116.521 88.6463 116.203 88.9062 115.933 89.2225C115.298 90.0133 114.86 91.0188 114.664 92.0921C114.384 93.3461 114.403 94.2951 114.682 94.9504C114.962 95.6056 115.494 95.9446 116.287 95.9446C117.043 95.9672 117.771 95.6169 118.321 94.973C118.937 94.1934 119.367 93.2219 119.562 92.1599C119.833 90.9284 119.814 89.9456 119.534 89.2564C119.255 88.5673 118.732 88.2283 117.967 88.2283ZM132.336 85.8332C132.766 86.1609 133.101 86.6467 133.288 87.2228L133.353 87.4375L133.764 85.5621H136.899L134.025 98.7803H130.881L131.301 96.8258C130.825 97.5149 130.228 98.0572 129.556 98.43C128.903 98.7916 128.203 98.9836 127.494 98.9836C126.673 99.0288 125.851 98.7464 125.18 98.1476C124.564 97.5601 124.153 96.7015 124.023 95.7638C123.855 94.5663 123.911 93.3461 124.2 92.1825C124.48 90.8833 124.946 89.6518 125.59 88.556C126.178 87.5505 126.934 86.7032 127.811 86.0931C128.613 85.5282 129.528 85.2232 130.452 85.2232C131.123 85.2006 131.776 85.4039 132.336 85.8332ZM130.713 88.2622C130.33 88.2622 129.948 88.3526 129.602 88.5334C129.248 88.7141 128.931 88.974 128.66 89.3016C128.035 90.1037 127.587 91.0979 127.391 92.1825C127.13 93.4026 127.13 94.329 127.428 94.9956C127.718 95.6621 128.259 95.9785 129.061 95.9785C129.434 95.9898 129.808 95.8994 130.162 95.7299C130.517 95.5604 130.825 95.3006 131.095 94.9843C131.646 94.2725 132.047 93.4252 132.271 92.4762L132.346 92.126C132.626 90.872 132.616 89.9117 132.318 89.2677C132.028 88.6011 131.497 88.2622 130.713 88.2622ZM111.314 85.4265L111.519 85.5282L110.717 89.1321C110.26 88.8384 109.756 88.6915 109.252 88.6915C108.487 88.6576 107.74 88.9627 107.134 89.5388C106.611 90.0811 106.229 90.8042 106.033 91.595L105.967 91.9L104.475 98.8029H101.283L104.176 85.5847H107.32L106.91 87.5279C107.302 86.8726 107.806 86.3416 108.375 85.9462C109.009 85.5056 109.718 85.2797 110.446 85.2797C110.736 85.2571 111.034 85.3023 111.314 85.4265ZM99.5292 86.0592C100.238 86.6015 100.752 87.4601 100.947 88.4543C101.181 89.6518 101.143 90.9171 100.845 92.0921C100.565 93.4252 100.07 94.6679 99.3706 95.7299C98.7081 96.758 97.8683 97.5714 96.9072 98.125C95.9275 98.6786 94.8638 98.961 93.7814 98.9497C92.6431 98.9497 91.71 98.6786 90.9822 98.125C90.2637 97.5827 89.7505 96.7241 89.5452 95.7299C89.3213 94.5324 89.3586 93.267 89.6479 92.0921C89.9278 90.7703 90.4223 89.5275 91.1221 88.4543C91.7846 87.4375 92.6337 86.6128 93.6041 86.0592C94.5932 85.5056 95.6756 85.2119 96.7673 85.2345C97.7284 85.178 98.6894 85.4717 99.5292 86.0592ZM96.1141 88.217C95.3583 88.2057 94.6305 88.556 94.08 89.1886C93.5108 89.8439 93.0816 90.8042 92.811 92.0921C92.2512 94.6792 92.7924 95.9672 94.4346 95.9672C95.181 95.9898 95.8995 95.6395 96.4407 95.0069C97.0005 94.3629 97.4111 93.3913 97.691 92.0921C97.971 90.8155 97.9803 89.8552 97.7004 89.1886C97.4298 88.5221 96.8979 88.217 96.1141 88.217ZM89.6292 85.5734L89.0694 88.1944L82.0246 95.7299H87.6791L87.0072 98.8141H77.6484L78.2363 96.0914L85.1691 88.6689H79.8972L80.569 85.5847H89.6292V85.5734ZM73.8321 85.8332C74.2614 86.1609 74.5973 86.6467 74.7839 87.2228L74.8492 87.4375L75.2598 85.5621H78.4042L75.5397 98.7803H72.3952L72.8151 96.8258C72.3392 97.5036 71.7514 98.0459 71.0889 98.4187C70.4264 98.7916 69.7079 98.9836 68.9708 98.9836C68.1497 99.0288 67.3472 98.7351 66.6847 98.1476C66.0689 97.5601 65.6583 96.7015 65.5277 95.7638C65.3598 94.5663 65.4157 93.3461 65.705 92.1825C65.9756 90.8833 66.4515 89.6518 67.0953 88.556C67.6831 87.5505 68.4389 86.7032 69.3067 86.0931C70.1091 85.5282 71.0236 85.2345 71.9473 85.2345C72.6191 85.2119 73.2723 85.4152 73.8321 85.8332ZM72.2179 88.2622C71.8353 88.2622 71.4621 88.3526 71.1075 88.5334C70.753 88.7141 70.4357 88.974 70.1651 89.3016C69.5306 90.1037 69.0921 91.0979 68.8961 92.1825C68.6349 93.4026 68.6442 94.329 68.9335 94.9956C69.2227 95.6621 69.7639 95.9785 70.5664 95.9785C70.9396 95.9898 71.3128 95.8994 71.6674 95.7299C72.0126 95.5604 72.3392 95.3006 72.6005 94.9843C73.151 94.2838 73.5615 93.4252 73.7762 92.4762L73.8508 92.126C74.1214 90.872 74.0934 89.9343 73.8228 89.2677C73.5336 88.6011 72.9924 88.2622 72.2179 88.2622ZM60.6664 83.3704H57.6712L56.6168 88.2057H59.612C60.5544 88.2057 61.3009 88.0137 61.8047 87.6183C62.3366 87.2002 62.7191 86.545 62.8591 85.7768C63.0457 84.9633 62.9617 84.342 62.6072 83.9465C62.2526 83.5737 61.6088 83.3704 60.6664 83.3704Z" fill="#072654"/>
<path d="M52.7795 74.5469L47.5169 98.8028H43.9059L47.4609 82.3761L42.0117 86.7257L42.9821 82.3987L52.7795 74.5469Z" fill="#3395FF"/>
</g>
</g>
<defs>
<filter id="filter0_d_1068_2646" x="0.200195" y="0" width="186" height="186" filterUnits="userSpaceOnUse" color-interpolation-filters="sRGB">
<feFlood flood-opacity="0" result="BackgroundImageFix"/>
<feColorMatrix in="SourceAlpha" type="matrix" values="0 0 0 0 0 0 0 0 0 0 0 0 0 0 0 0 0 0 127 0" result="hardAlpha"/>
<feOffset dy="4"/>
<feGaussianBlur stdDeviation="8.5"/>
<feComposite in2="hardAlpha" operator="out"/>
<feColorMatrix type="matrix" values="0 0 0 0 0.732194 0 0 0 0 0.732194 0 0 0 0 0.732194 0 0 0 0.25 0"/>
<feBlend mode="normal" in2="BackgroundImageFix" result="effect1_dropShadow_1068_2646"/>
<feBlend mode="normal" in="SourceGraphic" in2="effect1_dropShadow_1068_2646" result="shape"/>
</filter>
<clipPath id="clip0_1068_2646">
<rect width="114.657" height="29.9724" fill="white" transform="translate(35.6118 74.5469)"/>
</clipPath>
</defs>
</svg>
