<svg width="186" height="186" viewBox="0 0 186 186" fill="none" xmlns="http://www.w3.org/2000/svg">
<g filter="url(#filter0_d_1068_2955)">
<rect x="17" y="13" width="152" height="152" rx="10" fill="white"/>
<g clip-path="url(#clip0_1068_2955)">
<path fill-rule="evenodd" clip-rule="evenodd" d="M49.171 101.406H53.5886V85.3921H49.1714L49.171 101.406ZM48.6182 81.2187C48.6182 79.8665 49.6853 78.7651 51.1186 78.7651C52.521 78.7651 53.5881 79.8037 53.5881 81.2187C53.5881 82.6033 52.521 83.7351 51.1186 83.7351C49.6853 83.7351 48.6182 82.6347 48.6182 81.2187ZM57.4966 97.6655V89.7577H54.6928V86.3678H57.4966V82.7852L61.8791 81.5263V86.3687H66.4875L65.4888 89.7581H61.8791V96.5684C61.8791 97.989 62.3301 98.4729 63.3293 98.4729C64.1671 98.4729 65.005 98.1822 65.585 97.7949L66.8415 100.765C65.7144 101.539 63.7165 101.958 62.2021 101.958C59.3017 101.958 57.4966 100.345 57.4966 97.6655ZM67.9462 85.7883H71.9526L72.4796 87.4391C73.8853 86.2173 75.2206 85.3921 77.0126 85.3921C77.8209 85.3921 78.8051 85.6232 79.5431 86.1188L77.8912 89.8167C77.0482 89.3212 76.2394 89.2222 75.7828 89.2222C74.7635 89.2222 73.9556 89.5523 72.6906 90.5102V101.407H67.9462V85.7883ZM80.0949 101.406H84.513V85.3921H80.0949V101.406ZM80.0949 81.2187C80.0949 79.8665 81.1625 78.7651 82.5954 78.7651C83.9977 78.7651 85.0649 79.8037 85.0649 81.2187C85.0649 82.6033 83.9977 83.7351 82.5954 83.7351C81.1625 83.7351 80.0949 82.6347 80.0949 81.2187ZM91.5268 93.3482L85.7832 85.3916H90.4315L93.9503 90.2678L97.4696 85.3916H102.117L96.3073 93.3482L102.184 101.406H97.5362L93.917 96.3954L90.265 101.406H85.6172L91.5268 93.3482Z" fill="#2FC7F7"/>
<path fill-rule="evenodd" clip-rule="evenodd" d="M116.456 84.1132C116.456 82.0334 114.723 81.3038 112.878 81.3038C110.406 81.3038 108.377 82.1065 106.496 82.9458L105.204 79.1151C107.308 78.1662 110.222 77.1084 113.69 77.1084C119.113 77.1084 121.732 79.8081 121.732 83.6022C121.732 90.2422 112.509 92.1027 110.96 97.1739H122.064V101.406H104.393C105.389 89.5492 116.456 88.8558 116.456 84.1132Z" fill="#0065A3"/>
<path fill-rule="evenodd" clip-rule="evenodd" d="M129.558 91.909H131.781V89.3218C131.781 87.4633 131.929 85.3131 132.004 84.8395L126.482 92.0183C126.926 91.9817 128.706 91.909 129.558 91.909ZM120.959 93.0296L133.085 77.6603H136.686V92.188H140.287V96.2132H136.686V101.958H131.799V96.2132H120.959V93.0296ZM151.055 92.0183C147.548 92.0183 144.705 89.0513 144.705 85.3918C144.705 81.7319 147.548 78.7649 151.055 78.7649C154.563 78.7649 157.406 81.7319 157.406 85.3918C157.406 89.0513 154.563 92.0183 151.055 92.0183ZM151.055 77.1084C146.633 77.1084 143.048 80.8171 143.048 85.3914C143.048 89.9665 146.633 93.6748 151.055 93.6748C155.478 93.6748 159.063 89.9661 159.063 85.3914C159.063 80.8171 155.478 77.1084 151.055 77.1084Z" fill="#0065A3"/>
<path fill-rule="evenodd" clip-rule="evenodd" d="M150.779 85.3916H151.884V82.0781H150.779V85.3916Z" fill="#0065A3"/>
<path fill-rule="evenodd" clip-rule="evenodd" d="M150.779 85.3917H154.093V84.2866H150.779V85.3917Z" fill="#0065A3"/>
<path fill-rule="evenodd" clip-rule="evenodd" d="M38.5705 98.6448C40.8515 98.6448 41.9922 97.693 41.9922 95.4978C41.9922 93.6317 40.8515 92.5707 38.961 92.5707H36.47V98.6448H38.5705ZM37.8756 88.7049C39.4979 88.7049 40.3353 87.6289 40.3353 86.2678C40.3353 84.8429 39.5246 83.7349 37.794 83.7349H36.47V88.7049H37.8756ZM31.5 79.8701H38.224C42.869 79.8701 44.948 82.6519 44.948 85.4679C44.948 87.2777 44.0712 89.0542 42.4142 89.9258V89.9929C44.9808 90.6962 46.4099 92.8417 46.4099 95.322C46.4099 98.6739 43.8761 101.958 38.8087 101.958H31.5V79.8701Z" fill="#2FC7F7"/>
</g>
</g>
<defs>
<filter id="filter0_d_1068_2955" x="0" y="0" width="186" height="186" filterUnits="userSpaceOnUse" color-interpolation-filters="sRGB">
<feFlood flood-opacity="0" result="BackgroundImageFix"/>
<feColorMatrix in="SourceAlpha" type="matrix" values="0 0 0 0 0 0 0 0 0 0 0 0 0 0 0 0 0 0 127 0" result="hardAlpha"/>
<feOffset dy="4"/>
<feGaussianBlur stdDeviation="8.5"/>
<feComposite in2="hardAlpha" operator="out"/>
<feColorMatrix type="matrix" values="0 0 0 0 0.732194 0 0 0 0 0.732194 0 0 0 0 0.732194 0 0 0 0.25 0"/>
<feBlend mode="normal" in2="BackgroundImageFix" result="effect1_dropShadow_1068_2955"/>
<feBlend mode="normal" in="SourceGraphic" in2="effect1_dropShadow_1068_2955" result="shape"/>
</filter>
<clipPath id="clip0_1068_2955">
<rect width="128" height="24.8498" fill="white" transform="translate(31.5 77.1084)"/>
</clipPath>
</defs>
</svg>
