<svg width="187" height="186" viewBox="0 0 187 186" fill="none" xmlns="http://www.w3.org/2000/svg">
<g filter="url(#filter0_d_1068_2843)">
<rect x="17.3999" y="13" width="152" height="152" rx="10" fill="white"/>
<rect width="143.752" height="101.201" transform="translate(22 38.3994)" fill="white"/>
<path d="M34.2773 89.5443L39.9043 84.0127L58.411 101.986H47.0455L34.2773 89.5443Z" fill="#F27121"/>
<path d="M33.3647 102.751L40.2445 97.5109L33.3647 90.8735V102.751Z" fill="#939497"/>
<path d="M59.4158 89.5224L53.7889 95.0539L35.2822 77.0811H46.6477L59.4158 89.5224Z" fill="#F27121"/>
<path d="M60.3253 76.3159L53.4482 81.5561L60.3253 88.1934V76.3159Z" fill="#939497"/>
<path d="M67.856 78.879H69.915V80.1836C69.915 80.2898 69.9695 80.3443 70.0757 80.3443C70.122 80.3443 70.1628 80.3252 70.201 80.2871C70.2391 80.249 70.2799 80.2081 70.3262 80.1618C71.1351 79.0778 72.3689 78.5386 74.033 78.5386C75.5283 78.5386 76.7021 78.958 77.5573 79.7969C78.4098 80.6357 78.8374 81.8178 78.8374 83.343V90.7783H76.7784V83.6834C76.7784 82.5994 76.5033 81.7769 75.9559 81.2131C75.4057 80.6493 74.6132 80.3661 73.5755 80.3661C72.4016 80.3661 71.4974 80.7202 70.8655 81.431C70.2336 82.1391 69.915 83.1959 69.915 84.5985V90.7756H67.856V78.879Z" fill="#F27121"/>
<path d="M81.9969 81.4882C82.5008 80.5431 83.2062 79.8132 84.1131 79.3039C85.0201 78.7919 86.085 78.5386 87.3052 78.5386C88.509 78.5386 89.5358 78.7891 90.3828 79.293C91.2298 79.7969 91.8617 80.4641 92.2811 81.2948C92.7006 82.1255 92.9103 83.0379 92.9103 84.0293V85.402H83.4159C83.4921 86.5922 83.8925 87.5373 84.617 88.24C85.3415 88.9426 86.3138 89.2913 87.5339 89.2913C88.5253 89.2913 89.2852 89.0897 89.8108 88.6839C90.3365 88.2808 90.7232 87.7198 90.9656 87.0035H93.1391C92.8504 88.1174 92.2593 89.0815 91.366 89.8986C90.4727 90.7157 89.1953 91.1215 87.5339 91.1215C86.2838 91.1215 85.1808 90.8655 84.2275 90.3562C83.2743 89.8469 82.5389 89.1169 82.0187 88.1719C81.5012 87.2268 81.2397 86.1128 81.2397 84.8328C81.2397 83.5527 81.493 82.4333 81.9969 81.4882ZM90.6197 83.6834C90.6197 82.6457 90.3528 81.8341 89.819 81.2458C89.2852 80.6575 88.4463 80.3661 87.3024 80.3661C86.2348 80.3661 85.3605 80.6521 84.6823 81.224C84.0042 81.796 83.5875 82.6158 83.435 83.6834H90.6197Z" fill="#F27121"/>
<path d="M94.6694 78.8789H96.7502L99.038 88.5558C99.068 88.662 99.1034 88.7355 99.1415 88.7737C99.1797 88.8118 99.2369 88.8309 99.3131 88.8309C99.3894 88.8309 99.4493 88.8118 99.4956 88.7737C99.5419 88.7355 99.5719 88.662 99.5882 88.5558L101.854 78.8789H105.561L107.827 88.5558C107.857 88.662 107.892 88.7355 107.931 88.7737C107.969 88.8118 108.026 88.8309 108.102 88.8309C108.178 88.8309 108.238 88.8118 108.285 88.7737C108.331 88.7355 108.361 88.662 108.377 88.5558L110.665 78.8789H112.746V79.3365L109.954 90.7755H106.294L103.938 80.8018C103.891 80.6656 103.815 80.5948 103.709 80.5948C103.649 80.5948 103.603 80.6111 103.573 80.6411C103.543 80.671 103.513 80.7255 103.48 80.8018L101.124 90.7755H97.4638L94.6722 79.3365V78.8789H94.6694Z" fill="#F27121"/>
<path d="M113.887 78.8788H116.747V78.5357C116.747 77.1031 117.093 76.0381 117.787 75.3436C118.482 74.6491 119.544 74.3032 120.979 74.3032H123.038V76.1335H121.437H119.149C119.043 76.1335 118.959 76.1634 118.899 76.2261C118.839 76.286 118.806 76.3704 118.806 76.4766V78.5357V78.8788H121.895V80.7091H118.806V90.7754H116.747V80.7091H113.887V78.8788Z" fill="#F27121"/>
<path d="M132.271 79.2683C133.208 79.7558 133.949 80.4721 134.491 81.4199C135.033 82.365 135.302 83.5007 135.302 84.8298C135.302 86.1589 135.033 87.2919 134.491 88.2398C133.949 89.1848 133.211 89.9011 132.271 90.3914C131.334 90.8789 130.286 91.124 129.125 91.124C127.965 91.124 126.916 90.8789 125.98 90.3914C125.043 89.9039 124.302 89.1876 123.76 88.2398C123.218 87.2947 122.948 86.1589 122.948 84.8298C122.948 83.5007 123.218 82.3677 123.76 81.4199C124.302 80.4748 125.04 79.7585 125.98 79.2683C126.916 78.7808 127.965 78.5356 129.125 78.5356C130.283 78.5356 131.331 78.7808 132.271 79.2683ZM126.138 81.5452C125.383 82.3296 125.005 83.4245 125.005 84.8271C125.005 86.2298 125.383 87.3246 126.138 88.109C126.892 88.8934 127.889 89.2883 129.123 89.2883C130.356 89.2883 131.353 88.8961 132.108 88.109C132.862 87.3246 133.241 86.2298 133.241 84.8271C133.241 83.4245 132.862 82.3296 132.108 81.5452C131.353 80.7608 130.356 80.3659 129.123 80.3659C127.889 80.3659 126.895 80.7581 126.138 81.5452Z" fill="#F27121"/>
<path d="M139.878 74.3032V90.7754H137.819V74.3032H139.878Z" fill="#F27121"/>
<path d="M143.228 81.3491C143.784 80.404 144.506 79.6986 145.391 79.2329C146.276 78.7672 147.221 78.5357 148.229 78.5357C149.923 78.5357 151.233 79.0913 152.164 80.2052C152.241 80.3114 152.325 80.3659 152.415 80.3659C152.521 80.3659 152.576 80.306 152.576 80.1834V74.3032H154.635V90.7754H152.576V89.4708C152.576 89.3483 152.521 89.2883 152.415 89.2883C152.322 89.2883 152.241 89.3428 152.164 89.449C151.233 90.563 149.923 91.1186 148.229 91.1186C147.221 91.1186 146.276 90.8871 145.391 90.4214C144.506 89.9556 143.787 89.2502 143.228 88.3051C142.673 87.3601 142.392 86.1998 142.392 84.8271C142.392 83.4544 142.673 82.2969 143.228 81.3491ZM145.584 88.1118C146.339 88.8961 147.335 89.2911 148.569 89.2911C149.803 89.2911 150.8 88.8989 151.554 88.1118C152.309 87.3274 152.687 86.2325 152.687 84.8298C152.687 83.4272 152.309 82.3323 151.554 81.5479C150.8 80.7635 149.803 80.3686 148.569 80.3686C147.335 80.3686 146.339 80.7608 145.584 81.5479C144.83 82.3323 144.451 83.4272 144.451 84.8298C144.454 86.2325 144.83 87.3246 145.584 88.1118Z" fill="#F27121"/>
<path d="M68.1636 97.6661C68.4441 97.1895 68.8063 96.8354 69.2503 96.6012C69.6942 96.367 70.1708 96.2499 70.6774 96.2499C71.5272 96.2499 72.189 96.5304 72.6548 97.0887C72.6929 97.1432 72.7365 97.1704 72.78 97.1704C72.8345 97.1704 72.859 97.1405 72.859 97.0778V94.1255H73.894V102.405H72.859V101.749C72.859 101.689 72.8318 101.656 72.78 101.656C72.7337 101.656 72.6929 101.683 72.6548 101.738C72.1863 102.299 71.5272 102.577 70.6774 102.577C70.1708 102.577 69.6969 102.46 69.2503 102.225C68.8036 101.991 68.4441 101.637 68.1636 101.16C67.883 100.684 67.7441 100.104 67.7441 99.412C67.7441 98.7256 67.8858 98.1428 68.1636 97.6661ZM69.3483 101.065C69.7269 101.46 70.228 101.656 70.849 101.656C71.47 101.656 71.9711 101.46 72.3497 101.065C72.7283 100.67 72.9189 100.12 72.9189 99.4147C72.9189 98.7093 72.7283 98.1591 72.3497 97.7642C71.9711 97.3693 71.47 97.1732 70.849 97.1732C70.228 97.1732 69.7269 97.372 69.3483 97.7642C68.9698 98.1591 68.7791 98.7093 68.7791 99.4147C68.7791 100.12 68.9698 100.67 69.3483 101.065Z" fill="#939497"/>
<path d="M76.7731 94.1255V95.5063H75.2778V94.1255H76.7731ZM76.5443 96.4242V102.405H75.5093V96.4242H76.5443Z" fill="#939497"/>
<path d="M78.8425 102.601C78.9024 102.985 79.0822 103.287 79.3763 103.511C79.6705 103.734 80.0708 103.843 80.5774 103.843C81.2665 103.843 81.803 103.666 82.1816 103.315C82.5602 102.963 82.7508 102.468 82.7508 101.83V101.416C82.7508 101.37 82.729 101.348 82.6827 101.348C82.6446 101.348 82.6092 101.367 82.5793 101.405C82.1571 101.958 81.5062 102.233 80.6237 102.233C80.109 102.233 79.6351 102.116 79.1966 101.882C78.7581 101.648 78.4095 101.307 78.1453 100.858C77.8811 100.409 77.7476 99.8721 77.7476 99.2429C77.7476 98.6138 77.8811 98.0745 78.1453 97.6278C78.4095 97.1785 78.7608 96.838 79.1966 96.6038C79.6323 96.3696 80.109 96.2524 80.6237 96.2524C81.4599 96.2524 82.1162 96.533 82.5901 97.0913C82.6582 97.1757 82.7209 97.2166 82.7753 97.2166C82.8053 97.2166 82.8298 97.2057 82.8434 97.1866C82.8571 97.1676 82.8707 97.1431 82.8788 97.1131L83.0967 96.424H83.7858V101.773C83.7858 102.715 83.5025 103.451 82.936 103.977C82.3695 104.502 81.5797 104.764 80.5665 104.764C79.7004 104.764 79.0195 104.565 78.5238 104.173C78.0282 103.778 77.7503 103.255 77.6904 102.604H78.8425V102.601ZM79.0549 100.351C79.2347 100.662 79.4771 100.899 79.7849 101.065C80.0899 101.231 80.4276 101.313 80.798 101.313C81.1684 101.313 81.5034 101.231 81.8112 101.065C82.119 100.899 82.3614 100.662 82.5411 100.351C82.7209 100.041 82.8108 99.6705 82.8108 99.2429C82.8108 98.8126 82.7209 98.4422 82.5411 98.1317C82.3614 97.8212 82.1162 97.5843 81.8112 97.4181C81.5062 97.252 81.1684 97.1703 80.798 97.1703C80.4276 97.1703 80.0926 97.252 79.7849 97.4181C79.4771 97.5843 79.2347 97.8212 79.0549 98.1317C78.8752 98.4422 78.7853 98.8126 78.7853 99.2429C78.7853 99.6705 78.8752 100.041 79.0549 100.351Z" fill="#939497"/>
<path d="M86.6647 94.1255V95.5063H85.1694V94.1255H86.6647ZM86.4332 96.4242V102.405H85.3982V96.4242H86.4332Z" fill="#939497"/>
<path d="M87.4114 96.4241H88.7923V94.8145H89.8272V96.4241H91.3797V97.3447H89.8272V100.164V101.313C89.8272 101.367 89.8436 101.408 89.8735 101.438C89.9035 101.468 89.9471 101.484 89.9988 101.484H91.1482H91.5512V102.405H90.7451C90.086 102.405 89.5957 102.244 89.2716 101.923C88.9502 101.602 88.7895 101.111 88.7895 100.45V97.3447H87.4087V96.4241H87.4114Z" fill="#939497"/>
<path d="M92.9156 99.3739C93.2806 99.0715 93.8253 98.9109 94.5552 98.8972L96.7395 98.8509V98.6085C96.7395 98.1564 96.6088 97.8024 96.3473 97.5518C96.0858 97.3012 95.68 97.1732 95.1271 97.1732C94.6369 97.1732 94.2638 97.2794 94.0105 97.4946C93.7572 97.7098 93.6319 97.9848 93.6319 98.3226H92.5398C92.5615 97.9304 92.6787 97.579 92.8856 97.2658C93.0926 96.9526 93.3868 96.7048 93.7708 96.525C94.1548 96.3452 94.6069 96.2554 95.1271 96.2554C96.0014 96.2554 96.6605 96.4651 97.1045 96.8872C97.5484 97.3094 97.7717 97.9031 97.7717 98.6685V102.405H96.7368V101.784C96.7368 101.738 96.715 101.716 96.6687 101.716C96.6306 101.716 96.5924 101.738 96.5543 101.784C96.1403 102.313 95.5302 102.577 94.7268 102.577C93.9914 102.577 93.414 102.397 92.9946 102.035C92.5752 101.675 92.3682 101.204 92.3682 100.621C92.3682 100.093 92.5506 99.6789 92.9156 99.3739ZM93.7844 101.381C94.0377 101.566 94.3891 101.656 94.8412 101.656C95.4322 101.656 95.8952 101.496 96.2329 101.174C96.5706 100.853 96.7395 100.382 96.7395 99.7606V99.7143L94.5552 99.7606C94.163 99.7688 93.8743 99.8478 93.6864 99.9976C93.4985 100.147 93.4059 100.357 93.4059 100.624C93.4031 100.945 93.5311 101.199 93.7844 101.381Z" fill="#939497"/>
<path d="M100.362 94.1255V102.405H99.3267V94.1255H100.362Z" fill="#939497"/>
</g>
<defs>
<filter id="filter0_d_1068_2843" x="0.399902" y="0" width="186" height="186" filterUnits="userSpaceOnUse" color-interpolation-filters="sRGB">
<feFlood flood-opacity="0" result="BackgroundImageFix"/>
<feColorMatrix in="SourceAlpha" type="matrix" values="0 0 0 0 0 0 0 0 0 0 0 0 0 0 0 0 0 0 127 0" result="hardAlpha"/>
<feOffset dy="4"/>
<feGaussianBlur stdDeviation="8.5"/>
<feComposite in2="hardAlpha" operator="out"/>
<feColorMatrix type="matrix" values="0 0 0 0 0.732194 0 0 0 0 0.732194 0 0 0 0 0.732194 0 0 0 0.25 0"/>
<feBlend mode="normal" in2="BackgroundImageFix" result="effect1_dropShadow_1068_2843"/>
<feBlend mode="normal" in="SourceGraphic" in2="effect1_dropShadow_1068_2843" result="shape"/>
</filter>
</defs>
</svg>
