<svg width="186" height="186" viewBox="0 0 186 186" fill="none" xmlns="http://www.w3.org/2000/svg">
<g filter="url(#filter0_d_1068_2601)">
<rect x="17" y="13" width="152" height="152" rx="10" fill="white"/>
<g clip-path="url(#clip0_1068_2601)">
<rect width="137" height="63" transform="translate(25 57.0332)" fill="white"/>
<path d="M57.2196 89.5356V98.3679H62.4826C63.7351 98.3679 64.7719 97.9324 65.5925 97.0613C66.435 96.1904 66.8569 95.1535 66.8569 93.9524C66.8569 92.7745 66.435 91.7508 65.5925 90.8778C64.7719 89.9834 63.7351 89.5356 62.4826 89.5356H57.2196ZM57.2196 101.478V111.724H54.0757V86.4272H62.414C64.533 86.4272 66.3331 87.1579 67.814 88.6177C69.3179 90.0776 70.0693 91.8561 70.0693 93.9524C70.0693 96.096 69.3179 97.8849 67.814 99.3214C66.3558 100.76 64.5555 101.478 62.414 101.478H57.2196Z" fill="#6F7173"/>
<path d="M74.4092 106.42C74.4092 107.268 74.7556 107.976 75.4511 108.541C76.1458 109.107 76.9602 109.389 77.8951 109.389C79.2161 109.389 80.3952 108.882 81.4314 107.87C82.4683 106.858 82.987 105.668 82.987 104.301C82.0067 103.5 80.6404 103.101 78.8862 103.101C77.6097 103.101 76.5446 103.417 75.69 104.054C74.836 104.69 74.4092 105.48 74.4092 106.42ZM78.4755 93.8444C80.7994 93.8444 82.6337 94.4859 83.9779 95.7684C85.3223 97.0535 85.9945 98.8137 85.9945 101.051V111.721H82.987V109.318H82.8506C81.5508 111.297 79.8198 112.285 77.6556 112.285C75.8101 112.285 74.2659 111.721 73.0252 110.59C71.7822 109.459 71.1621 108.045 71.1621 106.351C71.1621 104.561 71.8168 103.134 73.127 102.075C74.4375 101.015 76.1861 100.486 78.3736 100.486C80.2412 100.486 81.7791 100.838 82.987 101.545V100.803C82.987 99.673 82.5545 98.713 81.6886 97.9244C80.8228 97.1347 79.8085 96.7401 78.6458 96.7401C76.8923 96.7401 75.502 97.5053 74.4777 99.036L71.7092 97.2355C73.2346 94.9734 75.4907 93.8444 78.4755 93.8444Z" fill="#6F7173"/>
<path d="M109.168 112.008C107.8 112.008 106.667 111.573 105.768 110.702C104.867 109.831 104.405 108.617 104.383 107.063V97.383H101.443V94.4139H104.383V89.115H107.527V94.4139H111.627V97.383H107.527V106.004C107.527 107.157 107.743 107.941 108.176 108.352C108.609 108.765 109.098 108.971 109.646 108.971C109.897 108.971 110.142 108.942 110.381 108.882C110.62 108.823 110.841 108.747 111.048 108.652L112.038 111.55C111.217 111.856 110.262 112.008 109.168 112.008ZM89.5503 94.4139H92.5583V97.2414H92.6942C93.6292 95.0268 95.5546 93.9199 98.4708 93.9199L99.1197 93.9901V97.383L97.7194 97.2414C96.2606 97.2414 95.0585 97.7062 94.1134 98.6375C93.1677 99.5671 92.6942 100.75 92.6942 102.187V111.727H89.5503V94.4139Z" fill="#6F7173"/>
<path d="M114.806 94.4107H117.814V96.8144H117.951C118.428 95.9661 119.164 95.2589 120.155 94.6934C121.146 94.1278 122.176 93.8471 123.248 93.8471C125.297 93.8471 126.876 94.4528 127.981 95.6652C129.086 96.8793 129.638 98.6032 129.638 100.841V111.724H126.494V101.054C126.427 98.2261 125.048 96.8144 122.36 96.8144C121.105 96.8144 120.057 97.3376 119.214 98.3854C118.372 99.4339 117.951 100.688 117.951 102.149V111.724H114.806V94.4107Z" fill="#6F7173"/>
<path d="M135.822 100.98H145.427C145.335 99.779 144.862 98.7844 144.007 97.9947C143.154 97.2062 142.008 96.8117 140.572 96.8117C139.388 96.8117 138.368 97.1886 137.515 97.9407C136.659 98.6967 136.095 99.7088 135.822 100.98ZM140.846 112.285C138.385 112.285 136.358 111.414 134.764 109.67C133.168 107.928 132.371 105.727 132.371 103.065C132.371 100.427 133.145 98.2299 134.695 96.4749C136.244 94.7218 138.225 93.8444 140.641 93.8444C143.125 93.8444 145.101 94.6731 146.571 96.334C148.04 97.9947 148.775 100.322 148.775 103.312L148.741 103.666H135.582C135.628 105.361 136.175 106.728 137.224 107.764C138.271 108.801 139.525 109.318 140.982 109.318C142.988 109.318 144.56 108.282 145.7 106.209L148.501 107.623C147.749 109.082 146.707 110.225 145.374 111.048C144.041 111.874 142.532 112.285 140.846 112.285Z" fill="#6F7173"/>
<path d="M154.788 111.724H151.643V94.4107H154.652V97.2382H154.788C155.106 96.3183 155.761 95.5371 156.753 94.8884C157.744 94.2403 158.718 93.9166 159.676 93.9166C160.586 93.9166 161.361 94.0583 161.998 94.3411L161.042 97.4852C160.655 97.3214 160.039 97.2382 159.196 97.2382C158.011 97.2382 156.98 97.7321 156.104 98.7222C155.227 99.7114 154.788 100.865 154.788 102.183V111.724Z" fill="#6F7173"/>
<path d="M61.1977 71.6451V73.8513H66.3052C66.1405 75.2442 65.5815 76.3279 64.6289 77.1033C63.7009 77.8651 62.5571 78.2453 61.1977 78.2453C59.6226 78.2453 58.294 77.6739 57.2144 76.5312C56.1341 75.4015 55.5939 74.0164 55.5939 72.3745C55.5939 70.7319 56.1341 69.3468 57.2144 68.2164C58.294 67.0736 59.6226 66.5023 61.1977 66.5023C62.6715 66.5023 63.9549 67.0281 65.0477 68.0785L66.5536 66.5218C65.0414 65.0378 63.2569 64.2955 61.1977 64.2955C59.7998 64.2955 58.4788 64.6634 57.2325 65.3985C56.0008 66.1214 55.0281 67.1133 54.3169 68.3743C53.6183 69.6094 53.2681 70.9424 53.2681 72.3745C53.2681 73.8188 53.6183 75.1584 54.3169 76.3934C55.0155 77.6414 55.9883 78.6262 57.2325 79.3491C58.4788 80.0849 59.7998 80.4521 61.1977 80.4521C63.3072 80.4521 65.054 79.7696 66.4391 78.4032C67.8112 77.0499 68.4977 75.2579 68.4977 73.0244C68.4977 72.4993 68.4594 72.0383 68.3835 71.6451H61.1977Z" fill="#4F77C4"/>
<path d="M76.3121 77.4972C75.7651 78.1017 75.0986 78.4032 74.3114 78.4032C73.5103 78.4032 72.837 78.1017 72.2905 77.4972C71.744 76.8926 71.4705 76.1445 71.4705 75.2507C71.4705 74.3317 71.744 73.5822 72.2905 73.005C72.837 72.4004 73.5103 72.0982 74.3114 72.0982C75.1111 72.0982 75.7853 72.4004 76.3311 73.005C76.8774 73.5822 77.1509 74.3317 77.1509 75.2507C77.1509 76.1302 76.8711 76.8797 76.3121 77.4972ZM74.3114 70.0487C72.8746 70.0487 71.6743 70.5485 70.7085 71.5463C69.7427 72.5317 69.2598 73.7668 69.2598 75.2507C69.2598 76.7094 69.7489 77.9431 70.7273 78.9552C71.6931 79.9536 72.8878 80.4521 74.3114 80.4521C75.7337 80.4521 76.9283 79.9536 77.8947 78.9552C78.8726 77.9431 79.3618 76.7094 79.3618 75.2507C79.3618 73.7668 78.8726 72.5317 77.8947 71.5463C76.9283 70.5485 75.7337 70.0487 74.3114 70.0487Z" fill="#EE282A"/>
<path d="M102.464 80.1367H104.675V64.8472H102.464V80.1367Z" fill="#1DAF47"/>
<path d="M87.3287 77.4972C86.7822 78.1017 86.1152 78.4032 85.3279 78.4032C84.5269 78.4032 83.8534 78.1017 83.3069 77.4972C82.7606 76.8926 82.4884 76.1445 82.4884 75.2507C82.4884 74.3317 82.7606 73.5822 83.3069 73.005C83.8534 72.4004 84.5269 72.0982 85.3279 72.0982C86.1277 72.0982 86.8017 72.4004 87.3475 73.005C87.894 73.5822 88.1675 74.3317 88.1675 75.2507C88.1675 76.1302 87.8877 76.8797 87.3287 77.4972ZM85.3279 70.0487C83.8917 70.0487 82.6907 70.5485 81.7256 71.5463C80.7598 72.5317 80.2769 73.7668 80.2769 75.2507C80.2769 76.7094 80.766 77.9431 81.7444 78.9552C82.7097 79.9536 83.9043 80.4521 85.3279 80.4521C86.7502 80.4521 87.9449 79.9536 88.9113 78.9552C89.8897 77.9431 90.3782 76.7094 90.3782 75.2507C90.3782 73.7668 89.8897 72.5317 88.9113 71.5463C87.9449 70.5485 86.7502 70.0487 85.3279 70.0487Z" fill="#F9AF0B"/>
<path d="M108.696 72.9256C109.254 72.3485 109.877 72.0591 110.564 72.0591C110.995 72.0591 111.383 72.1606 111.726 72.3647C112.069 72.5675 112.304 72.8341 112.431 73.1622L107.934 75.0928C107.907 74.2134 108.162 73.4905 108.696 72.9256ZM110.735 78.4032C109.63 78.4032 108.815 77.8781 108.295 76.8271L115.023 73.9506L114.796 73.3592C114.616 72.873 114.385 72.4271 114.099 72.0189C113.813 71.612 113.486 71.2609 113.118 70.9652C112.749 70.6695 112.342 70.4425 111.898 70.2853C111.454 70.1274 110.983 70.0487 110.487 70.0487C109.141 70.0487 108.009 70.5414 107.094 71.5268C106.192 72.5252 105.741 73.7668 105.741 75.2507C105.741 76.7224 106.217 77.9574 107.172 78.9552C108.124 79.9536 109.312 80.4521 110.735 80.4521C112.514 80.4521 113.912 79.6845 114.929 78.1471L113.212 76.9648C112.59 77.9235 111.765 78.4032 110.735 78.4032Z" fill="#EE282A"/>
<path d="M98.213 77.515C97.6911 78.1059 97.0561 78.4016 96.3065 78.4016C95.5187 78.4016 94.8521 78.1001 94.3058 77.4956C93.7719 76.891 93.5047 76.1494 93.5047 75.2686C93.5047 74.3755 93.7775 73.6274 94.3247 73.0228C94.8837 72.4053 95.5438 72.0966 96.3065 72.0966C97.0687 72.0966 97.7037 72.3988 98.213 73.0033C98.7337 73.6209 98.9947 74.3755 98.9947 75.2686C98.9947 76.1494 98.7337 76.8975 98.213 77.515ZM98.8417 71.21H98.7651C98.1301 70.4344 97.2478 70.047 96.1161 70.047C94.8201 70.047 93.689 70.5599 92.7238 71.5844C91.7706 72.6088 91.2939 73.838 91.2939 75.2686C91.2939 76.687 91.7706 77.9089 92.7238 78.9341C93.7022 79.9455 94.8327 80.4505 96.1161 80.4505C97.2478 80.4505 98.1301 80.0567 98.7651 79.2681H98.8417V79.8006C98.8417 81.9806 97.9458 83.0714 96.1537 83.0714C95.5828 83.0714 95.0748 82.9003 94.6295 82.5592C94.1851 82.2172 93.848 81.7706 93.6198 81.2195L91.6938 82.0463C91.885 82.5064 92.1265 82.9238 92.4188 83.2975C92.7111 83.6719 93.0508 83.9944 93.438 84.2641C93.8253 84.5325 94.2485 84.7425 94.7063 84.8946C95.1635 85.0447 95.6464 85.1201 96.1537 85.1201C97.6535 85.1201 98.8261 84.6502 99.6706 83.7122C100.516 82.773 100.939 81.4366 100.939 79.7024V70.3624H98.8417V71.21Z" fill="#4F77C4"/>
<path d="M25.0005 120.037H41.0388V57.0317H25.0005V120.037Z" fill="#4F77C4"/>
</g>
</g>
<defs>
<filter id="filter0_d_1068_2601" x="0" y="0" width="186" height="186" filterUnits="userSpaceOnUse" color-interpolation-filters="sRGB">
<feFlood flood-opacity="0" result="BackgroundImageFix"/>
<feColorMatrix in="SourceAlpha" type="matrix" values="0 0 0 0 0 0 0 0 0 0 0 0 0 0 0 0 0 0 127 0" result="hardAlpha"/>
<feOffset dy="4"/>
<feGaussianBlur stdDeviation="8.5"/>
<feComposite in2="hardAlpha" operator="out"/>
<feColorMatrix type="matrix" values="0 0 0 0 0.732194 0 0 0 0 0.732194 0 0 0 0 0.732194 0 0 0 0.25 0"/>
<feBlend mode="normal" in2="BackgroundImageFix" result="effect1_dropShadow_1068_2601"/>
<feBlend mode="normal" in="SourceGraphic" in2="effect1_dropShadow_1068_2601" result="shape"/>
</filter>
<clipPath id="clip0_1068_2601">
<rect width="137" height="63" fill="white" transform="translate(25 57.0332)"/>
</clipPath>
</defs>
</svg>
