<svg width="36" height="36" viewBox="0 0 36 36" fill="none" xmlns="http://www.w3.org/2000/svg">
<path d="M15.75 11.25H12.375V3.37498H10.125V11.25H6.75V3.37498H4.5V12.0937C4.5 15.2933 6.93668 17.9573 10.125 18.4721V33.1875H12.375V18.4721C15.5633 17.9573 18 15.2933 18 12.0937V3.37498H15.75V11.25ZM11.25 16.3125C9.29454 16.3125 7.62722 15.1367 7.00805 13.5H15.492C14.8728 15.1367 13.2055 16.3125 11.25 16.3125ZM29.0789 2.82563C26.7774 3.17969 24.6785 4.34592 23.1623 6.11329C21.646 7.88065 20.8125 10.1324 20.8125 12.461V24.1875H28.125V33.1875H30.375V2.62622L29.0789 2.82563ZM28.125 21.9375H23.0625V12.461C23.0548 10.8967 23.5396 9.36954 24.4482 8.09607C25.3569 6.8226 26.6432 5.86736 28.125 5.36574V21.9375Z" fill="#434343"/>
</svg>
