<svg width="61" height="60" viewBox="0 0 61 60" fill="none" xmlns="http://www.w3.org/2000/svg">
<g clip-path="url(#clip0_962_78560)">
<path d="M58.9333 30.9445L55.5054 28.2903L51.1354 19.335C50.6684 18.378 49.942 17.5714 49.0389 17.0072C48.1358 16.443 47.0923 16.1439 46.0274 16.1439H23.9321C23.0065 16.1438 22.0975 16.3891 21.2975 16.8547C20.4975 17.3202 19.8352 17.9894 19.3779 18.7942L14.0878 28.1048C8.92084 28.2444 3.99908 31.61 3.99908 31.61C2.12209 32.4468 1.97748 34.8817 1.97748 36.9368C1.97748 37.4392 2.05518 37.8465 1.55279 37.8465C1.31152 37.8465 1.08013 37.9424 0.909519 38.113C0.738912 38.2836 0.643066 38.515 0.643066 38.7562V42.0051C0.643066 42.2464 0.738912 42.4778 0.909519 42.6484C1.08013 42.819 1.31152 42.9149 1.55279 42.9149H56.5189C58.6969 42.9149 60.4625 41.1492 60.4625 38.9713V34.0626C60.4625 33.4607 60.3247 32.8667 60.0596 32.3262C59.7946 31.7857 59.4093 31.3131 58.9333 30.9445Z" fill="#00B1FF"/>
<path d="M6.94043 41.9126C6.94043 37.3418 10.6458 33.6365 15.2166 33.6365C19.7873 33.6365 23.4927 37.3418 23.4927 41.9126V42.9149H6.94043V41.9126ZM37.2511 42.9149H53.8034V41.9126C53.8034 37.3418 50.098 33.6365 45.5272 33.6365C40.9564 33.6365 37.2511 37.3418 37.2511 41.9126V42.9149Z" fill="#0074A8"/>
<path d="M22.08 42.0945C22.08 45.7925 19.0822 48.7903 15.3842 48.7903C11.6863 48.7903 8.68848 45.7925 8.68848 42.0945C8.68848 38.3966 11.6863 35.3988 15.3842 35.3988C19.0822 35.3988 22.08 38.3966 22.08 42.0945ZM45.6949 35.3988C41.9969 35.3988 38.9991 38.3966 38.9991 42.0945C38.9991 45.7925 41.9969 48.7903 45.6949 48.7903C49.3929 48.7903 52.3906 45.7925 52.3906 42.0945C52.3906 38.3966 49.3929 35.3988 45.6949 35.3988Z" fill="#2B3B47"/>
<path d="M19.773 42.0945C19.773 44.5183 17.8081 46.4832 15.3843 46.4832C12.9605 46.4832 10.9956 44.5183 10.9956 42.0945C10.9956 39.6708 12.9605 37.7059 15.3843 37.7059C17.8081 37.7059 19.773 39.6709 19.773 42.0945ZM45.6949 37.706C43.2712 37.706 41.3063 39.6709 41.3063 42.0947C41.3063 44.5185 43.2712 46.4833 45.6949 46.4833C48.1187 46.4833 50.0836 44.5185 50.0836 42.0947C50.0836 39.6709 48.1187 37.706 45.6949 37.706Z" fill="#9BA5A8"/>
<path d="M19.806 27.1896L50.3132 27.2753C50.9379 27.2771 51.3479 26.6229 51.0739 26.0615L48.664 21.1234C48.0409 19.8465 46.7204 19.0215 45.2996 19.0215H24.9189C24.3361 19.0215 23.7638 19.176 23.2601 19.4691C22.7564 19.7622 22.3394 20.1836 22.0515 20.6903L19.0748 25.9292C18.7557 26.4906 19.1601 27.1879 19.806 27.1896Z" fill="white"/>
<path d="M36.4331 16.9996H39.7069V28.9047H36.4331V16.9996Z" fill="#00B1FF"/>
<path d="M16.9217 42.0946C16.9217 42.9436 16.2335 43.6318 15.3844 43.6318C14.5354 43.6318 13.8472 42.9436 13.8472 42.0946C13.8472 41.2456 14.5354 40.5573 15.3844 40.5573C16.2335 40.5573 16.9217 41.2456 16.9217 42.0946ZM45.695 40.5573C44.846 40.5573 44.1577 41.2456 44.1577 42.0946C44.1577 42.9436 44.846 43.6318 45.695 43.6318C46.544 43.6318 47.2322 42.9436 47.2322 42.0946C47.2324 41.2456 46.544 40.5573 45.695 40.5573Z" fill="#E5E4DF"/>
<path d="M60.4528 37.6143H59.5495C58.5733 37.6143 57.9642 36.8229 57.9642 35.8467C57.9642 34.8706 58.5733 34.0792 59.5495 34.0792H60.4528V37.6143ZM1.94668 37.3717H2.97125C3.94742 37.3717 4.55656 36.5803 4.55656 35.6041C4.55656 34.628 3.94742 33.8366 2.97125 33.8366H2.27843C1.90531 34.5606 1.94668 37.3717 1.94668 37.3717Z" fill="#FFD469"/>
<path d="M24.7363 25.1894V27.4696C24.7363 28.1371 23.8155 28.5299 23.1368 28.153C22.6629 27.8898 22.1821 27.572 21.8461 27.2262L19.5432 27.2238C18.9392 27.2229 18.5719 26.5582 18.8924 26.0463L21.1979 22.1932L22.1787 25.1621C22.46 24.9301 22.7882 24.7121 23.1145 24.519C23.789 24.1197 24.7363 24.5115 24.7363 25.1894ZM50.883 27.2685C51.3919 27.267 51.7236 26.7332 51.4994 26.2763L48.284 19.7209C48.1871 19.5234 48.0368 19.357 47.8501 19.2406C47.6634 19.1243 47.4478 19.0626 47.2278 19.0626H45.695V27.2837L50.883 27.2685Z" fill="#2B3B47"/>
</g>
<defs>
<clipPath id="clip0_962_78560">
<rect width="60" height="60" fill="white" transform="translate(0.5)"/>
</clipPath>
</defs>
</svg>
