<svg width="60" height="60" viewBox="0 0 60 60" fill="none" xmlns="http://www.w3.org/2000/svg">
<path d="M24.375 5.625H43.125V50.625H24.375V5.625Z" fill="#3E4347"/>
<path d="M15 1.875H45V5.625H15V1.875Z" fill="#DAE3EA"/>
<path d="M3.75 5.625H13.125V48.75H3.75V5.625Z" fill="#3E4347"/>
<path d="M24.375 48.75H50.625V56.25H24.375V48.75Z" fill="#B2C1C0"/>
<path d="M28.125 48.75H31.875V56.25H28.125V48.75ZM35.625 48.75H39.375V56.25H35.625V48.75ZM43.125 48.75H46.875V56.25H43.125V48.75ZM43.125 39.375H52.5V43.125H43.125V39.375ZM43.125 30H52.5V33.75H43.125V30ZM43.125 20.625H52.5V24.375H43.125V20.625ZM43.125 11.25H52.5V15H43.125V11.25ZM35.625 39.375H39.375V43.125H35.625V39.375ZM35.625 30H39.375V33.75H35.625V30ZM35.625 20.625H39.375V24.375H35.625V20.625ZM35.625 11.25H39.375V15H35.625V11.25ZM28.125 39.375H31.875V43.125H28.125V39.375ZM28.125 30H31.875V33.75H28.125V30ZM28.125 20.625H31.875V24.375H28.125V20.625ZM28.125 11.25H31.875V15H28.125V11.25Z" fill="#B4D7EE"/>
<path d="M24.375 43.125H54.375V48.75H24.375V43.125ZM24.375 33.75H54.375V39.375H24.375V33.75ZM24.375 24.375H54.375V30H24.375V24.375ZM24.375 15H54.375V20.625H24.375V15ZM24.375 5.625H54.375V11.25H24.375V5.625Z" fill="#3E4347"/>
<path d="M13.125 7.5H24.375V48.75H13.125V7.5ZM3.75 48.75H24.375V58.125H3.75V48.75Z" fill="#B4D7EE"/>
<path d="M1.875 46.875H24.375V48.75H1.875V46.875Z" fill="#DAE3EA"/>
<path d="M13.125 35.625H24.375V37.5H13.125V35.625ZM13.125 26.25H24.375V28.125H13.125V26.25ZM13.125 16.875H24.375V18.75H13.125V16.875ZM13.125 9.375H24.375V11.25H13.125V9.375Z" fill="#D6EEF0"/>
<path d="M13.125 5.625H24.375V7.5H13.125V5.625Z" fill="#F5F5F5"/>
<path d="M3.75 48.75H5.625V58.125H3.75V48.75Z" fill="#B2C1C0"/>
<path d="M9.375 48.75H10.5938V58.125H9.375V48.75Z" fill="#F5F5F5"/>
<path d="M9.375 48.75H20.625V49.7812H9.375V48.75ZM9.375 57.0938H20.625V58.125H9.375V57.0938Z" fill="#F5F5F5"/>
<path d="M14.3438 48.75H15.5625V58.125H14.3438V48.75ZM19.4062 48.75H20.625V58.125H19.4062V48.75Z" fill="#F5F5F5"/>
<path d="M24.375 54.375H58.125V56.25H24.375V54.375Z" fill="#83BF4F"/>
<path d="M22.5 56.25H58.125V58.125H22.5V56.25Z" fill="#DAE3EA"/>
<path d="M57.1875 54.1875C57.375 53.9062 57.4688 53.5312 57.4688 53.0625C57.4688 51.8437 56.5313 50.9062 55.3125 50.9062H55.2188V50.625C55.2188 50.0625 54.75 49.5 54.0938 49.5C53.8125 49.5 53.625 49.5937 53.4375 49.7812C53.3438 49.0312 52.5938 48.4688 51.8438 48.4688C50.9063 48.4688 50.25 49.2187 50.25 50.1562V50.5313C49.9688 50.3438 49.5938 50.1562 49.2188 50.1562C48.5625 50.1562 48 50.5312 47.7188 51.0937C47.5313 51 47.25 51 46.9687 51C45.75 51 44.8125 51.9375 44.8125 53.1562C44.8125 53.625 45 54.0937 45.2813 54.4687C45 54.75 44.8125 55.125 44.8125 55.5937C44.8125 56.5312 45.5625 57.2812 46.4063 57.2812H55.0313C55.3125 57.5625 55.7813 57.75 56.1563 57.75C57.1875 57.75 58.0313 56.9062 58.0313 55.875C58.125 55.125 57.75 54.5625 57.1875 54.1875Z" fill="#83BF4F"/>
<path d="M48.4688 55.875C48.4688 56.4375 48.9375 55.5937 49.5938 55.5937C50.1563 55.5937 50.7187 56.4375 50.7187 55.875C50.7187 55.3125 50.25 54.75 49.5938 54.75C48.9375 54.75 48.4688 55.3125 48.4688 55.875ZM51.6562 54C51.6562 54.2812 51.9375 54 52.2187 54C52.5 54 52.7812 54.2812 52.7812 54C52.7812 53.7187 52.5 53.4375 52.2187 53.4375C51.9375 53.4375 51.6562 53.625 51.6562 54ZM55.6875 55.9688C55.6875 56.25 55.9687 55.9688 56.25 55.9688C56.5312 55.9688 56.8125 56.25 56.8125 55.9688C56.8125 55.6875 56.5312 55.4062 56.25 55.4062C55.9687 55.5 55.6875 55.6875 55.6875 55.9688Z" fill="#699635"/>
<path d="M53.3438 52.5C53.3438 52.7812 53.625 52.4062 53.9062 52.4062C54.1875 52.4062 54.4687 52.7812 54.4687 52.5C54.4687 52.2187 54.1875 51.9375 53.9062 51.9375C53.625 51.9375 53.3438 52.125 53.3438 52.5ZM55.2188 54.0937C55.2188 54.375 55.5 54 55.7812 54C56.0625 54 56.3437 54.375 56.3437 54.0937C56.3437 53.8125 56.0625 53.5312 55.7812 53.5312C55.4062 53.5312 55.2188 53.7187 55.2188 54.0937Z" fill="#B5F478"/>
<path d="M46.125 53.0625C46.125 53.7187 46.5938 52.6875 47.25 52.6875C47.9063 52.6875 48.375 53.625 48.375 53.0625C48.375 52.5 47.9063 51.9375 47.25 51.9375C46.5938 51.9375 46.125 52.4062 46.125 53.0625ZM46.0312 55.5937C46.0312 55.875 46.3125 55.5937 46.5938 55.5937C46.875 55.5937 47.1563 55.875 47.1563 55.5937C47.1563 55.3125 46.875 55.0312 46.5938 55.0312C46.3125 55.125 46.0312 55.3125 46.0312 55.5937Z" fill="#699635"/>
<path d="M50.9062 51.2812C50.9062 51.6562 51.1875 51.0937 51.6562 51.0937C52.0312 51.0937 52.4063 51.75 52.4063 51.2812C52.4063 50.9062 52.125 50.5312 51.6562 50.5312C51.2812 50.5312 50.9062 50.8125 50.9062 51.2812Z" fill="#B5F478"/>
<path d="M52.9688 56.1563C52.9688 56.5313 53.25 55.9688 53.7187 55.9688C54.0937 55.9688 54.4687 56.625 54.4687 56.1563C54.4687 55.7813 54.1875 55.4062 53.7187 55.4062C53.25 55.4062 52.9688 55.6875 52.9688 56.1563Z" fill="#699635"/>
</svg>
