<svg width="60" height="60" viewBox="0 0 60 60" fill="none" xmlns="http://www.w3.org/2000/svg">
<g clip-path="url(#clip0_962_78396)">
<path d="M5 26.6667H55V56.6667H5V26.6667Z" fill="#66757F"/>
<path d="M3.33333 56.6666H56.6667C57.5507 56.6666 58.3986 57.0178 59.0237 57.6429C59.6488 58.2681 60 59.1159 60 60H0C0 59.1159 0.35119 58.2681 0.976311 57.6429C1.60143 57.0178 2.44928 56.6666 3.33333 56.6666Z" fill="#CCD6DD"/>
<path d="M30 38.3333C28.6739 38.3333 27.4021 38.8601 26.4645 39.7978C25.5268 40.7355 25 42.0072 25 43.3333V53.3333H35V43.3333C35 42.0072 34.4732 40.7355 33.5355 39.7978C32.5979 38.8601 31.3261 38.3333 30 38.3333Z" fill="#292F33"/>
<path d="M5 35H11.6667V53.3333H5V35ZM15 35H21.6667V53.3333H15V35ZM48.3333 35H55V53.3333H48.3333V35ZM38.3333 35H45V53.3333H38.3333V35Z" fill="#CCD6DD"/>
<path d="M3.3335 53.3333H56.6668V56.6666H3.3335V53.3333Z" fill="#AAB8C2"/>
<path d="M60 18.3333L30 0L0 18.3333H60Z" fill="#66757F"/>
<path d="M30.0002 4L3.3335 20V26.6667H56.6668V20L30.0002 4Z" fill="#CCD6DD"/>
<path d="M5 31.6667H11.6667V35H5V31.6667ZM15 31.6667H21.6667V35H15V31.6667ZM38.3333 31.6667H45V35H38.3333V31.6667ZM48.3333 31.6667H55V35H48.3333V31.6667Z" fill="#8899A6"/>
<path d="M1.6665 20H58.3332V28.3333H1.6665V20Z" fill="#CCD6DD"/>
<path d="M60 20C60 20.442 59.8244 20.866 59.5118 21.1785C59.1993 21.4911 58.7754 21.6667 58.3333 21.6667H1.66667C1.22464 21.6667 0.800716 21.4911 0.488155 21.1785C0.175595 20.866 0 20.442 0 20V18.3334C0 17.8913 0.175595 17.4674 0.488155 17.1548C0.800716 16.8423 1.22464 16.6667 1.66667 16.6667H58.3333C58.7754 16.6667 59.1993 16.8423 59.5118 17.1548C59.8244 17.4674 60 17.8913 60 18.3334V20ZM60 30C60 30.442 59.8244 30.866 59.5118 31.1785C59.1993 31.4911 58.7754 31.6667 58.3333 31.6667H1.66667C1.22464 31.6667 0.800716 31.4911 0.488155 31.1785C0.175595 30.866 0 30.442 0 30V28.3334C0 27.8913 0.175595 27.4674 0.488155 27.1548C0.800716 26.8423 1.22464 26.6667 1.66667 26.6667H58.3333C58.7754 26.6667 59.1993 26.8423 59.5118 27.1548C59.8244 27.4674 60 27.8913 60 28.3334V30Z" fill="#AAB8C2"/>
<path d="M21.6665 53.3333H38.3332V56.6666H21.6665V53.3333Z" fill="#E1E8ED"/>
<path d="M18.3335 56.6666H41.6668V60H18.3335V56.6666Z" fill="#F5F8FA"/>
</g>
<defs>
<clipPath id="clip0_962_78396">
<rect width="60" height="60" fill="white"/>
</clipPath>
</defs>
</svg>
