<svg width="60" height="60" viewBox="0 0 60 60" fill="none" xmlns="http://www.w3.org/2000/svg">
<path d="M49.4438 48.75H10.5563C9.9 48.75 9.375 49.275 9.375 49.9312V55.0688C9.375 55.725 9.9 56.25 10.5563 56.25H49.4438C50.1 56.25 50.625 55.725 50.625 55.0688V49.9312C50.625 49.275 50.1 48.75 49.4438 48.75Z" fill="#9B9B9B"/>
<path d="M15.3244 43.125H16.875V43.6688C16.875 44.4 17.475 45 18.21 45H41.7731C42.5231 45 43.125 44.4 43.125 43.6688V43.125H44.6756C45.9 43.125 46.875 42.3938 46.875 41.475V31.875H43.125V39.375H16.875V31.875H13.125V41.475C13.125 42.3938 14.1 43.125 15.3244 43.125ZM10.5563 46.875H49.4438C50.1 46.875 50.625 47.4 50.625 48.0562V53.1938C50.625 53.85 50.1 54.375 49.4438 54.375H10.5563C9.9 54.375 9.375 53.85 9.375 53.1938V48.0562C9.375 47.4 9.9 46.875 10.5563 46.875Z" fill="#BEBEBE"/>
<path d="M54.375 35.625H5.625C4.59375 35.625 3.75 34.7812 3.75 33.75V5.625C3.75 4.59375 4.59375 3.75 5.625 3.75H54.375C55.4062 3.75 56.25 4.59375 56.25 5.625V33.75C56.25 34.7812 55.4062 35.625 54.375 35.625Z" fill="#7167A4"/>
<path d="M5.625 33.2812V6.09375C5.625 5.83125 5.83125 5.625 6.09375 5.625H53.9062C54.1688 5.625 54.375 5.83125 54.375 6.09375V33.2812C54.375 33.5438 54.1688 33.75 53.9062 33.75H6.09375C5.83125 33.75 5.625 33.5438 5.625 33.2812Z" fill="#26C9FC"/>
<path d="M13.125 35.625H16.875V37.5H13.125V35.625ZM12.9 48.2812H11.475C11.3625 48.2812 11.25 48.3937 11.25 48.525V49.9312C11.25 50.0625 11.3625 50.1562 11.475 50.1562H12.8812C13.0125 50.1562 13.1062 50.0437 13.1062 49.9312V48.525C13.1099 48.4952 13.1074 48.465 13.0988 48.4363C13.0902 48.4076 13.0758 48.3809 13.0564 48.358C13.037 48.3352 13.0131 48.3165 12.9862 48.3033C12.9593 48.2901 12.93 48.2826 12.9 48.2812ZM16.125 48.2812H14.7187C14.5875 48.2812 14.4938 48.3938 14.4938 48.5063V49.9125C14.4938 50.0438 14.6062 50.1375 14.7187 50.1375H16.125C16.2563 50.1375 16.35 50.025 16.35 49.9125V48.5063C16.3688 48.3938 16.2563 48.2812 16.125 48.2812ZM17.9625 48.2812H19.3687C19.5 48.2812 19.5938 48.3938 19.5938 48.5063V49.9125C19.5938 50.025 19.5 50.1375 19.3687 50.1375H17.9625C17.85 50.1375 17.7375 50.0438 17.7375 49.9125V48.5063C17.7375 48.3938 17.8312 48.2812 17.9625 48.2812ZM22.6125 48.2812H21.2063C21.075 48.2812 20.9812 48.3938 20.9812 48.5063V49.9125C20.9812 50.0438 21.0938 50.1375 21.2063 50.1375H22.6125C22.7438 50.1375 22.8375 50.025 22.8375 49.9125V48.5063C22.8375 48.3938 22.7438 48.2812 22.6125 48.2812ZM24.4312 48.2812H25.8375C25.9687 48.2812 26.0812 48.3938 26.0625 48.5063V49.9125C26.0625 50.025 25.9687 50.1375 25.8375 50.1375H24.4312C24.3187 50.1375 24.2062 50.0438 24.2062 49.9125V48.5063C24.2062 48.3938 24.3 48.2812 24.4312 48.2812ZM29.0813 48.2812H27.675C27.5438 48.2812 27.45 48.3938 27.45 48.5063V49.9125C27.45 50.0438 27.5625 50.1375 27.675 50.1375H29.0813C29.2125 50.1375 29.3062 50.025 29.3062 49.9125V48.5063C29.325 48.3938 29.2125 48.2812 29.0813 48.2812ZM30.9187 48.2812H32.325C32.4562 48.2812 32.55 48.3938 32.55 48.5063V49.9125C32.55 50.025 32.4562 50.1375 32.325 50.1375H30.9187C30.8062 50.1375 30.6938 50.0438 30.6938 49.9125V48.5063C30.6938 48.3938 30.7875 48.2812 30.9187 48.2812ZM35.5687 48.2812H34.1625C34.0312 48.2812 33.9375 48.3938 33.9375 48.5063V49.9125C33.9375 50.0438 34.05 50.1375 34.1625 50.1375H35.5687C35.7 50.1375 35.7938 50.025 35.7938 49.9125V48.5063C35.7938 48.3938 35.6812 48.2812 35.5687 48.2812ZM37.3875 48.2812H38.7938C38.925 48.2812 39.0375 48.3938 39.0187 48.5063V49.9125C39.0187 50.025 38.925 50.1375 38.7938 50.1375H37.3875C37.275 50.1375 37.1625 50.0438 37.1625 49.9125V48.5063C37.1625 48.3938 37.2563 48.2812 37.3875 48.2812ZM42.0375 48.2812H40.6313C40.5 48.2812 40.4062 48.3938 40.4062 48.5063V49.9125C40.4062 50.0438 40.5187 50.1375 40.6313 50.1375H42.0375C42.1688 50.1375 42.2625 50.025 42.2625 49.9125V48.5063C42.2813 48.3938 42.1688 48.2812 42.0375 48.2812ZM43.875 48.2812H45.2812C45.4125 48.2812 45.5063 48.3938 45.5063 48.5063V49.9125C45.5063 50.025 45.4125 50.1375 45.2812 50.1375H43.875C43.7625 50.1375 43.65 50.0438 43.65 49.9125V48.5063C43.65 48.3938 43.7437 48.2812 43.875 48.2812ZM48.525 48.2812H47.1187C46.9875 48.2812 46.8937 48.3938 46.8937 48.5063V49.9125C46.8937 50.0438 47.0062 50.1375 47.1187 50.1375H48.525C48.6562 50.1375 48.75 50.025 48.75 49.9125V48.5063C48.75 48.3938 48.6375 48.2812 48.525 48.2812ZM11.475 51.0938H12.9C13.0125 51.0938 13.125 51.2062 13.1062 51.3375V52.7437C13.1062 52.8562 13.0125 52.9688 12.8812 52.9688H11.475C11.3625 52.9688 11.25 52.875 11.25 52.7437V51.3375C11.25 51.2062 11.3625 51.0938 11.475 51.0938ZM16.125 51.0938H14.7187C14.5875 51.0938 14.4938 51.2063 14.4938 51.3188V52.725C14.4938 52.8563 14.6062 52.95 14.7187 52.95H16.125C16.2563 52.95 16.35 52.8375 16.35 52.725V51.3188C16.3688 51.2063 16.2563 51.0938 16.125 51.0938ZM17.9625 51.0938H19.3687C19.5 51.0938 19.5938 51.2063 19.5938 51.3188V52.725C19.5938 52.8375 19.5 52.95 19.3687 52.95H17.9625C17.85 52.95 17.7375 52.8563 17.7375 52.725V51.3188C17.7375 51.2063 17.8312 51.0938 17.9625 51.0938ZM22.6125 51.0938H21.2063C21.075 51.0938 20.9812 51.2063 20.9812 51.3188V52.725C20.9812 52.8563 21.0938 52.95 21.2063 52.95H22.6125C22.7438 52.95 22.8375 52.8375 22.8375 52.725V51.3188C22.8375 51.2063 22.7438 51.0938 22.6125 51.0938ZM24.45 51.0938H35.5125C35.6438 51.0938 35.7375 51.2063 35.7375 51.3188V52.725C35.7375 52.8375 35.6438 52.95 35.5125 52.95H24.45C24.3375 52.95 24.225 52.8563 24.225 52.725V51.3188C24.225 51.2063 24.3188 51.0938 24.45 51.0938ZM38.7938 51.0938H37.3875C37.2563 51.0938 37.1625 51.2063 37.1625 51.3188V52.725C37.1625 52.8563 37.275 52.95 37.3875 52.95H38.7938C38.925 52.95 39.0187 52.8375 39.0187 52.725V51.3188C39.0375 51.2063 38.925 51.0938 38.7938 51.0938ZM40.6313 51.0938H42.0375C42.1688 51.0938 42.2813 51.2063 42.2625 51.3188V52.725C42.2625 52.8375 42.1688 52.95 42.0375 52.95H40.6313C40.5187 52.95 40.4062 52.8563 40.4062 52.725V51.3188C40.4062 51.2063 40.5 51.0938 40.6313 51.0938ZM45.2812 51.0938H43.875C43.7437 51.0938 43.65 51.2063 43.65 51.3188V52.725C43.65 52.8563 43.7625 52.95 43.875 52.95H45.2812C45.4125 52.95 45.5063 52.8375 45.5063 52.725V51.3188C45.5063 51.2063 45.4125 51.0938 45.2812 51.0938ZM47.1187 51.0938H48.525C48.6375 51.0938 48.75 51.2063 48.75 51.3188V52.725C48.75 52.8375 48.6562 52.95 48.525 52.95H47.1187C47.0062 52.95 46.8937 52.8563 46.8937 52.725V51.3188C46.8937 51.2063 46.9875 51.0938 47.1187 51.0938ZM46.875 35.625H43.125V37.5H46.875V35.625Z" fill="#9B9B9B"/>
</svg>
