<svg width="60" height="60" viewBox="0 0 60 60" fill="none" xmlns="http://www.w3.org/2000/svg">
<path d="M48.1771 21.5539C48.1771 11.2658 40.1017 2.92584 30.1403 2.92584C20.1789 2.92584 12.1035 11.266 12.1035 21.5539C12.1035 26.2062 13.755 30.46 16.4854 33.7245H16.4853L20.4305 40.8761C21.4609 42.7839 21.8434 44.0158 23.5702 44.0158H36.4343C38.1612 44.0158 38.6692 42.7185 39.574 40.8761L43.7954 33.7245H43.7951C46.5255 30.46 48.1771 26.2062 48.1771 21.5539Z" fill="#FFE46A"/>
<path d="M13.2192 23.8225C13.2192 13.1911 21.2322 4.4044 31.6347 2.99604C31.1157 2.94965 30.595 2.92623 30.0739 2.92584C20.1125 2.92584 12.0371 11.266 12.0371 21.5539C12.0371 24.9394 12.9124 28.1133 14.4409 30.849C13.6498 28.6519 13.2192 26.2867 13.2192 23.8225Z" fill="#FFF0B7"/>
<path d="M48.1771 21.5937C48.1771 17.9087 47.1408 14.4739 45.3532 11.5826C45.7359 13.0925 45.9294 14.644 45.9294 16.2016C45.9294 28.4423 34.0773 38.4113 19.2715 38.815L20.4305 40.916C21.4609 42.8238 21.8434 44.0557 23.5702 44.0557H36.4343C38.1612 44.0557 38.6692 42.7584 39.574 40.916L43.7953 33.7644H43.7951C46.5254 30.4998 48.1771 26.246 48.1771 21.5937Z" fill="#FFDA00"/>
<path d="M33.71 46.1345H25.8933C25.9007 46.3737 25.9106 46.5808 25.9278 46.7707C25.9722 47.2885 26.0511 47.4735 26.1029 47.5672C26.2493 47.8281 26.462 48.0459 26.7194 48.1984C26.8106 48.2502 26.9931 48.3316 27.4986 48.376C28.0263 48.4253 28.7216 48.4277 29.8016 48.4277C30.8792 48.4277 31.577 48.4277 32.1047 48.3784C32.6077 48.3291 32.7927 48.2502 32.8839 48.1984C33.1413 48.0459 33.354 47.8281 33.5004 47.5672C33.5497 47.4735 33.6286 47.2861 33.673 46.7707C33.6902 46.5833 33.7026 46.3737 33.71 46.1345ZM32.5387 17.7825C33.2957 18.3349 33.4708 19.41 32.9308 20.1818L30.026 24.3441H33.4831C33.7941 24.3456 34.0986 24.4335 34.3625 24.5981C34.6264 24.7627 34.8393 24.9975 34.9774 25.2762C35.1192 25.5579 35.1823 25.8727 35.1602 26.1873C35.1381 26.5019 35.0315 26.8048 34.8516 27.0639L30.0482 33.941C29.9229 34.1242 29.762 34.2802 29.5752 34.4C29.3885 34.5198 29.1795 34.6008 28.9608 34.6383C28.7421 34.6758 28.5181 34.6689 28.3021 34.6182C28.086 34.5675 27.8824 34.4739 27.7032 34.343C27.3389 34.0725 27.0942 33.6707 27.021 33.2228C26.9478 32.7749 27.0519 32.3162 27.3112 31.9437L30.2159 27.7814H26.7588C26.4476 27.7797 26.1429 27.6914 25.879 27.5263C25.6151 27.3613 25.4023 27.126 25.2645 26.8469C25.1232 26.5654 25.0603 26.2511 25.0825 25.937C25.1046 25.6229 25.2109 25.3205 25.3903 25.0616L30.1937 18.182C30.3191 17.9989 30.4799 17.8428 30.6667 17.723C30.8535 17.6033 31.0624 17.5222 31.2811 17.4848C31.4999 17.4473 31.7239 17.4541 31.9399 17.5048C32.1559 17.5555 32.3595 17.6491 32.5387 17.7801" fill="#FAAF63"/>
<path d="M37.0231 47.1915H23.1909C22.4175 47.1915 21.7847 47.8243 21.7847 48.5978V49.4131C21.7847 50.1865 22.4175 50.8193 23.1909 50.8193H27.6583C26.3263 51.3149 24.9198 52.4933 24.9198 53.8598V54.4083C25.9889 55.6099 26.9845 57.699 28.881 57.699H31.4462C32.9401 57.699 34.0013 56.0863 35.2942 54.4083V53.8598C35.2942 52.4933 33.9522 51.3149 32.6518 50.8193H37.0231C37.7966 50.8193 38.4294 50.1865 38.4294 49.4131V48.5978C38.4294 47.8243 37.7966 47.1915 37.0231 47.1915Z" fill="#6B83A5"/>
<path d="M38.0166 47.1915H22.1982C21.4248 47.1915 20.792 46.5587 20.792 45.7852V44.97C20.792 44.1965 21.4248 43.5637 22.1982 43.5637H38.0166C38.79 43.5637 39.4228 44.1965 39.4228 44.97V45.7852C39.4228 46.5587 38.79 47.1915 38.0166 47.1915ZM37.1954 53.0409V52.2256C37.1954 51.4522 36.5626 50.8194 35.7892 50.8194H24.4256C23.6522 50.8194 23.0194 51.4522 23.0194 52.2256V53.0409C23.0194 53.8143 23.6522 54.4472 24.4256 54.4472H35.7892C36.5626 54.4472 37.1954 53.8143 37.1954 53.0409Z" fill="#ABBDDB"/>
</svg>
