<svg width="61" height="60" viewBox="0 0 61 60" fill="none" xmlns="http://www.w3.org/2000/svg">
<g clip-path="url(#clip0_962_78498)">
<path d="M30.4484 23.475V59.4506C30.4484 59.745 30.6566 59.9944 30.9013 59.9944H59.9919C60.2366 59.9944 60.4409 59.745 60.4409 59.4506V23.475C60.4464 23.3405 60.4035 23.2085 60.32 23.1028C60.32 23.1028 60.3116 23.0972 60.3078 23.1019C60.2715 23.0513 60.2239 23.01 60.1686 22.9814C60.1134 22.9527 60.0522 22.9375 59.99 22.9369H30.8994C30.6566 22.9369 30.4484 23.1872 30.4484 23.4835M0.5 31.6238V59.5772C0.5 59.8069 0.695 60 0.92375 60H28.0316C28.1426 59.9983 28.2486 59.953 28.3266 59.8739C28.4047 59.7949 28.4485 59.6883 28.4487 59.5772V31.6238C28.4505 31.5704 28.4412 31.5173 28.4213 31.4677C28.4015 31.4182 28.3715 31.3733 28.3334 31.336L28.3259 31.3275L28.31 31.3163C28.2741 31.2784 28.2307 31.2485 28.1826 31.2283C28.1345 31.2081 28.0828 31.1982 28.0306 31.1991H0.922812C0.811108 31.2015 0.704676 31.2471 0.625846 31.3262C0.547016 31.4054 0.501913 31.5121 0.5 31.6238Z" fill="#86A7AC"/>
<path d="M4.38572 39.8269H8.0626C8.09354 39.8269 8.12072 39.7941 8.12072 39.7613V35.5978C8.1211 35.59 8.11988 35.5821 8.11713 35.5747C8.11438 35.5674 8.11016 35.5606 8.10473 35.5549C8.09929 35.5492 8.09275 35.5447 8.08551 35.5416C8.07827 35.5385 8.07047 35.5369 8.0626 35.5369H4.38572C4.37785 35.5369 4.37005 35.5384 4.3628 35.5415C4.35555 35.5445 4.34899 35.549 4.34354 35.5547V35.5585C4.33604 35.5744 4.32666 35.5838 4.32666 35.5838V39.7613C4.32666 39.7941 4.35291 39.8269 4.38572 39.8269ZM4.38572 46.8319H8.0626C8.09354 46.8319 8.12072 46.8 8.12072 46.7672V42.6047C8.12097 42.5969 8.11966 42.5891 8.11686 42.5818C8.11407 42.5744 8.10984 42.5677 8.10443 42.5621C8.09902 42.5564 8.09253 42.5519 8.08535 42.5487C8.07817 42.5456 8.07044 42.5439 8.0626 42.5438H4.38572C4.37776 42.5437 4.36989 42.5454 4.36262 42.5486C4.35534 42.5519 4.34884 42.5566 4.34354 42.5625V42.5672C4.33604 42.5813 4.32666 42.5916 4.32666 42.5916V46.77C4.32666 46.8 4.35291 46.8319 4.38572 46.8319ZM10.5263 39.8269H14.206C14.2351 39.8269 14.2623 39.7941 14.2623 39.7613V35.5978C14.2623 35.5613 14.2351 35.5369 14.206 35.5369H10.5263C10.5108 35.5373 10.496 35.5437 10.4851 35.5547V35.5585C10.4776 35.5744 10.4701 35.5838 10.4701 35.5838V39.7613C10.4701 39.7941 10.4935 39.8269 10.5263 39.8269ZM10.5263 46.8319H14.206C14.2351 46.8319 14.2623 46.8 14.2623 46.7672V42.6047C14.2623 42.5691 14.2351 42.5438 14.206 42.5438H10.5263C10.5185 42.5439 10.5109 42.5456 10.5038 42.5488C10.4967 42.552 10.4903 42.5567 10.4851 42.5625V42.5672C10.4776 42.5813 10.4701 42.5916 10.4701 42.5916V46.77C10.4701 46.8 10.4935 46.8319 10.5263 46.8319ZM48.9938 32.5294H52.6735C52.7026 32.5294 52.7317 32.4966 52.7317 32.4638V28.3022C52.7317 28.2657 52.7035 28.2385 52.6735 28.2385H48.9938C48.9779 28.2385 48.9629 28.246 48.9629 28.246L48.962 28.2628C48.9535 28.276 48.946 28.2863 48.946 28.3032V32.4647C48.946 32.4966 48.9685 32.5294 49.0023 32.5294M48.9938 39.5344H52.6735C52.7026 39.5344 52.7317 39.5016 52.7317 39.4688V35.3053C52.7319 35.2975 52.7306 35.2896 52.7278 35.2822C52.725 35.2749 52.7208 35.2681 52.7154 35.2624C52.71 35.2566 52.7035 35.252 52.6964 35.2487C52.6892 35.2455 52.6814 35.2437 52.6735 35.2435H48.9938C48.9779 35.2435 48.9629 35.251 48.9629 35.251L48.962 35.2669C48.9535 35.2828 48.946 35.2913 48.946 35.3063V39.4697C48.946 39.5016 48.9685 39.5344 49.0023 39.5344M55.1373 32.5294H58.816C58.8442 32.5294 58.8742 32.4966 58.8742 32.4638V28.3022C58.8742 28.2657 58.847 28.2385 58.816 28.2385H55.1373C55.1373 28.2385 55.1054 28.246 55.0951 28.2582V28.2619C55.0951 28.2619 55.0801 28.2853 55.0801 28.3022V32.4638C55.082 32.4966 55.1054 32.5294 55.1373 32.5294ZM55.1373 39.5344H58.816C58.8442 39.5344 58.8742 39.5016 58.8742 39.4688V35.3053C58.8742 35.2688 58.847 35.2435 58.816 35.2435H55.1373C55.1373 35.2435 55.1054 35.251 55.0951 35.2632V35.2669C55.0951 35.2669 55.0801 35.2913 55.0801 35.3063V39.4697C55.082 39.5016 55.1054 39.5344 55.1373 39.5344ZM48.9938 45.5728H52.6735C52.7026 45.5728 52.7317 45.541 52.7317 45.5082V41.3457C52.7319 41.3378 52.7306 41.33 52.7278 41.3227C52.725 41.3154 52.7208 41.3087 52.7154 41.303C52.71 41.2973 52.7035 41.2928 52.6963 41.2897C52.6891 41.2865 52.6814 41.2848 52.6735 41.2847H48.9938C48.9861 41.2847 48.9784 41.2865 48.9714 41.2899C48.9645 41.2934 48.9583 41.2983 48.9535 41.3044V41.3082C48.9451 41.3232 48.9376 41.3335 48.9376 41.3466V45.51C48.9376 45.541 48.9601 45.5728 48.9938 45.5728ZM48.9938 52.575H52.6735C52.7026 52.575 52.7317 52.5422 52.7317 52.5113V48.3478C52.7319 48.34 52.7306 48.3323 52.7278 48.325C52.725 48.3177 52.7207 48.3111 52.7153 48.3055C52.7099 48.2999 52.7034 48.2955 52.6962 48.2924C52.689 48.2894 52.6813 48.2878 52.6735 48.2878H48.9938C48.9863 48.2879 48.9788 48.2896 48.9719 48.2926C48.9649 48.2957 48.9587 48.3001 48.9535 48.3057V48.3094C48.9451 48.3253 48.9376 48.3338 48.9376 48.3497V52.5122C48.9376 52.5422 48.9601 52.575 48.9938 52.575ZM55.1373 45.5728H58.816C58.8442 45.5728 58.8742 45.541 58.8742 45.5082V41.3457C58.8745 41.3378 58.8733 41.3299 58.8706 41.3225C58.8678 41.3152 58.8636 41.3084 58.8582 41.3027C58.8527 41.297 58.8462 41.2925 58.8389 41.2894C58.8317 41.2863 58.8239 41.2847 58.816 41.2847H55.1373C55.1373 41.2847 55.1054 41.2922 55.0951 41.3044V41.3082C55.0876 41.3232 55.0801 41.3335 55.0801 41.3466V45.51C55.082 45.541 55.1054 45.5728 55.1373 45.5728ZM55.1373 52.575H58.816C58.8442 52.575 58.8742 52.5422 58.8742 52.5113V48.3478C58.8744 48.34 58.8731 48.3323 58.8703 48.325C58.8675 48.3177 58.8632 48.3111 58.8578 48.3055C58.8524 48.2999 58.8459 48.2955 58.8387 48.2924C58.8315 48.2894 58.8238 48.2878 58.816 48.2878H55.1373C55.1373 48.2878 55.1054 48.2953 55.0951 48.3057V48.3094C55.0876 48.3253 55.0801 48.3338 55.0801 48.3497V52.5122C55.082 52.5422 55.1054 52.575 55.1373 52.575Z" fill="#6C888C"/>
<path d="M15.8574 8.38126V59.1938C15.8574 59.6166 16.0946 59.9625 16.3749 59.9625H49.7865C50.0677 59.9625 50.3049 59.6166 50.3049 59.1938V8.38126C50.3123 8.19602 50.264 8.01282 50.1662 7.85532L50.1512 7.84032C50.1512 7.8272 50.1427 7.82532 50.1324 7.81876C50.0978 7.75708 50.0477 7.70552 49.987 7.66917C49.9263 7.63283 49.8572 7.61298 49.7865 7.61157H16.3759C16.0946 7.61157 15.8574 7.9622 15.8574 8.38126Z" fill="#A2C3CB"/>
<path d="M28.4432 59.9897H37.9176C37.9898 59.9897 38.0582 59.9409 38.0582 59.88V53.0756C38.0582 53.0175 37.9898 52.9744 37.9176 52.9744H28.4432C28.4083 52.9741 28.374 52.9842 28.3448 53.0034L28.3429 53.0072H28.3392C28.3204 53.0287 28.2998 53.0512 28.2998 53.0756V59.8809C28.2998 59.9419 28.3692 59.9897 28.4432 59.9897Z" fill="#405967"/>
<path d="M29.6281 56.6156H31.2734C31.2734 56.6156 31.2968 56.5997 31.2968 56.5866V54.7247C31.2968 54.705 31.2846 54.6966 31.2846 54.6966H29.6262L29.6065 54.7041V54.7078L29.6009 54.7191V56.5885C29.6028 56.6006 29.614 56.6156 29.6281 56.6156ZM18.1015 35.131H48.4549C48.6968 35.131 48.9378 35.0869 48.9378 35.0485V29.8416C48.9378 29.7985 48.6968 29.7619 48.4549 29.7619H18.1006C17.9806 29.7619 17.8362 29.7732 17.7631 29.7872V29.791C17.7049 29.8107 17.6431 29.8238 17.6431 29.8416V35.0485C17.6431 35.086 17.8371 35.131 18.1015 35.131ZM18.0809 43.8947H47.1762C47.4106 43.8947 47.6403 43.8497 47.6403 43.8113V38.6044C47.6403 38.5622 47.4106 38.5257 47.1762 38.5257H18.0837C17.9665 38.5257 17.8287 38.5266 17.7584 38.55V38.5575C17.6993 38.5735 17.6431 38.5866 17.6431 38.6044V43.816C17.6431 43.8535 17.8278 43.8985 18.0828 43.8985" fill="#86A7AC"/>
<path d="M25.3973 35.146H30.0023C30.0388 35.146 30.0754 35.101 30.0754 35.0606V29.8547C30.0754 29.8116 30.0388 29.775 30.0023 29.775H25.3945C25.3843 29.7754 25.3743 29.7778 25.3651 29.7822C25.3559 29.7865 25.3477 29.7927 25.341 29.8003V29.8041C25.341 29.8228 25.3223 29.8369 25.3223 29.8547V35.0616C25.3223 35.101 25.3532 35.146 25.3935 35.146M25.3973 43.9107H30.0023C30.0388 43.9107 30.0754 43.8657 30.0754 43.8253V38.6203C30.0754 38.5772 30.0388 38.5406 30.0023 38.5406H25.3945C25.3843 38.541 25.3743 38.5435 25.3651 38.5478C25.3559 38.5522 25.3477 38.5583 25.341 38.566V38.5735C25.341 38.5894 25.3223 38.6025 25.3223 38.6213V43.831C25.3223 43.8685 25.3532 43.9135 25.3935 43.9135M43.7845 35.146H48.3923C48.4298 35.146 48.4663 35.101 48.4663 35.0606V29.8547C48.4663 29.8116 48.4298 29.775 48.3923 29.775H43.792C43.7821 29.7755 43.7724 29.778 43.7635 29.7823C43.7547 29.7867 43.7468 29.7928 43.7404 29.8003V29.8041C43.7395 29.8228 43.7207 29.8369 43.7207 29.8547V35.0616C43.7207 35.101 43.7516 35.146 43.792 35.146M43.7845 43.9107H48.3923C48.4298 43.9107 48.4663 43.8657 48.4663 43.8253V38.6203C48.4663 38.5772 48.4298 38.5406 48.3923 38.5406H43.792C43.7821 38.5411 43.7724 38.5436 43.7635 38.548C43.7547 38.5523 43.7468 38.5584 43.7404 38.566V38.5735C43.7404 38.5735 43.7207 38.6025 43.7207 38.6213V43.831C43.7207 43.8685 43.7516 43.9135 43.792 43.9135M36.1626 35.146H40.7648C40.8013 35.146 40.836 35.101 40.836 35.0606V29.8547C40.836 29.8116 40.8013 29.775 40.7648 29.775H36.1663C36.1451 29.7761 36.125 29.7851 36.1101 29.8003V29.8041C36.1026 29.8228 36.0904 29.8369 36.0904 29.8547V35.0616C36.0904 35.101 36.1241 35.146 36.1663 35.146M36.1626 43.9107H40.7648C40.8013 43.9107 40.836 43.8657 40.836 43.8253V38.6203C40.836 38.5772 40.8013 38.5406 40.7648 38.5406H36.1663C36.1451 38.5417 36.125 38.5507 36.1101 38.566V38.5735C36.1101 38.5735 36.0904 38.6025 36.0904 38.6213V43.831C36.0904 43.8685 36.1241 43.9135 36.1663 43.9135M35.0188 56.6156H36.666C36.666 56.6156 36.6904 56.5997 36.6904 56.5866V54.7247C36.6904 54.705 36.6773 54.6966 36.6773 54.6966H35.0179L35.0001 54.7041V54.7078C34.9963 54.7116 34.9926 54.7191 34.9926 54.7191V56.5885C34.9945 56.6006 35.0066 56.6156 35.0188 56.6156Z" fill="#86A7AC"/>
<path d="M25.4973 21.8072H40.8582C40.9801 21.8072 41.0954 21.7857 41.0954 21.7557V18.2785C41.0954 18.2494 40.9801 18.2278 40.8582 18.2278H25.4982C25.4466 18.2263 25.395 18.2307 25.3445 18.241L25.3388 18.2428H25.3332C25.2966 18.2513 25.2676 18.2663 25.2676 18.2663V21.7566C25.2676 21.7847 25.3763 21.8072 25.4991 21.8072" fill="#DE374B"/>
<path d="M31.3857 18.3572V27.2832C31.3857 27.3526 31.4082 27.4182 31.4392 27.4182H34.9182C34.9473 27.4182 34.9726 27.3526 34.9726 27.2832V18.3572C34.9745 18.3268 34.9683 18.2964 34.9548 18.2691V18.2597C34.9389 18.2419 34.9286 18.2269 34.9286 18.2269H31.4373C31.4101 18.2269 31.3857 18.286 31.3857 18.3572Z" fill="#DE374B"/>
<path d="M31.3857 12.7472V21.6713C31.3857 21.7407 31.4082 21.8063 31.4392 21.8063H34.9182C34.9473 21.8063 34.9726 21.7407 34.9726 21.6713V12.7472C34.9742 12.7162 34.9681 12.6853 34.9548 12.6572V12.6507C34.9454 12.6396 34.9366 12.628 34.9286 12.616H31.4373C31.4101 12.616 31.3857 12.6741 31.3857 12.7472Z" fill="#DE374B"/>
</g>
<defs>
<clipPath id="clip0_962_78498">
<rect width="60" height="60" fill="white" transform="translate(0.5)"/>
</clipPath>
</defs>
</svg>
