<svg width="60" height="60" viewBox="0 0 60 60" fill="none" xmlns="http://www.w3.org/2000/svg">
<path d="M53.6436 56.25H30.8061C29.3436 56.25 28.1436 55.065 28.1436 53.58V28.92C28.1436 27.4537 29.3248 26.25 30.8061 26.25H53.6436C55.1061 26.25 56.3061 27.435 56.3061 28.92V53.5988C56.3031 54.3029 56.0213 54.9773 55.5223 55.4742C55.0233 55.971 54.3477 56.25 53.6436 56.25Z" fill="#991985"/>
<path d="M32.9306 30.0581C33.1792 30.0581 33.4177 30.1569 33.5935 30.3327C33.7693 30.5086 33.8681 30.747 33.8681 30.9956V36.0281C33.8681 39.8438 37.5056 43.1531 42.2756 43.1531C47.0625 43.1531 50.6831 39.8456 50.6831 36.0281V30.9938C50.6831 30.7451 50.7819 30.5067 50.9577 30.3309C51.1335 30.155 51.3719 30.0563 51.6206 30.0563C51.8692 30.0563 52.1077 30.155 52.2835 30.3309C52.4593 30.5067 52.5581 30.7451 52.5581 30.9938V36.0263C52.5581 41.1281 47.8293 45.0263 42.2756 45.0263C36.7443 45.0263 31.9912 41.13 31.9912 36.0263V30.9938C31.9912 30.7451 32.09 30.5067 32.2658 30.3309C32.4416 30.155 32.6801 30.0563 32.9287 30.0563" fill="#FF6723"/>
<path d="M33.9937 52.4362H6.99375C5.2125 52.4362 3.75 50.9925 3.75 49.1925V18.2362C3.75 16.455 5.19375 14.9925 6.99375 14.9925H33.9937C35.775 14.9925 37.2375 16.4362 37.2375 18.2362V49.2112C37.2375 50.9925 35.7938 52.4362 33.9937 52.4362Z" fill="#00A6ED"/>
<path d="M20.655 3.75C14.5238 3.75 9.375 8.20313 9.375 13.9219V19.6875C9.375 19.9361 9.47377 20.1746 9.64959 20.3504C9.8254 20.5262 10.0639 20.625 10.3125 20.625C10.5611 20.625 10.7996 20.5262 10.9754 20.3504C11.1512 20.1746 11.25 19.9361 11.25 19.6875V13.9219C11.25 9.43313 15.3544 5.625 20.655 5.625C25.9556 5.625 30.0581 9.43313 30.0581 13.9219V19.6875C30.0581 19.9361 30.1569 20.1746 30.3327 20.3504C30.5085 20.5262 30.747 20.625 30.9956 20.625C31.2443 20.625 31.4827 20.5262 31.6585 20.3504C31.8344 20.1746 31.9331 19.9361 31.9331 19.6875V13.9219C31.9331 8.20313 26.7844 3.75 20.655 3.75ZM3.75 27.5437H37.2375V31.9125H3.75V27.5437ZM3.75 35.9625H37.2375V40.3312H3.75V35.9625ZM37.2375 44.3812H3.75V48.75H37.2375V44.3812Z" fill="#0074BA"/>
</svg>
