<svg width="61" height="60" viewBox="0 0 61 60" fill="none" xmlns="http://www.w3.org/2000/svg">
<path d="M7.26123 11.955L14.885 4.33124L16.7412 6.18749L9.11748 13.8112L7.26123 11.955ZM20.5822 13.8722L28.2069 6.2503L30.0631 8.10655L22.4384 15.7284L20.5822 13.8722ZM46.7281 51.4256L54.3537 43.8037L56.21 45.6609L48.5844 53.2828L46.7281 51.4256ZM44.824 38.0222L52.4497 30.4003L54.3059 32.2575L46.6794 39.8794L44.824 38.0222Z" fill="#ACB8BF"/>
<path d="M53.3752 56.9062L48.9689 17.4375L43.0627 11.5312L3.59395 7.12498C1.71895 6.93748 2.09395 11.625 4.2502 12.6562L33.9689 26.5312L47.8439 56.25C48.8752 58.4062 53.5627 58.7812 53.3752 56.9062Z" fill="#42ADE2"/>
<path d="M57.9689 7.59376C60.0314 3.56251 56.9377 0.468764 52.9064 2.53126C47.7502 5.15626 40.1564 11.0625 32.4689 18.6563C20.4689 30.6563 12.7814 42.5625 15.3127 45.1875C17.8439 47.7188 29.8439 40.0313 41.8439 28.0313C49.4377 20.4375 55.3439 12.75 57.9689 7.59376Z" fill="#DAE3EA"/>
<path d="M21.4999 56.4375L19.9999 42.5625L17.9374 40.5L4.06239 39C3.40614 38.9062 3.49989 40.5937 4.24989 40.9687L14.6561 45.8437L19.5311 56.25C19.9061 57 21.5936 57.0937 21.4999 56.4375Z" fill="#42ADE2"/>
<path d="M19.4373 43.3125C15.2186 47.5312 11.3748 50.4375 10.8123 49.7812C10.2498 49.2187 13.1561 45.2812 17.2811 41.0625C21.4998 36.8437 25.3436 33.9375 25.9998 34.5937C26.4686 35.1562 23.5623 39.0937 19.4373 43.3125Z" fill="#ACB8BF"/>
<path d="M56.5625 9.09372C57.0312 7.40622 56.8437 5.81247 55.8125 4.68747C54.7812 3.65622 53.0938 3.37497 51.5 3.93747L48.3125 5.90622C49.9062 5.34372 52.25 6.18747 53.2812 7.21872C54.4062 8.34372 55.1563 10.5937 54.5938 12.1875L56.5625 9.09372Z" fill="#3E4347"/>
<path d="M50.8101 9.08907L56.1107 3.78375L56.7079 4.38L51.4063 9.68625L50.8101 9.08907Z" fill="#DAE3EA"/>
</svg>
