<svg width="61" height="60" viewBox="0 0 61 60" fill="none" xmlns="http://www.w3.org/2000/svg">
<path d="M8.93726 4.45314C9.70517 3.98423 10.5894 3.74059 11.4891 3.75002H49.6754C50.7306 3.77152 51.7489 4.14223 52.5709 4.80414C53.393 5.46606 53.9724 6.38183 54.2185 7.40814C54.3321 7.93895 54.3775 8.48209 54.3535 9.02439V29.9794H51.4041C51.266 29.9855 51.1283 29.9993 50.9916 30.0206C50.6292 29.9927 50.2655 29.9858 49.9023 30C49.3398 30.0131 48.7585 29.9738 48.1885 30.0263C47.9401 29.992 47.6891 29.9794 47.4385 29.9888H38.5529C38.1779 29.9888 37.8179 30.0038 37.4523 29.97L37.6398 29.8481L25.7279 22.6988V29.9906C21.5785 29.9813 17.4273 29.9906 13.2779 29.9906C13.1203 29.9939 12.9632 30.007 12.8073 30.03C12.4098 29.97 12.0066 30 11.6035 30C11.071 30.0113 10.5348 29.9719 10.0041 30.0281C9.84704 30.0044 9.6886 29.9906 9.52976 29.9869H6.64039C6.65164 23.1713 6.64039 16.3556 6.64039 9.54939C6.60087 8.83974 6.64556 8.12791 6.77351 7.42877C6.91883 6.81408 7.18497 6.23443 7.55644 5.72358C7.92791 5.21272 8.39729 4.78087 8.93726 4.45314ZM9.94976 8.55564C9.69324 8.61784 9.46439 8.76287 9.29863 8.96828C9.13288 9.1737 9.03948 9.42803 9.03289 9.6919V12.1594C9.05168 12.4603 9.18306 12.7431 9.4009 12.9516C9.61873 13.16 9.90706 13.2789 10.2085 13.2844H12.6629C12.9579 13.2663 13.2358 13.1399 13.4434 12.9295C13.651 12.7192 13.7737 12.4396 13.7879 12.1444C13.7973 11.3456 13.7879 10.545 13.7879 9.74627C13.7932 9.52739 13.7385 9.31122 13.6298 9.12118C13.5211 8.93114 13.3624 8.77448 13.171 8.66814C12.9642 8.56066 12.7325 8.51018 12.4998 8.52189H10.3698C10.2289 8.51733 10.088 8.52865 9.94976 8.55564ZM48.0891 8.55564C47.8375 8.62317 47.6147 8.77074 47.4544 8.97606C47.2941 9.18138 47.2049 9.4333 47.2004 9.69377V12.1425C47.2146 12.4377 47.3373 12.7173 47.5449 12.9277C47.7525 13.138 48.0304 13.2644 48.3254 13.2825C49.1429 13.2919 49.9604 13.2825 50.7779 13.2825C51.0812 13.2768 51.371 13.1564 51.5891 12.9456C51.8073 12.7348 51.9374 12.4492 51.9535 12.1463C51.9648 11.325 51.9535 10.5038 51.9535 9.68252C51.9454 9.38484 51.827 9.1008 51.6211 8.88561C51.4153 8.67041 51.1368 8.53944 50.8398 8.51815C50.1873 8.50127 49.5273 8.51815 48.8804 8.51815C48.6158 8.50515 48.3506 8.52024 48.0891 8.56314V8.55564ZM9.95351 15.7125C9.76145 15.7582 9.58363 15.8505 9.43579 15.9813C9.28796 16.1122 9.17469 16.2774 9.10601 16.4625C9.03768 16.6973 9.01165 16.9424 9.02913 17.1863V19.3144C9.04571 19.6074 9.16956 19.884 9.37705 20.0915C9.58455 20.299 9.86116 20.4228 10.1541 20.4394C10.9041 20.4544 11.6448 20.4394 12.3891 20.4394C12.6423 20.4622 12.8972 20.4203 13.1298 20.3175C13.3317 20.2193 13.502 20.0663 13.6214 19.876C13.7407 19.6858 13.8042 19.4659 13.8048 19.2413V16.8431C13.7978 16.5427 13.6784 16.2557 13.4701 16.0391C13.2618 15.8224 12.9797 15.6918 12.6798 15.6731C12.046 15.6581 11.4104 15.6731 10.7748 15.6731C10.5004 15.6612 10.2255 15.6744 9.95351 15.7125ZM48.0873 15.7125C47.9017 15.7633 47.7311 15.858 47.5898 15.9885C47.4485 16.119 47.3407 16.2816 47.2754 16.4625C47.2068 16.6979 47.1808 16.9436 47.1985 17.1881V19.3088C47.2135 19.6061 47.3385 19.8872 47.5492 20.0975C47.7598 20.3079 48.0412 20.4324 48.3385 20.4469C49.0998 20.4581 49.861 20.4469 50.6223 20.4469C50.8685 20.4624 51.1145 20.4119 51.3348 20.3006C51.5235 20.1984 51.6813 20.0473 51.7917 19.8633C51.9022 19.6793 51.9613 19.469 51.9629 19.2544V16.8469C51.9566 16.5488 51.839 16.2638 51.6332 16.048C51.4275 15.8322 51.1485 15.7012 50.851 15.6806C50.1966 15.6638 49.5385 15.6806 48.8879 15.6806C48.6197 15.6656 48.3506 15.6794 48.0854 15.7219L48.0873 15.7125ZM9.95163 22.875C9.69382 22.9367 9.46367 23.082 9.29712 23.2882C9.13057 23.4944 9.037 23.75 9.03101 24.015C9.03101 24.8363 9.02164 25.6594 9.03101 26.4806C9.0498 26.7816 9.18119 27.0644 9.39902 27.2728C9.61686 27.4813 9.90518 27.6001 10.2066 27.6056H12.6441C12.9415 27.5911 13.2228 27.4666 13.4335 27.2563C13.6442 27.046 13.7691 26.7648 13.7841 26.4675V24.0169C13.778 23.7142 13.6576 23.4251 13.4473 23.2074C13.2369 22.9898 12.952 22.8596 12.6498 22.8431C11.9973 22.83 11.3373 22.8431 10.6904 22.8431C10.4437 22.8294 10.1962 22.8401 9.95163 22.875ZM48.0798 22.8863C47.8965 22.9367 47.7278 23.03 47.5876 23.1585C47.4474 23.2869 47.3398 23.4468 47.2735 23.625C47.2052 23.8598 47.1792 24.1049 47.1966 24.3488V26.4694C47.2111 26.7667 47.3356 27.0481 47.546 27.2587C47.7563 27.4694 48.0374 27.5944 48.3348 27.6094C49.1504 27.6188 49.966 27.6094 50.7835 27.6094C51.0868 27.6042 51.3769 27.4842 51.5953 27.2738C51.8138 27.0633 51.9445 26.7779 51.961 26.475C51.9723 25.6538 51.961 24.8325 51.961 24.0131C51.9547 23.7153 51.8374 23.4306 51.6321 23.2149C51.4267 22.9991 51.1481 22.8679 50.851 22.8469C50.1966 22.8281 49.5385 22.8469 48.8898 22.8469C48.6202 22.8271 48.3492 22.8365 48.0816 22.875L48.0798 22.8863Z" fill="#E75749"/>
<path d="M25.7339 22.6875C29.7039 25.0725 33.6745 27.4556 37.6457 29.8369L37.4582 29.9587C33.5495 32.2987 29.6426 34.6412 25.7376 36.9862V29.9812C25.7339 27.555 25.7326 25.1237 25.7339 22.6875Z" fill="white"/>
<path d="M6.64048 29.9775H9.52985C9.68869 29.9812 9.84713 29.9949 10.0042 30.0187C9.69143 30.0823 9.41608 30.2661 9.23735 30.5306C9.07211 30.8261 8.99959 31.1646 9.02923 31.5018V33.4612C9.02848 33.6305 9.06115 33.7982 9.12534 33.9547C9.18953 34.1113 9.28399 34.2537 9.4033 34.3737C9.52262 34.4937 9.66444 34.589 9.82065 34.6541C9.97685 34.7192 10.1444 34.7529 10.3136 34.7531H12.5486C12.8462 34.747 13.1322 34.637 13.3572 34.4422C13.5822 34.2473 13.732 33.9799 13.7805 33.6862C13.7955 32.8481 13.7805 31.9987 13.7805 31.1681C13.7772 30.8927 13.6778 30.6271 13.4994 30.4172C13.321 30.2073 13.0749 30.0664 12.8036 30.0187C12.9595 29.9957 13.1167 29.9826 13.2742 29.9793H25.7242V36.9843C29.633 34.6456 33.5399 32.3031 37.4449 29.9568C37.8199 29.9906 38.178 29.97 38.5455 29.9756H47.4348C47.6855 29.9663 47.9364 29.9788 48.1848 30.0131C47.988 30.0496 47.8033 30.1347 47.6478 30.2608C47.4922 30.3869 47.3707 30.5499 47.2942 30.735C47.2138 30.9808 47.185 31.2406 47.2099 31.4981V33.3993C47.1989 33.5748 47.2245 33.7506 47.285 33.9156C47.3456 34.0806 47.4397 34.2313 47.5615 34.358C47.6833 34.4847 47.8301 34.5848 47.9926 34.6518C48.1551 34.7189 48.3297 34.7514 48.5055 34.7475H50.6805C51.013 34.7487 51.333 34.6207 51.5729 34.3905C51.8129 34.1604 51.9541 33.846 51.9667 33.5137V31.6687C52.0103 31.2903 51.9453 30.9072 51.7792 30.5643C51.6927 30.4238 51.5781 30.3027 51.4426 30.2085C51.3071 30.1143 51.1536 30.0491 50.9917 30.0168C51.1284 29.9955 51.2661 29.9817 51.4042 29.9756H54.3536C54.3742 33.2025 54.3536 36.4312 54.3536 39.66V51.4593C54.3475 52.5941 53.9412 53.6904 53.2061 54.555C52.4587 55.4347 51.4173 56.0131 50.2755 56.1825C49.6642 56.2407 49.0499 56.2614 48.4361 56.2443H13.1074C12.2513 56.2795 11.3938 56.2494 10.5424 56.1543C9.65507 55.9884 8.83257 55.5756 8.16926 54.9634C7.50595 54.3511 7.02872 53.5643 6.79235 52.6931C6.67351 52.2365 6.61675 51.7661 6.6236 51.2943V31.6706C6.63673 31.1081 6.61985 30.5418 6.64048 29.9775ZM10.0061 37.1831C9.71694 37.2296 9.45729 37.387 9.28235 37.6218C9.10623 37.8768 9.01803 38.1822 9.0311 38.4918V40.6706C9.0442 41.0027 9.18554 41.3168 9.4254 41.5469C9.66527 41.777 9.98498 41.9051 10.3174 41.9043H12.723C13.0342 41.8501 13.3147 41.6834 13.5111 41.4359C13.7075 41.1884 13.806 40.8773 13.788 40.5618V38.3287C13.7885 38.1674 13.7554 38.0077 13.6908 37.8599C13.6263 37.712 13.5316 37.5793 13.413 37.47C13.1603 37.2514 12.8337 37.1374 12.4999 37.1512H10.3699C10.2479 37.15 10.126 37.1607 10.0061 37.1831ZM48.1924 37.1831C47.9293 37.2248 47.6886 37.3556 47.5104 37.5536C47.3323 37.7515 47.2275 38.0046 47.2136 38.2706V40.5618C47.2026 40.737 47.2282 40.9126 47.2886 41.0774C47.3491 41.2422 47.4431 41.3926 47.5647 41.5192C47.6864 41.6457 47.8329 41.7457 47.9952 41.8126C48.1575 41.8796 48.3319 41.9121 48.5074 41.9081C49.3098 41.9081 50.1142 41.9175 50.9167 41.9081C51.2132 41.8485 51.4801 41.6883 51.6721 41.4546C51.8641 41.2209 51.9695 40.9281 51.9705 40.6256V38.7262C52.0135 38.3555 51.9324 37.981 51.7398 37.6612C51.6244 37.5055 51.474 37.379 51.3007 37.2921C51.1275 37.2051 50.9362 37.1601 50.7423 37.1606H48.9536C48.6997 37.145 48.445 37.1538 48.1924 37.1831ZM10.008 44.34C9.85793 44.3632 9.71412 44.4165 9.58523 44.4967C9.45634 44.5769 9.34501 44.6824 9.25798 44.8068C9.09579 45.0562 9.01459 45.3496 9.02548 45.6468V47.7693C9.02764 48.0834 9.14234 48.3863 9.34876 48.623C9.55518 48.8597 9.83963 49.0145 10.1505 49.0593H12.7305C13.0417 49.0047 13.3221 48.8375 13.5181 48.5896C13.7141 48.3417 13.8122 48.0305 13.7936 47.715V45.4856C13.7944 45.324 13.7614 45.1639 13.6968 45.0157C13.6323 44.8676 13.5375 44.7345 13.4186 44.625C13.1673 44.4077 12.843 44.2938 12.5111 44.3062H10.3717C10.2497 44.3056 10.1278 44.3169 10.008 44.34ZM48.1867 44.34C47.9738 44.3747 47.7748 44.468 47.6118 44.6094C47.4489 44.7508 47.3286 44.9347 47.2642 45.1406C47.2118 45.3424 47.1935 45.5515 47.2099 45.7593V48C47.2591 48.2926 47.4089 48.5589 47.6334 48.753C47.8579 48.9471 48.1431 49.0567 48.4398 49.0631H50.6767C50.8507 49.0622 51.0226 49.0263 51.1824 48.9575C51.3421 48.8886 51.4863 48.7883 51.6064 48.6624C51.7265 48.5366 51.82 48.3878 51.8812 48.225C51.9425 48.0622 51.9703 47.8888 51.963 47.715V45.5325C51.9633 45.3314 51.9147 45.1333 51.8213 44.9552C51.7278 44.7771 51.5924 44.6245 51.4267 44.5106C50.9634 44.3067 50.4526 44.2353 49.9511 44.3043C49.3661 44.3231 48.7717 44.2668 48.1886 44.3381L48.1867 44.34Z" fill="#C0392B"/>
</svg>
