<svg width="60" height="60" viewBox="0 0 60 60" fill="none" xmlns="http://www.w3.org/2000/svg">
<path d="M46.4345 42.8531C46.4345 42.8531 39.3517 49.5 29.986 49.5C20.6204 49.5 13.5423 42.8531 13.5423 42.8531C13.5423 42.8531 12.2251 36.5297 15.6282 25.6125C17.4235 19.8562 42.9704 19.2703 44.972 24.3047C48.3751 32.85 46.4345 42.8531 46.4345 42.8531Z" fill="#424242"/>
<path d="M13.5423 42.8531L15.7876 44.6531C15.7876 44.6531 15.7688 41.0906 16.8704 37.7672C17.2829 36.525 18.7548 36.0047 19.861 36.7031L28.4345 42.0797C28.9045 42.374 29.447 42.532 30.0015 42.5361C30.556 42.5403 31.1008 42.3904 31.5751 42.1031C35.672 39.6188 46.3595 33.1172 46.847 32.7188C46.847 32.7188 46.847 31.9172 46.6454 30.8953L13.4204 30.9375L13.5423 42.8531Z" fill="#212121"/>
<path d="M57.5673 24.3891L30.9423 40.2469C30.361 40.5938 29.6345 40.5938 29.0485 40.2469L2.43291 24.3891C1.69229 23.9484 1.69229 22.875 2.43291 22.4344L29.0579 6.57656C29.6392 6.22969 30.3657 6.22969 30.9517 6.57656L57.5767 22.4344C58.3126 22.875 58.3126 23.9484 57.5673 24.3891Z" fill="#424242"/>
<path d="M30.0187 39.0844C30.014 39.0844 30.0047 39.0891 30 39.0891C29.925 39.0891 29.85 39.0703 29.7843 39.0281L1.95934 22.9875C1.95934 22.9875 1.8234 23.2453 1.95934 23.7094C2.09997 24.1734 2.31559 24.3234 2.43278 24.3937L29.0578 40.2516C29.3484 40.425 29.6765 40.514 30.0047 40.514H30.0234V39.0844H30.0187Z" fill="#9E9E9E"/>
<path d="M29.9998 39.0844C30.0045 39.0844 30.0139 39.0891 30.0186 39.0891C30.0936 39.0891 30.1686 39.0703 30.2342 39.0281L58.0592 22.9875C58.0592 22.9875 58.1951 23.2453 58.0592 23.7094C57.9186 24.1734 57.7029 24.3234 57.5857 24.3937L30.9607 40.2516C30.6701 40.425 30.342 40.514 30.0139 40.514H29.9951V39.0844H29.9998Z" fill="#616161"/>
<path d="M16.6172 32.8406L16.7672 31.5235C16.7672 31.5235 28.2563 25.275 29.3906 24.6188C30.525 23.9625 31.7156 23.2313 32.2453 22.6453C33.1828 21.6141 32.5078 20.9672 32.5078 20.9672C32.5078 20.9672 31.7672 22.1672 30 21.9563C28.9875 21.8344 27.6703 21.0141 27.45 20.6297C27.2297 20.2453 14.4797 29.9578 14.4797 29.9578L14.3906 31.5188L16.6172 32.8406Z" fill="#424242"/>
<path d="M32.5076 20.9719C31.2794 22.6875 29.1982 21.9375 29.1982 21.9375C29.1982 21.9375 22.6779 25.0641 22.4341 24.5906C22.1904 24.1172 27.8201 21.2203 27.8201 21.2203C27.8201 21.2203 27.506 20.0672 27.5388 19.575C27.5388 19.575 17.3576 26.0531 13.5373 28.2328C11.5357 29.3766 11.1091 30.4547 11.1138 31.9734C11.1138 32.6391 11.1232 34.8 11.1326 36.0891C11.1326 36.3281 11.0294 36.5531 10.8466 36.7031C10.5698 36.93 10.3468 37.2154 10.1936 37.5388C10.0404 37.8622 9.96087 38.2156 9.9607 38.5735C9.9607 39.2906 10.2748 39.9328 10.7716 40.3781C11.0388 40.6172 10.9826 41.1328 11.006 41.4656C11.0529 42.1031 11.006 42.3938 10.7435 42.9844C10.4857 43.5609 10.2466 44.1516 10.0826 44.761C9.95601 45.2297 9.87163 45.7125 9.78726 46.1906C9.22945 49.3922 8.97632 52.8141 7.49976 55.7578C7.47195 55.8128 7.45535 55.8728 7.45091 55.9343C7.44648 55.9958 7.4543 56.0575 7.47392 56.116C7.49355 56.1744 7.52458 56.2284 7.56523 56.2747C7.60587 56.3211 7.65532 56.3589 7.7107 56.3859C7.82203 56.4421 7.95107 56.452 8.06964 56.4133C8.18821 56.3747 8.28667 56.2907 8.34351 56.1797C9.11226 54.6469 9.5107 52.9688 9.83882 51.3047C9.82007 52.8094 9.8107 54.3281 9.75913 55.9688C9.74976 56.2875 9.72632 56.9297 10.0169 57.0703C11.1091 57.6 11.1091 55.9688 11.1091 55.9688C11.1091 55.9688 11.1232 57.436 12.6091 57.436C14.0951 57.436 14.2029 55.9688 14.2029 55.9688C14.2029 55.9688 14.3107 57.3141 15.0748 57.2484C15.3841 57.2203 15.7919 57.0328 15.6466 55.425C15.5013 53.8219 15.1404 48.075 14.9857 46.2563C14.7701 43.7391 13.9451 42.2438 13.7763 41.3531C13.7154 41.0156 13.7107 40.6641 13.9779 40.4438C14.2498 40.2209 14.47 39.9416 14.623 39.6251C14.7761 39.3086 14.8583 38.9625 14.8641 38.611C14.8699 38.2595 14.7991 37.9109 14.6566 37.5895C14.5141 37.2682 14.3033 36.9817 14.0388 36.75C13.9448 36.6679 13.8713 36.565 13.8241 36.4494C13.7769 36.3338 13.7573 36.2088 13.7669 36.0844C13.856 34.8703 13.9544 33.1078 14.0341 32.7C14.381 30.8672 15.2857 30.5391 16.2138 29.9953C17.1419 29.4469 30.5857 23.3438 31.3685 22.8234C32.8169 21.8531 32.5076 20.9719 32.5076 20.9719Z" fill="#E2A610"/>
<path d="M32.5081 20.9719C31.3502 22.6078 28.9456 21.8766 28.9456 21.8766C28.9456 21.8766 22.8002 24.6 23.2081 24.1078C23.6112 23.6156 27.8206 21.2203 27.8206 21.2203C27.8206 21.2203 27.5065 20.0672 27.5393 19.575C27.5393 19.575 17.1799 25.5609 13.1627 28.4391C12.1268 29.1844 10.8424 30.4031 11.8877 31.6172C12.3706 32.175 13.3034 32.2922 13.8987 31.8516C14.2596 31.5891 14.5409 31.2047 14.8596 30.9C15.2534 30.5156 15.7315 30.2719 16.2002 29.9953C17.1284 29.4469 30.5721 23.3438 31.3549 22.8234C32.8174 21.8531 32.5081 20.9719 32.5081 20.9719Z" fill="#FFCA28"/>
<path d="M12.2391 43.0593C11.6203 43.0593 11.2031 43.0078 10.8234 42.9187C10.7557 42.9032 10.6958 42.864 10.6545 42.8081C10.6132 42.7522 10.5933 42.6833 10.5984 42.614L10.7203 40.8234C10.7344 40.6406 10.9078 40.514 11.0859 40.5656C11.5078 40.6875 12.3516 40.8093 13.7297 40.5187C13.8984 40.4812 14.0672 40.5984 14.0859 40.7718L14.2734 42.5531C14.2875 42.6984 14.1938 42.8343 14.0531 42.8672C13.3359 43.0312 12.8156 43.0593 12.2391 43.0593Z" fill="#9E740B"/>
<path d="M46.4343 42.8531C46.4343 42.8531 47.264 38.5219 46.9312 33.9141C46.8749 33.1359 46.3968 32.4656 46.0265 35.1891C45.8155 36.75 45.3562 41.4234 44.5733 44.3437C45.7687 43.4812 46.4343 42.8531 46.4343 42.8531ZM30.8108 17.2453C31.153 17.3531 31.4671 17.6156 31.5562 17.9672C31.6733 18.4359 31.378 18.9047 31.0593 19.2703C30.4358 19.9875 29.578 20.6156 28.6265 20.5828C28.3124 20.5734 27.9749 20.4703 27.7827 20.2219C27.6468 20.0484 27.5999 19.8234 27.5858 19.6031C27.5015 17.9953 29.3202 16.7766 30.8108 17.2453Z" fill="#616161"/>
</svg>
