<svg width="36" height="36" viewBox="0 0 36 36" fill="none" xmlns="http://www.w3.org/2000/svg">
<path d="M3.67578 8.55002C3.67578 6.81122 5.08698 5.40002 6.82578 5.40002H22.052C23.7908 5.40002 25.202 6.81122 25.202 8.55002V10.8H26.7878C27.2895 10.8 27.7812 10.9398 28.2079 11.2037C28.6346 11.4676 28.9793 11.8452 29.2034 12.294L32.1158 18.117C32.3034 18.4914 32.4014 18.9043 32.402 19.323V26.1C32.402 26.8161 32.1175 27.5029 31.6112 28.0092C31.1048 28.5156 30.4181 28.8 29.702 28.8H26.912C26.7054 29.8173 26.1535 30.7318 25.3498 31.3888C24.5461 32.0457 23.54 32.4045 22.502 32.4045C21.464 32.4045 20.4579 32.0457 19.6541 31.3888C18.8504 30.7318 18.2985 29.8173 18.092 28.8H16.112C15.9054 29.8173 15.3535 30.7318 14.5498 31.3888C13.7461 32.0457 12.74 32.4045 11.702 32.4045C10.664 32.4045 9.65786 32.0457 8.85415 31.3888C8.05044 30.7318 7.49854 29.8173 7.29198 28.8H6.82578C5.99035 28.8 5.18913 28.4681 4.59839 27.8774C4.00766 27.2867 3.67578 26.4855 3.67578 25.65V8.55002ZM18.0902 27C18.2083 26.4208 18.4393 25.8706 18.7701 25.3807C19.1009 24.8908 19.5249 24.4709 20.018 24.145C20.5111 23.819 21.0636 23.5934 21.6439 23.481C22.2243 23.3687 22.821 23.3717 23.4002 23.49V8.55002C23.4002 8.19198 23.2579 7.8486 23.0048 7.59543C22.7516 7.34226 22.4082 7.20002 22.0502 7.20002H6.82758C6.46954 7.20002 6.12616 7.34226 5.87299 7.59543C5.61981 7.8486 5.47758 8.19198 5.47758 8.55002V25.65C5.47758 26.3952 6.08238 27 6.82758 27H7.29378C7.50034 25.9828 8.05224 25.0682 8.85595 24.4113C9.65966 23.7544 10.6658 23.3955 11.7038 23.3955C12.7418 23.3955 13.7479 23.7544 14.5516 24.4113C15.3553 25.0682 15.9072 25.9828 16.1138 27H18.0938H18.0902ZM25.2002 24.3C26.0642 24.948 26.6888 25.902 26.9102 27H29.7002C29.9389 27 30.1678 26.9052 30.3366 26.7364C30.5054 26.5676 30.6002 26.3387 30.6002 26.1V19.8H25.2002V24.3ZM25.2002 18H30.0458L27.5942 13.0968C27.5194 12.9475 27.4045 12.822 27.2624 12.7342C27.1203 12.6465 26.9566 12.6 26.7896 12.6H25.2002V18ZM11.7002 25.2C10.9841 25.2 10.2973 25.4845 9.79099 25.9908C9.28464 26.4972 9.00018 27.1839 9.00018 27.9C9.00018 28.6161 9.28464 29.3029 9.79099 29.8092C10.2973 30.3156 10.9841 30.6 11.7002 30.6C12.4163 30.6 13.103 30.3156 13.6094 29.8092C14.1157 29.3029 14.4002 28.6161 14.4002 27.9C14.4002 27.1839 14.1157 26.4972 13.6094 25.9908C13.103 25.4845 12.4163 25.2 11.7002 25.2ZM19.8002 27.9C19.8002 28.2546 19.87 28.6057 20.0057 28.9333C20.1414 29.2608 20.3403 29.5585 20.591 29.8092C20.8417 30.0599 21.1394 30.2588 21.4669 30.3945C21.7945 30.5302 22.1456 30.6 22.5002 30.6C22.8547 30.6 23.2058 30.5302 23.5334 30.3945C23.861 30.2588 24.1586 30.0599 24.4094 29.8092C24.6601 29.5585 24.859 29.2608 24.9947 28.9333C25.1303 28.6057 25.2002 28.2546 25.2002 27.9C25.2002 27.1839 24.9157 26.4972 24.4094 25.9908C23.903 25.4845 23.2163 25.2 22.5002 25.2C21.7841 25.2 21.0973 25.4845 20.591 25.9908C20.0846 26.4972 19.8002 27.1839 19.8002 27.9Z" fill="#434343"/>
</svg>
