<svg width="36" height="36" viewBox="0 0 36 36" fill="none" xmlns="http://www.w3.org/2000/svg">
<path d="M6 31.5C5.175 31.5 4.4685 31.206 3.8805 30.618C3.2925 30.03 2.999 29.324 3 28.5V12C3 11.175 3.294 10.4685 3.882 9.8805C4.47 9.2925 5.176 8.999 6 9H12V6C12 5.175 12.294 4.4685 12.882 3.8805C13.47 3.2925 14.176 2.999 15 3H21C21.825 3 22.5315 3.294 23.1195 3.882C23.7075 4.47 24.001 5.176 24 6V9H30C30.825 9 31.5315 9.294 32.1195 9.882C32.7075 10.47 33.001 11.176 33 12V28.5C33 29.325 32.706 30.0315 32.118 30.6195C31.53 31.2075 30.824 31.501 30 31.5H6ZM6 28.5H30V12H6V28.5ZM15 9H21V6H15V9Z" fill="#434343"/>
</svg>
