<svg width="64" height="65" viewBox="0 0 64 65" fill="none" xmlns="http://www.w3.org/2000/svg">
<g clip-path="url(#clip0_962_75426)">
<path d="M9.37988 59.545V64.49H52.9499V59.545C52.9499 51.96 42.2549 48.11 31.3299 48.125C20.4699 48.14 9.37988 51.515 9.37988 59.545Z" fill="#424242"/>
<path d="M31.165 45.625H26.625V50.42C26.625 52.59 28.475 54.35 30.755 54.35H31.58C33.86 54.35 35.71 52.59 35.71 50.42V45.625H31.165Z" fill="#E49500"/>
<path d="M36.0851 64.5001H26.2451V48.3501L31.1651 54.3501L36.0851 48.3501V64.5001Z" fill="#424242"/>
<path d="M47.2852 26.6699C47.2852 26.6699 50.2302 27.1799 50.2302 30.3549C50.2302 33.1549 48.0802 34.2599 45.9302 34.2599V26.6699H47.2852ZM15.1452 26.6699C15.1452 26.6699 12.2002 27.1799 12.2002 30.3549C12.2002 33.1549 14.3502 34.2599 16.5002 34.2599V26.6699H15.1452Z" fill="#E39400"/>
<path d="M31.2148 5.88477C18.5148 5.88477 15.1948 15.7298 15.1948 29.5598C15.1948 43.8998 24.4098 47.6098 31.2148 47.6098C37.9198 47.6098 47.2348 44.0098 47.2348 29.5598C47.2398 15.7298 43.9148 5.88477 31.2148 5.88477Z" fill="#FAC01B"/>
<path d="M25.9398 30.8449C25.9398 32.2749 24.9848 33.4299 23.7998 33.4299C22.6198 33.4299 21.6548 32.2699 21.6548 30.8449C21.6548 29.4149 22.6148 28.2549 23.7998 28.2549C24.9848 28.2549 25.9398 29.4099 25.9398 30.8449ZM36.4898 30.8449C36.4898 32.2749 37.4448 33.4299 38.6348 33.4299C39.8148 33.4299 40.7748 32.2699 40.7748 30.8449C40.7748 29.4149 39.8148 28.2549 38.6348 28.2549C37.4448 28.2549 36.4898 29.4099 36.4898 30.8449Z" fill="#444444"/>
<path d="M35.8549 39.5801H26.5849C26.0549 39.5801 25.8249 39.9351 26.1749 40.4751C26.6649 41.2251 28.4949 42.6651 31.2199 42.6651C33.9449 42.6651 35.7749 41.2251 36.2649 40.4751C36.6149 39.9351 36.3849 39.5801 35.8549 39.5801Z" fill="#513F35"/>
<path d="M33.4551 35.64C32.6651 35.865 31.8451 35.97 31.2151 35.97C30.5851 35.97 29.7651 35.86 28.9751 35.64C28.6401 35.545 28.5051 35.865 28.6251 36.075C28.8751 36.515 29.8851 37.405 31.2151 37.405C32.5451 37.405 33.5551 36.515 33.8051 36.075C33.9251 35.86 33.7951 35.54 33.4551 35.64Z" fill="#E39400"/>
<path d="M31.6002 4.08013C31.6002 4.08013 31.3502 4.07013 31.2452 4.07513C31.1402 4.07513 30.8902 4.08013 30.8902 4.08013C17.1852 4.34513 13.0552 12.5901 13.0552 18.3051C13.0552 23.8601 13.0602 27.9451 13.0602 27.9451C13.0602 27.9451 13.2802 27.7201 13.6802 27.4051C14.1102 27.0701 14.5852 26.8851 14.5852 26.8851L15.2752 31.5251L19.8402 21.9851C19.8702 21.9251 19.9302 21.8901 19.9952 21.9001L22.7002 22.2001C25.4202 22.5001 28.1552 22.6501 30.8852 22.6551V22.6601C31.0052 22.6601 31.1202 22.6551 31.2402 22.6551C31.3602 22.6551 31.4752 22.6601 31.5952 22.6601V22.6501C34.3252 22.6401 37.0602 22.4951 39.7802 22.1951L42.4852 21.8951C42.5502 21.8901 42.6102 21.9251 42.6402 21.9801L47.2052 31.5201L47.8952 26.8801C47.8952 26.8801 48.3702 27.0701 48.8002 27.4001C49.2052 27.7151 49.4202 27.9401 49.4202 27.9401C49.4202 27.9401 49.4252 23.8601 49.4252 18.3001C49.4352 12.5901 45.3052 4.34513 31.6002 4.08013Z" fill="#6D4C41"/>
<path d="M31.18 0.5L6.25 5.11L31.245 0.51L31.18 0.5Z" fill="#262626"/>
<path d="M31.3201 0.505L31.3051 0.5L31.2451 0.51L31.3201 0.525V0.505Z" fill="#424143"/>
<path d="M31.4599 0.5L56.3949 5.11L31.3999 0.51L31.4599 0.5Z" fill="#262626"/>
<path d="M56.4052 6.37986L56.3952 5.10986L31.3402 8.73986H31.3102L6.25023 5.10986L6.24023 6.37986L16.2752 8.13486L15.4152 10.5649C17.2552 11.3749 23.9202 14.0649 31.3202 14.2599C38.7202 14.0599 45.1502 11.3749 46.9902 10.5649L46.1302 8.13486L56.4052 6.37986Z" fill="#262626"/>
<path d="M31.3198 0.505L31.3398 0.5L31.3998 0.51L31.3198 0.525V0.505Z" fill="#424143"/>
<path d="M31.4 0.509766L31.32 0.524766L31.245 0.509766L6.25 5.10977L31.305 8.73977L31.32 8.73477L31.34 8.73977L56.395 5.10977L31.4 0.509766Z" fill="#424143"/>
<path d="M56.8501 23.4502C56.3451 23.4502 55.9401 23.8602 55.9401 24.3602V28.2752C55.9401 28.5165 56.036 28.748 56.2066 28.9187C56.3773 29.0893 56.6088 29.1852 56.8501 29.1852C57.0915 29.1852 57.3229 29.0893 57.4936 28.9187C57.6642 28.748 57.7601 28.5165 57.7601 28.2752V24.3602C57.7601 23.8602 57.3551 23.4502 56.8501 23.4502ZM55.0301 23.4502C54.5251 23.4502 54.1201 23.8602 54.1201 24.3602V28.2752C54.1201 28.5165 54.216 28.748 54.3867 28.9187C54.5573 29.0893 54.7888 29.1852 55.0301 29.1852C55.2715 29.1852 55.5029 29.0893 55.6736 28.9187C55.8442 28.748 55.9401 28.5165 55.9401 28.2752V24.3602C55.9401 23.8602 55.5351 23.4502 55.0301 23.4502Z" fill="#FBC11B"/>
<path d="M55.6102 23.4502C55.1052 23.4502 54.7002 23.8602 54.7002 24.3602V28.2752C54.7002 28.5165 54.7961 28.748 54.9667 28.9187C55.1374 29.0893 55.3688 29.1852 55.6102 29.1852C55.8515 29.1852 56.083 29.0893 56.2537 28.9187C56.4243 28.748 56.5202 28.5165 56.5202 28.2752V24.3602C56.5202 23.8602 56.1152 23.4502 55.6102 23.4502Z" fill="#E49500"/>
<path d="M56.305 23.4502C55.8 23.4502 55.395 23.8602 55.395 24.3602V28.2752C55.395 28.7802 55.805 29.1852 56.305 29.1852C56.805 29.1852 57.215 28.7752 57.215 28.2752V24.3602C57.215 23.8602 56.81 23.4502 56.305 23.4502Z" fill="#E49500"/>
<path d="M55.9398 23.4502C55.4348 23.4502 55.0298 23.8602 55.0298 24.3602V29.1202C55.0298 29.3615 55.1257 29.593 55.2963 29.7637C55.467 29.9343 55.6984 30.0302 55.9398 30.0302C56.1811 30.0302 56.4126 29.9343 56.5833 29.7637C56.7539 29.593 56.8498 29.3615 56.8498 29.1202V24.3602C56.8498 23.8602 56.4448 23.4502 55.9398 23.4502Z" fill="#FBC11B"/>
<path d="M55.9402 24.2202C56.509 24.2202 56.9702 23.759 56.9702 23.1902C56.9702 22.6213 56.509 22.1602 55.9402 22.1602C55.3713 22.1602 54.9102 22.6213 54.9102 23.1902C54.9102 23.759 55.3713 24.2202 55.9402 24.2202Z" fill="#E49500"/>
<path d="M55.9402 23.955C56.509 23.955 56.9702 23.4939 56.9702 22.925C56.9702 22.3562 56.509 21.895 55.9402 21.895C55.3713 21.895 54.9102 22.3562 54.9102 22.925C54.9102 23.4939 55.3713 23.955 55.9402 23.955Z" fill="#FBC11B"/>
<path d="M55.4902 5.2251V22.7001H55.5002C55.5202 22.9301 55.7102 23.1151 55.9452 23.1151C56.1802 23.1151 56.3702 22.9351 56.3902 22.7001H56.4002V5.2251H55.4902Z" fill="#262626"/>
</g>
<defs>
<clipPath id="clip0_962_75426">
<rect width="64" height="64" fill="white" transform="translate(0 0.5)"/>
</clipPath>
</defs>
</svg>
