<svg width="36" height="36" viewBox="0 0 36 36" fill="none" xmlns="http://www.w3.org/2000/svg">
<path d="M7.317 4.5C7.16782 4.5 7.02474 4.55926 6.91925 4.66475C6.81376 4.77024 6.7545 4.91332 6.7545 5.0625L6.75 24.1875C6.75 24.498 7.002 24.75 7.3125 24.75H11.25V27H7.3125C5.76 27 4.5 25.74 4.5 24.1875L4.5045 5.0625C4.5045 3.51 5.7645 2.25 7.317 2.25H17.4488C19.0013 2.25 20.2613 3.51 20.2613 5.06475L20.2568 9.5625C20.2568 9.873 20.5065 10.125 20.8193 10.125H21.9375C22.664 10.1244 23.3625 10.4049 23.8867 10.9078C24.411 11.4107 24.7204 12.0969 24.75 12.8228C23.7151 12.2265 22.4858 12.0655 21.3323 12.375H20.8193C20.4497 12.375 20.0838 12.3022 19.7424 12.1607C19.4011 12.0192 19.0909 11.8118 18.8297 11.5504C18.5685 11.289 18.3614 10.9787 18.2202 10.6372C18.079 10.2958 18.0065 9.92978 18.0068 9.56025L18.0113 5.0625C18.0113 4.91332 17.952 4.77024 17.8465 4.66475C17.741 4.55926 17.5979 4.5 17.4488 4.5H7.317ZM24.0322 15.075C23.6161 14.6885 23.0691 14.4737 22.5011 14.4737C21.9331 14.4737 21.3862 14.6885 20.97 15.075L14.58 21.0082C14.2393 21.3242 13.9675 21.7071 13.7817 22.133C13.5958 22.5589 13.4999 23.0186 13.5 23.4832V31.5C13.5 32.0967 13.7371 32.669 14.159 33.091C14.581 33.5129 15.1533 33.75 15.75 33.75H19.125C19.7217 33.75 20.294 33.5129 20.716 33.091C21.1379 32.669 21.375 32.0967 21.375 31.5V29.25H23.625V31.5C23.625 32.0967 23.8621 32.669 24.284 33.091C24.706 33.5129 25.2783 33.75 25.875 33.75H29.25C29.8467 33.75 30.419 33.5129 30.841 33.091C31.2629 32.669 31.5 32.0967 31.5 31.5V23.481C31.5001 23.0163 31.4042 22.5567 31.2183 22.1308C31.0325 21.7049 30.7607 21.322 30.42 21.006L24.0322 15.075ZM16.11 22.6575L22.5 16.722L28.89 22.6575C29.0034 22.7627 29.0939 22.89 29.1558 23.0317C29.2177 23.1734 29.2498 23.3264 29.25 23.481V31.5H25.875V29.25C25.875 28.6533 25.6379 28.081 25.216 27.659C24.794 27.2371 24.2217 27 23.625 27H21.375C20.7783 27 20.206 27.2371 19.784 27.659C19.3621 28.081 19.125 28.6533 19.125 29.25V31.5H15.75V23.481C15.7502 23.3264 15.7823 23.1734 15.8442 23.0317C15.9061 22.89 15.9966 22.7627 16.11 22.6575ZM11.25 7.875C11.25 8.17337 11.1315 8.45952 10.9205 8.6705C10.7095 8.88147 10.4234 9 10.125 9C9.82663 9 9.54048 8.88147 9.3295 8.6705C9.11853 8.45952 9 8.17337 9 7.875C9 7.57663 9.11853 7.29048 9.3295 7.0795C9.54048 6.86853 9.82663 6.75 10.125 6.75C10.4234 6.75 10.7095 6.86853 10.9205 7.0795C11.1315 7.29048 11.25 7.57663 11.25 7.875ZM10.125 13.5C10.4234 13.5 10.7095 13.3815 10.9205 13.1705C11.1315 12.9595 11.25 12.6734 11.25 12.375C11.25 12.0766 11.1315 11.7905 10.9205 11.5795C10.7095 11.3685 10.4234 11.25 10.125 11.25C9.82663 11.25 9.54048 11.3685 9.3295 11.5795C9.11853 11.7905 9 12.0766 9 12.375C9 12.6734 9.11853 12.9595 9.3295 13.1705C9.54048 13.3815 9.82663 13.5 10.125 13.5ZM11.25 16.875C11.25 17.1734 11.1315 17.4595 10.9205 17.6705C10.7095 17.8815 10.4234 18 10.125 18C9.82663 18 9.54048 17.8815 9.3295 17.6705C9.11853 17.4595 9 17.1734 9 16.875C9 16.5766 9.11853 16.2905 9.3295 16.0795C9.54048 15.8685 9.82663 15.75 10.125 15.75C10.4234 15.75 10.7095 15.8685 10.9205 16.0795C11.1315 16.2905 11.25 16.5766 11.25 16.875ZM14.625 9C14.9234 9 15.2095 8.88147 15.4205 8.6705C15.6315 8.45952 15.75 8.17337 15.75 7.875C15.75 7.57663 15.6315 7.29048 15.4205 7.0795C15.2095 6.86853 14.9234 6.75 14.625 6.75C14.3266 6.75 14.0405 6.86853 13.8295 7.0795C13.6185 7.29048 13.5 7.57663 13.5 7.875C13.5 8.17337 13.6185 8.45952 13.8295 8.6705C14.0405 8.88147 14.3266 9 14.625 9ZM15.75 12.375C15.75 12.6734 15.6315 12.9595 15.4205 13.1705C15.2095 13.3815 14.9234 13.5 14.625 13.5C14.3266 13.5 14.0405 13.3815 13.8295 13.1705C13.6185 12.9595 13.5 12.6734 13.5 12.375C13.5 12.0766 13.6185 11.7905 13.8295 11.5795C14.0405 11.3685 14.3266 11.25 14.625 11.25C14.9234 11.25 15.2095 11.3685 15.4205 11.5795C15.6315 11.7905 15.75 12.0766 15.75 12.375ZM14.625 18C14.9234 18 15.2095 17.8815 15.4205 17.6705C15.6315 17.4595 15.75 17.1734 15.75 16.875C15.75 16.5766 15.6315 16.2905 15.4205 16.0795C15.2095 15.8685 14.9234 15.75 14.625 15.75C14.3266 15.75 14.0405 15.8685 13.8295 16.0795C13.6185 16.2905 13.5 16.5766 13.5 16.875C13.5 17.1734 13.6185 17.4595 13.8295 17.6705C14.0405 17.8815 14.3266 18 14.625 18Z" fill="#434343"/>
</svg>
