<svg width="36" height="36" viewBox="0 0 36 36" fill="none" xmlns="http://www.w3.org/2000/svg">
<path d="M16.6844 4.25566C16.1016 3.81323 15.4085 3.54381 14.6829 3.47759C13.9573 3.41137 13.2278 3.55097 12.5761 3.88073C11.9245 4.2105 11.3764 4.71741 10.9934 5.34466C10.6104 5.97192 10.4075 6.69473 10.4075 7.43211V9.81445H8.83827C8.42209 9.81445 8.02295 9.98178 7.72866 10.2796C7.43437 10.5775 7.26904 10.9815 7.26904 11.4027V24.1085C7.26904 25.3721 7.76503 26.5841 8.6479 27.4776C9.53076 28.3712 10.7282 28.8732 11.9767 28.8732H19.0854L17.5491 27.2849H11.9767C11.1444 27.2849 10.3461 26.9503 9.75751 26.3546C9.16893 25.7589 8.83827 24.9509 8.83827 24.1085V11.4027H18.2537V14.6617C18.517 14.6067 18.7851 14.579 19.054 14.5791H19.8229V11.4027H24.5306V14.7014C25.1049 14.8491 25.6432 15.1271 26.0998 15.5178V11.4027C26.0998 10.9815 25.9345 10.5775 25.6402 10.2796C25.3459 9.98178 24.9468 9.81445 24.5306 9.81445H22.9614V7.43211C22.9614 6.69473 22.7585 5.97192 22.3755 5.34466C21.9924 4.71741 21.4444 4.2105 20.7927 3.88073C20.1411 3.55097 19.4116 3.41137 18.686 3.47759C17.9603 3.54381 17.2673 3.81323 16.6844 4.25566ZM11.9767 7.43211C11.9767 6.80028 12.2247 6.19432 12.6662 5.74755C13.1076 5.30077 13.7063 5.04977 14.3306 5.04977C14.9549 5.04977 15.5536 5.30077 15.995 5.74755C16.4364 6.19432 16.6844 6.80028 16.6844 7.43211V9.81445H11.9767V7.43211ZM17.7311 5.45001C18.0856 5.21042 18.4977 5.07276 18.9235 5.05172C19.3493 5.03068 19.7727 5.12706 20.1486 5.33056C20.5244 5.53406 20.8386 5.83705 21.0577 6.20718C21.2767 6.5773 21.3923 7.00068 21.3921 7.43211V9.81445H18.2537V7.43211C18.2537 6.71106 18.0638 6.03447 17.7311 5.45001ZM17.3623 24.8216C16.928 24.3727 16.6847 23.7695 16.6844 23.1412V18.5672C16.6842 18.2521 16.7454 17.9401 16.8644 17.6489C16.9833 17.3578 17.1578 17.0932 17.3779 16.8703C17.598 16.6475 17.8592 16.4707 18.1468 16.3501C18.4344 16.2294 18.7427 16.1673 19.054 16.1673H23.5624C24.1948 16.1673 24.8005 16.4231 25.2446 16.8773L30.1202 21.8643C30.3415 22.0905 30.5162 22.3589 30.6342 22.6539C30.7521 22.949 30.811 23.2649 30.8073 23.5831C30.8037 23.9014 30.7376 24.2158 30.6129 24.508C30.4882 24.8002 30.3074 25.0644 30.081 25.2853L25.4564 29.7911C25.0068 30.2296 24.4042 30.4705 23.7799 30.4613C23.1556 30.4521 22.5602 30.1935 22.1234 29.7419L17.3623 24.8216ZM19.8229 20.535C19.8229 20.8509 19.9469 21.1539 20.1676 21.3773C20.3883 21.6006 20.6877 21.7261 20.9998 21.7261C21.312 21.7261 21.6113 21.6006 21.832 21.3773C22.0527 21.1539 22.1767 20.8509 22.1767 20.535C22.1767 20.2191 22.0527 19.9161 21.832 19.6927C21.6113 19.4693 21.312 19.3438 20.9998 19.3438C20.6877 19.3438 20.3883 19.4693 20.1676 19.6927C19.9469 19.9161 19.8229 20.2191 19.8229 20.535Z" fill="#434343"/>
</svg>
