<svg width="72" height="72" viewBox="0 0 72 72" fill="none" xmlns="http://www.w3.org/2000/svg">
<g clip-path="url(#clip0_962_77358)">
<path d="M0 67.5H72V72H0V67.5Z" fill="#D0D0D0"/>
<path d="M2.25 36H69.75V67.5H2.25V36Z" fill="#62727A"/>
<path d="M6.75 47.25H22.5V67.5H6.75V47.25Z" fill="#D6EEF0"/>
<path d="M2.25 30.375H69.75V37.125H2.25V30.375Z" fill="#3E4347"/>
<path d="M0 30.375C0 32.85 2.025 34.875 4.5 34.875C6.975 34.875 9 32.85 9 30.375H0Z" fill="#83BF4F"/>
<path d="M9 30.375C9 32.85 11.025 34.875 13.5 34.875C15.975 34.875 18 32.85 18 30.375H9Z" fill="#D33B23"/>
<path d="M18 30.375C18 32.85 20.025 34.875 22.5 34.875C24.975 34.875 27 32.85 27 30.375H18Z" fill="#83BF4F"/>
<path d="M18 20.25H27V30.375H18V20.25Z" fill="#C7E755"/>
<path d="M27 30.375C27 32.85 29.025 34.875 31.5 34.875C33.975 34.875 36 32.85 36 30.375H27Z" fill="#D33B23"/>
<path d="M27 20.25H36V30.375H27V20.25Z" fill="#F15744"/>
<path d="M0 20.25H9V30.375H0V20.25Z" fill="#C7E755"/>
<path d="M9 20.25H18V30.375H9V20.25Z" fill="#F15744"/>
<path d="M54 20.25H63V30.375H54V20.25Z" fill="#C7E755"/>
<path d="M63 20.25H72V30.375H63V20.25Z" fill="#F15744"/>
<path d="M36 30.375C36 32.85 38.025 34.875 40.5 34.875C42.975 34.875 45 32.85 45 30.375H36Z" fill="#83BF4F"/>
<path d="M36 20.25H45V30.375H36V20.25Z" fill="#C7E755"/>
<path d="M45 30.375C45 32.85 47.025 34.875 49.5 34.875C51.975 34.875 54 32.85 54 30.375H45Z" fill="#D33B23"/>
<path d="M45 20.25H54V30.375H45V20.25Z" fill="#F15744"/>
<path d="M54 30.375C54 32.85 56.025 34.875 58.5 34.875C60.975 34.875 63 32.85 63 30.375H54Z" fill="#83BF4F"/>
<path d="M63 30.375C63 32.85 65.025 34.875 67.5 34.875C69.975 34.875 72 32.85 72 30.375H63Z" fill="#D33B23"/>
<path d="M14.625 37.125C9 37.125 4.5 41.625 4.5 47.25H24.75C24.75 41.625 20.25 37.125 14.625 37.125Z" fill="white"/>
<path d="M7.0874 45H22.1624C21.1499 41.7375 18.2249 39.375 14.6249 39.375C11.0249 39.375 8.0999 41.7375 7.0874 45Z" fill="#62727A"/>
<path d="M6.75 47.25H9V67.5H6.75V47.25ZM20.25 47.25H22.5V67.5H20.25V47.25Z" fill="white"/>
<path d="M9 47.25H20.25V49.5H9V47.25Z" fill="#B4D7EE"/>
<path d="M30.375 37.125H64.125V59.625H30.375V37.125Z" fill="white"/>
<path d="M66.375 63C66.375 63.5625 65.8125 64.125 65.25 64.125H29.25C28.6875 64.125 28.125 63.5625 28.125 63V60.75C28.125 60.1875 28.6875 59.625 29.25 59.625H65.25C65.8125 59.625 66.375 60.1875 66.375 60.75V63Z" fill="#3E4347"/>
<path d="M32.625 39.375H61.875V57.375H32.625V39.375Z" fill="#D6EEF0"/>
<path d="M32.625 39.375H61.875V41.625H32.625V39.375Z" fill="#B4D7EE"/>
<path d="M18 52.875C17.325 52.875 16.875 53.55 16.875 54.3375V56.5875C16.875 57.375 17.325 58.5 17.775 58.95L18.225 59.4C18.675 59.85 19.125 59.625 19.125 58.8375V54.45C19.125 53.55 18.5625 52.875 18 52.875Z" fill="#62727A"/>
<path d="M72 20.25H0V2.25C0 1.0125 1.0125 0 2.25 0H69.75C70.9875 0 72 1.0125 72 2.25V20.25Z" fill="#3E4347"/>
<path d="M3.375 2.25C2.8125 2.25 2.25 2.8125 2.25 3.375V16.875C2.25 17.55 2.8125 18 3.375 18H68.625C69.1875 18 69.75 17.55 69.75 16.875V3.375C69.75 2.8125 69.1875 2.25 68.625 2.25H3.375Z" fill="#E8E8E8"/>
<path d="M19.6877 5.73756C17.1002 4.61256 14.1752 4.05006 11.3627 4.83756C8.66273 5.62506 8.32523 8.88756 10.5752 10.4626C12.7127 11.8126 15.4127 10.6876 17.6627 11.8126C18.5627 12.2626 17.8877 13.0501 17.3252 13.2751C16.5377 13.5001 15.8627 13.5001 15.1877 13.5001C13.7252 13.5001 11.9252 13.2751 10.6877 12.4876C9.45023 11.7001 8.32523 13.6126 9.56273 14.4001C11.7002 15.7501 15.0752 15.9751 17.4377 15.4126C19.9127 14.8501 21.2627 11.9251 19.1252 10.1251C17.3252 8.55006 14.5127 9.22506 12.2627 8.66256C11.5877 8.55006 10.6877 7.98756 11.3627 7.20006C12.0377 6.63756 13.5002 6.75006 14.1752 6.75006C15.6377 6.75006 17.4377 7.20006 18.5627 7.76256C19.9127 8.32506 21.0377 6.30006 19.6877 5.73756ZM56.2502 14.6251V5.62506L55.1252 6.75006C56.0252 6.75006 61.9877 6.52506 60.6377 8.32506C59.7377 9.45006 56.4752 9.00006 55.1252 9.00006C53.6627 9.00006 53.6627 11.2501 55.1252 11.2501C57.6002 11.2501 62.6627 11.7001 63.0002 8.21256C63.3377 3.93756 57.9377 4.50006 55.1252 4.50006C54.5627 4.50006 54.0002 5.06256 54.0002 5.62506V14.6251C54.0002 16.0876 56.2502 16.0876 56.2502 14.6251ZM24.7502 5.62506V14.6251C24.7502 16.0876 27.0002 16.0876 27.0002 14.6251V5.62506C27.0002 4.16256 24.7502 4.16256 24.7502 5.62506ZM33.7502 5.62506V14.6251C33.7502 16.0876 36.0002 16.0876 36.0002 14.6251V5.62506C36.0002 4.16256 33.7502 4.16256 33.7502 5.62506Z" fill="#3E4347"/>
<path d="M25.8752 11.25H34.8752C36.3377 11.25 36.3377 9 34.8752 9H25.8752C24.4127 9 24.4127 11.25 25.8752 11.25Z" fill="#3E4347"/>
<path d="M45 14.625C47.4853 14.625 49.5 12.6103 49.5 10.125C49.5 7.63972 47.4853 5.625 45 5.625C42.5147 5.625 40.5 7.63972 40.5 10.125C40.5 12.6103 42.5147 14.625 45 14.625Z" stroke="#3E4347" stroke-width="2" stroke-miterlimit="10"/>
<path d="M5.625 11.25C6.24632 11.25 6.75 10.7463 6.75 10.125C6.75 9.50368 6.24632 9 5.625 9C5.00368 9 4.5 9.50368 4.5 10.125C4.5 10.7463 5.00368 11.25 5.625 11.25Z" fill="#3E4347"/>
<path d="M66.375 11.25C66.9963 11.25 67.5 10.7463 67.5 10.125C67.5 9.50368 66.9963 9 66.375 9C65.7537 9 65.25 9.50368 65.25 10.125C65.25 10.7463 65.7537 11.25 66.375 11.25Z" fill="#3E4347"/>
</g>
<defs>
<clipPath id="clip0_962_77358">
<rect width="72" height="72" fill="white"/>
</clipPath>
</defs>
</svg>
