<svg width="72" height="72" viewBox="0 0 72 72" fill="none" xmlns="http://www.w3.org/2000/svg">
<path d="M28.8076 43.5586L28.9016 43.8045C28.9308 43.8838 28.975 43.9901 29.0128 44.1019L29.1493 44.4949C29.2028 44.6453 29.2462 44.7971 29.3032 44.9731C29.3575 45.1466 29.4217 45.3408 29.4721 45.5318L29.6479 46.1604C29.7058 46.3794 29.7544 46.5994 29.8131 46.839C30.0643 47.8737 30.2428 48.9246 30.3472 49.9842C30.4071 50.5481 30.4325 51.1102 30.4451 51.6882C30.4459 52.2546 30.4323 52.8355 30.3792 53.403C30.3272 53.9673 30.2415 54.5279 30.1226 55.082C30.0033 55.6258 29.8459 56.1605 29.6514 56.6822C29.2637 57.7163 28.7199 58.672 28.0135 59.5168C27.6641 59.943 27.2557 60.3231 26.8511 60.7167C26.4408 61.1046 26.0209 61.4926 25.5825 61.8686C24.6962 62.6378 23.7701 63.3599 22.8081 64.0321C21.8367 64.7153 20.8149 65.3481 19.7668 65.9287C19.2418 66.2167 18.7098 66.4917 18.1712 66.7535C17.6343 67.0112 17.0912 67.2559 16.5424 67.4871C15.4478 67.9437 14.3449 68.3401 13.2514 68.6685C12.1957 68.9874 11.125 69.254 10.043 69.4674C7.97389 69.88 6.07475 70.0492 4.66315 70.0853L4.15845 70.094L3.70521 70.0936L2.97143 70.0741L2.50104 70.0465L2.33482 70.0321L2.32048 69.8659L2.29292 69.3955L2.27337 68.6618L2.27295 68.2085L2.28167 67.7038C2.31781 66.2922 2.48684 64.3931 2.89957 62.3239C3.11301 61.242 3.37959 60.1713 3.69832 59.1156C4.02668 58.0221 4.42311 56.919 4.87971 55.8245C5.111 55.2757 5.35562 54.7327 5.61336 54.1958C5.87492 53.6592 6.14914 53.1255 6.43812 52.6001C7.01876 51.5521 7.65157 50.5303 8.33473 49.5588C9.00687 48.5968 9.72904 47.6708 10.4982 46.7844C10.8743 46.3461 11.2621 45.9261 11.6501 45.5159C12.0437 45.1113 12.4238 44.7029 12.8501 44.3535C13.6949 43.6471 14.6505 43.1033 15.6846 42.7156C16.2063 42.5212 16.741 42.3637 17.2848 42.2444C17.8389 42.1254 18.3996 42.0397 18.9639 41.9877C19.5313 41.9347 20.1124 41.9211 20.6787 41.9219C21.2566 41.9343 21.8186 41.9599 22.3826 42.0198C23.4422 42.1241 24.4932 42.3026 25.5278 42.5539C25.7673 42.6124 25.9872 42.6612 26.2065 42.7191L26.8351 42.8949C27.026 42.9454 27.2204 43.0095 27.3938 43.0638C27.5698 43.1206 27.7216 43.1642 27.8719 43.2176L28.2649 43.3542C28.3767 43.392 28.4831 43.4362 28.5624 43.4654C28.7239 43.5266 28.8076 43.5586 28.8076 43.5586Z" fill="#FFB636"/>
<path d="M10.8085 25.5589L0.611175 35.7561C-0.0936371 36.461 0.405582 37.6661 1.40233 37.6661H9.97272C10.2694 37.6661 10.5541 37.784 10.7639 37.9938L16.3287 43.5586L25.3668 25.2312H11.5996C11.4527 25.2312 11.3072 25.2601 11.1714 25.3163C11.0357 25.3725 10.9123 25.4549 10.8085 25.5589ZM30.3977 55.2082L35.9625 60.773C36.1723 60.9829 36.2901 61.2675 36.2901 61.5642V70.1346C36.2901 71.1313 37.4953 71.6306 38.2001 70.9257L48.3974 60.7285C48.6072 60.5186 48.725 60.234 48.725 59.9373V46.1701L30.3977 55.2082Z" fill="#FF473E"/>
<path d="M71.1067 2.51376L71.1175 2.60334C71.1241 2.66226 71.137 2.7531 71.1463 2.86518C71.1647 3.0892 71.2065 3.43626 71.2263 3.8542C71.2899 4.71398 71.3326 5.92434 71.3027 7.38051C71.2736 8.83753 71.1709 10.5395 70.9484 12.387C70.8987 12.8548 70.8276 13.3178 70.759 13.7991C70.6953 14.2852 70.6046 14.7601 70.5218 15.2578C70.3516 16.2487 70.1393 17.2572 69.8942 18.2858C69.3835 20.4207 68.7351 22.5203 67.9529 24.5714C67.1459 26.6837 66.1776 28.7936 65.0426 30.8432C63.9059 32.8912 62.6129 34.8887 61.1677 36.7874C59.7245 38.688 58.131 40.4915 56.4215 42.1787C54.7119 43.8661 52.8884 45.4394 50.9725 46.8673C50.4934 47.2241 50.0115 47.5749 49.5187 47.9106C49.0313 48.2518 48.5334 48.578 48.0371 48.9012C47.0398 49.5427 46.0214 50.143 44.9924 50.7064C42.9668 51.8146 40.8681 52.7836 38.7109 53.6069C36.661 54.3873 34.5642 55.0382 32.4328 55.5557C31.4064 55.803 30.4033 56.0207 29.414 56.1924L28.6857 56.3236C28.4444 56.365 28.1996 56.399 27.9619 56.4363L27.2567 56.5439L26.5572 56.6329C24.7197 56.8653 23.0289 56.9792 21.5826 57.019C20.1378 57.0604 18.9344 57.0247 18.0844 56.9708C17.6707 56.9552 17.3259 56.9155 17.1045 56.8999C16.9936 56.8918 16.9034 56.8795 16.8452 56.8736L16.7565 56.8638C16.084 56.7888 15.574 56.255 15.5023 55.6095L15.4924 55.5209C15.4865 55.4627 15.4743 55.3726 15.4661 55.2616C15.4505 55.0403 15.4109 54.6956 15.3952 54.2818C15.3415 53.4318 15.3058 52.2285 15.347 50.7836C15.3868 49.3372 15.5007 47.6465 15.7332 45.809L15.8222 45.1095L15.9298 44.4043C15.967 44.1666 16.0012 43.9219 16.0424 43.6805L16.1736 42.9522C16.3453 41.9629 16.563 40.9598 16.8104 39.9334C17.3277 37.8019 17.9786 35.7051 18.7591 33.6553C19.5825 31.4981 20.5516 29.3994 21.6597 27.3737C22.2231 26.3449 22.8235 25.3264 23.4649 24.3291C23.788 23.8328 24.1143 23.3348 24.4554 22.8474C24.7911 22.3545 25.142 21.8728 25.4987 21.3937C26.9266 19.4778 28.4999 17.6542 30.1873 15.9447C31.8745 14.2351 33.678 12.6417 35.5786 11.1985C37.4773 9.75342 39.4749 8.46023 41.5228 7.32356C43.5724 6.18857 45.6825 5.22023 47.7947 4.41332C49.8457 3.63112 51.9453 2.98266 54.0802 2.472C55.1089 2.22689 56.1173 2.01454 57.1083 1.84439C57.6059 1.76156 58.0808 1.67085 58.567 1.60715C59.0482 1.53853 59.5111 1.46737 59.979 1.41773C61.8265 1.19526 63.5285 1.0926 64.9855 1.0635C66.4417 1.03354 67.6521 1.07615 68.5118 1.13985C68.9298 1.15968 69.2768 1.20159 69.5009 1.21987C69.6129 1.22915 69.7038 1.24195 69.7627 1.2487L69.8523 1.25953C70.5229 1.34039 71.0293 1.87181 71.1067 2.51376Z" fill="#ADBBBC"/>
<path d="M34.1869 38.1792L34.2689 38.401C34.3146 38.539 34.3762 38.7374 34.4187 38.9584C34.5193 39.4162 34.5527 39.9733 34.3707 40.4579C34.281 40.7015 34.115 40.9046 33.9588 41.1501L33.4395 41.9313L32.1928 43.8033C31.6978 44.5368 31.1984 45.2674 30.6949 45.9952C30.1337 46.8048 29.5658 47.6098 28.9912 48.41L28.0758 49.6699L27.1246 50.9474C26.4792 51.8019 25.8189 52.6652 25.1474 53.5172C24.4824 54.3662 23.8091 55.2086 23.1274 56.0442C22.4551 56.8718 21.7959 57.6884 21.147 58.4679L20.1951 59.6199C19.8799 59.992 19.5931 60.3777 19.2601 60.6995C18.9292 61.0232 18.5474 61.2783 18.1087 61.4555C17.6737 61.6365 17.1976 61.7554 16.7372 61.8665C15.8693 62.0723 14.9919 62.2357 14.1082 62.3562C13.6998 62.412 13.3093 62.4559 12.9404 62.4889C12.5735 62.5238 12.2186 62.5377 11.9075 62.5601C11.5941 62.5799 11.2948 62.5782 11.0448 62.5871C10.791 62.5922 10.5625 62.5839 10.3836 62.5836C10.2009 62.5795 10.0549 62.5704 9.95947 62.5671L9.80956 62.557L9.79943 62.4071C9.7962 62.3116 9.78706 62.1655 9.78298 61.983C9.7827 61.8041 9.7744 61.5757 9.77947 61.3218C9.78818 61.0716 9.78664 60.7725 9.80647 60.459C9.82868 60.148 9.84275 59.793 9.87762 59.4261C9.91053 59.0574 9.9544 58.6668 10.0104 58.2584C10.1309 57.3746 10.2943 56.4973 10.5 55.6294C10.6111 55.1691 10.7301 54.693 10.9111 54.2579C11.0883 53.819 11.3434 53.4373 11.6671 53.1064C11.9888 52.7736 12.3746 52.4869 12.7468 52.1716L13.8988 51.2197C14.6783 50.5708 15.4949 49.9114 16.3225 49.2393C17.1486 48.5657 17.9949 47.8883 18.8495 47.2193C19.7015 46.5477 20.5648 45.8875 21.4193 45.2421L22.6969 44.2909L23.9567 43.3755C24.7569 42.8009 25.5619 42.233 26.3715 41.6718C27.145 41.1359 27.8817 40.6347 28.5635 40.1739L30.4355 38.9272L31.2166 38.4079C31.462 38.2517 31.6651 38.0857 31.9088 37.996C32.3934 37.814 32.9505 37.8474 33.4083 37.9481C33.6293 37.9905 33.8277 38.0521 33.9657 38.0978L34.1869 38.1792Z" fill="#FF473E"/>
<path d="M50.9223 29.0616C50.9223 33.2687 47.5117 36.6793 43.3047 36.6793C39.0976 36.6793 35.687 33.2687 35.687 29.0616C35.687 24.8546 39.0976 21.444 43.3047 21.444C47.5117 21.444 50.9223 24.8546 50.9223 29.0616ZM54.7514 12.7659C52.0733 12.7659 49.9024 14.9368 49.9024 17.6149C49.9024 20.293 52.0733 22.4639 54.7514 22.4639C57.4295 22.4639 59.6004 20.293 59.6004 17.6149C59.6004 14.9368 57.4295 12.7659 54.7514 12.7659Z" fill="#2B3B47"/>
</svg>
