<svg width="64" height="64" viewBox="0 0 64 64" fill="none" xmlns="http://www.w3.org/2000/svg">
<path d="M30.3576 2.76983C31.0972 1.52241 32.9028 1.52241 33.6424 2.76983C34.2917 3.8647 35.8102 4.02985 36.6796 3.10014C37.6701 2.0409 39.4334 2.42903 39.8877 3.8063C40.2864 5.01513 41.7338 5.50284 42.7828 4.78177C43.9779 3.96023 45.6165 4.71835 45.7641 6.16106C45.8936 7.42735 47.2024 8.21482 48.3818 7.7361C49.7256 7.19068 51.1629 8.28333 50.9969 9.72403C50.8511 10.9886 51.9601 12.039 53.2148 11.825C54.6444 11.5812 55.8133 12.9573 55.3414 14.3286C54.9273 15.5322 55.7844 16.7965 57.0559 16.8572C58.5045 16.9264 59.3502 18.5216 58.5945 19.7595C57.9313 20.8459 58.4967 22.2649 59.7253 22.5975C61.1252 22.9765 61.6082 24.7162 60.6041 25.7627C59.7229 26.6812 59.97 28.1885 61.0984 28.7775C62.384 29.4485 62.4818 31.2514 61.2762 32.0576C60.2181 32.7651 60.1354 34.2903 61.1108 35.1081C62.2221 36.0399 61.93 37.8216 60.5794 38.3497C59.3939 38.8133 58.9853 40.285 59.7621 41.2934C60.6471 42.4423 59.9788 44.1196 58.5462 44.345C57.2888 44.5429 56.5733 45.8924 57.1152 47.0442C57.7326 48.3564 56.7193 49.8508 55.2718 49.763C54.0012 49.686 53.0124 50.8501 53.294 52.0915C53.6148 53.5058 52.304 54.7474 50.9092 54.3505C49.6849 54.0021 48.4689 54.9264 48.4771 56.1993C48.4864 57.6495 46.9393 58.5804 45.6624 57.8928C44.5416 57.2894 43.1554 57.9308 42.8897 59.1756C42.587 60.5939 40.876 61.1704 39.7768 60.2245C38.8119 59.3942 37.3202 59.7226 36.7932 60.8812C36.1927 62.2013 34.3977 62.3965 33.5275 61.2364C32.7637 60.2181 31.2363 60.2181 30.4725 61.2364C29.6023 62.3965 27.8073 62.2013 27.2068 60.8812C26.6798 59.7226 25.1881 59.3942 24.2232 60.2245C23.124 61.1704 21.413 60.5939 21.1103 59.1756C20.8446 57.9308 19.4584 57.2894 18.3376 57.8928C17.0607 58.5804 15.5136 57.6495 15.5229 56.1993C15.5311 54.9264 14.3151 54.0021 13.0908 54.3505C11.696 54.7474 10.3852 53.5058 10.706 52.0915C10.9876 50.8501 9.99879 49.686 8.72823 49.763C7.28065 49.8508 6.26742 48.3564 6.88479 47.0442C7.42666 45.8924 6.7112 44.5429 5.45379 44.345C4.02118 44.1196 3.35289 42.4423 4.23792 41.2934C5.01473 40.285 4.60609 38.8133 3.42061 38.3497C2.06996 37.8216 1.77786 36.0399 2.88918 35.1081C3.86459 34.2903 3.7819 32.7651 2.72378 32.0576C1.51824 31.2514 1.61599 29.4485 2.90162 28.7775C4.03003 28.1885 4.27715 26.6812 3.39587 25.7627C2.39181 24.7162 2.87484 22.9765 4.27467 22.5975C5.50332 22.2649 6.06868 20.8459 5.40546 19.7595C4.64983 18.5216 5.49555 16.9264 6.94413 16.8572C8.21557 16.7965 9.07274 15.5322 8.65858 14.3286C8.18671 12.9573 9.35557 11.5812 10.7852 11.825C12.0399 12.039 13.1489 10.9886 13.0031 9.72403C12.8371 8.28333 14.2744 7.19068 15.6182 7.7361C16.7976 8.21482 18.1064 7.42735 18.2359 6.16106C18.3835 4.71835 20.0221 3.96023 21.2172 4.78177C22.2662 5.50284 23.7136 5.01513 24.1123 3.8063C24.5666 2.42903 26.3299 2.0409 27.3204 3.10014C28.1898 4.02985 29.7083 3.8647 30.3576 2.76983Z" fill="#2FD340"/>
<path d="M17.7964 34.5364L26.8705 43.6105L45.0186 24.166" stroke="white" stroke-width="4.74074" stroke-linecap="round" stroke-linejoin="round"/>
</svg>
