<svg width="36" height="36" viewBox="0 0 36 36" fill="none" xmlns="http://www.w3.org/2000/svg">
<path d="M30.4841 4.81924C30.7801 4.81924 30.9885 4.87433 31.097 4.91617C31.2273 5.26366 31.4021 6.50893 30.1173 7.79699L23.5631 14.3628L23.6103 15.1774C23.7098 16.8821 23.8941 19.9371 24.053 22.556C24.1932 24.887 24.3263 27.0883 24.3349 27.2757C24.3394 27.4044 24.3413 27.4349 24.2214 27.5795C23.9536 27.9056 23.4537 28.4583 23.0324 28.9163C22.3792 27.1529 21.0063 23.4283 20.2482 21.3435L19.2739 18.6609L17.2587 20.6799L13.5528 24.2498L13.0366 24.766L13.0207 25.496C13.0085 26.0786 13.0112 27.1243 13.0126 28.0462C13.0144 28.6884 13.0162 29.2719 13.0117 29.5935C13.0035 29.6085 13.1356 29.6262 13.1234 29.6476C13.0444 29.5207 12.9595 29.3838 12.8696 29.2415C12.1223 28.0476 11.0882 26.3961 10.7726 25.8808L10.542 25.5033L10.1634 25.274C8.78647 24.4408 7.26109 23.4789 6.33042 22.878C6.36265 22.8594 6.38896 22.9581 6.41029 22.9467H6.47067C6.76349 22.9467 7.24744 22.953 7.78995 22.9608C8.49952 22.9703 9.30444 22.9822 9.92049 22.9822C10.1566 22.9822 10.3663 22.9803 10.5352 22.9767L11.2638 22.9599L11.7791 22.4436L15.347 18.7564L17.3554 16.7452L14.6901 15.7627C12.6871 15.0246 8.85048 13.5891 7.05589 12.9137C7.5162 12.4889 8.07096 11.9845 8.39465 11.7162C8.485 11.6416 8.55539 11.6034 8.60394 11.6034L8.66795 11.6052C8.86816 11.6148 11.3546 11.7776 13.7584 11.9349C16.3103 12.1019 19.1903 12.2902 20.8278 12.3943L21.6464 12.4457L28.2014 5.87807C29.1221 4.95705 30.0264 4.81924 30.4841 4.81924ZM30.4841 3.00003C29.4114 3.00003 28.0944 3.41295 26.9181 4.59185L20.9424 10.5782C17.5765 10.3649 8.95629 9.79367 8.74246 9.78776C8.69634 9.78541 8.65018 9.78419 8.604 9.78409C8.31299 9.78409 7.81043 9.84003 7.23842 10.3135C6.56697 10.8698 5.16689 12.1888 5.16689 12.1888C4.82913 12.5281 4.65797 12.9483 4.69883 13.3436C4.7238 13.5823 4.85319 14.0176 5.43837 14.2469C5.79384 14.3865 11.4509 16.5069 14.0632 17.4698L10.4953 21.157C10.3373 21.1606 10.1416 21.1625 9.92055 21.1625C8.83281 21.1625 7.14626 21.127 6.47025 21.127C6.38081 21.127 6.30908 21.127 6.25821 21.1288C6.05255 21.1352 5.62672 21.0337 4.50356 21.9743L4.42366 22.0489C4.08681 22.3864 4.00781 22.723 4.00055 22.9454C3.99329 23.1746 4.05457 23.5048 4.38553 23.7704C4.58437 23.9314 7.13349 25.5665 9.22405 26.8314C9.72528 27.6505 12.0315 31.3228 12.1518 31.522C12.3275 31.8194 12.6149 31.9891 12.9586 32H12.9872C13.3213 32 13.6645 31.834 14.0005 31.507C14.9511 30.3931 14.8199 29.9319 14.824 29.7382C14.8389 29.1305 14.8135 26.5562 14.8353 25.5356L18.5407 21.9652C19.4877 24.5714 21.5579 30.1807 21.6964 30.5377C21.927 31.124 22.3615 31.2527 22.5998 31.2768C22.6388 31.2813 22.6788 31.2832 22.7178 31.2832C23.076 31.2832 23.4474 31.1145 23.7515 30.8098C23.7515 30.8098 25.064 29.4144 25.6215 28.7353C26.1799 28.0567 26.1581 27.4773 26.1472 27.2039C26.1427 27.0147 25.617 18.4254 25.4218 15.071L31.3989 9.08281C33.5172 6.95966 33.1804 4.40131 32.3936 3.61447C32.0463 3.26471 31.3431 3.00006 30.4841 3.00003Z" fill="#434343"/>
</svg>
